<?xml version="1.0" encoding="UTF-8"?><svg id="Layer_1" xmlns="http://www.w3.org/2000/svg" viewBox="0 0 428 3305"><defs><style>.cls-1{stroke:#f8a7ac;}.cls-1,.cls-2{fill:none;stroke-width:5px;}.cls-3{fill:#f8a7ac;}.cls-4{fill:#fc9009;}.cls-5{fill:#fd910a;}.cls-2{stroke:#f6a6aa;}</style></defs><path class="cls-2" d="M213.07,3271.78c.02-5.67-.29-14.57-2.21-25.21-3.5-19.46-10.27-33.13-13.07-38.97-19.97-41.73-34.69-72.46-24.77-92,10.9-21.46,51.16-29.01,60.15-17.69,9.23,11.62-10.88,47.61-19.46,46-6.93-1.3-13.49-28.41-3.54-47.77,15.55-30.24,67.38-33.63,65.9-42.9-.45-2.81-5.15-2.07-8.85-7.52-5.59-8.24-3.63-22.92,3.98-30.08,2.06-1.93,6.09-4.23,14.15-8.82,4.71-2.68,6.63-4.7,8.29-6.63,7.15-8.33,7.92-22.34,4.31-24.06-2.82-1.34-9.36,4.28-12.68,10.61-4.8,9.16,.52,13.36-2.58,26.69-2.53,10.89-8.62,17.79-13.27,23.88-7.08,9.29-14.6,9.29-20.79,9.29s-8.85,1.77-8.85,1.77c-9.23,4.77-9.51,4.9-9.51,4.9-3.57,1.66-7.74,2.23-27.42-1.55-19.12-3.67-22.81-5.68-24.77-6.86-4.31-2.59-12.43-7.47-12.61-14.19-.15-5.88,4.43-8.46,5.31-14.15,.88-5.75-7.96-9.73-7.96-9.73-2.97-.8-6.62-1.97-10.69-3.69-5.05-2.14-8.83-4.33-10.91-5.6-8.06-4.94-14.25-8.74-18.13-16.07-1.21-2.28-3.36-6.34-3.26-11.8,.28-14.95,17.18-23.51,19.7-23.14h.06c.53,.09,3.56,.6,3.92,2.21,.29,1.29-1.2,3.02-2.8,3.54-3.24,1.04-7.05-2.87-8.85-4.72-1.5-1.54-5.08-5.6-7.37-13.49-2.17-7.49-2.42-15.81-1.03-16.14,.57-.14,1.01,1.16,4.13,5.97,2.7,4.16,4.22,6.48,6.56,8.77,.54,.52,2.54,2.67,5.68,4.28,3.26,1.66,9.87,4.42,18.13,3.54,2.18-.23,8.42-1.14,13.78-5.6,1.75-1.45,3.89-3.29,3.54-5.45-.33-1.99-2.68-3.77-4.42-3.39-.34,.07-1.35,.38-3.24,5.16-1.77,4.47-1.63,6.06-3.46,9.73-.76,1.51-1.01,1.72-1.77,3.1-.94,1.71-6.35,11.51-3.02,20.35,.95,2.53,1.57,2.18,2.14,4.42,1.12,4.43-1.01,7.16-1.77,12.38-.18,1.2-.88,6.04,.44,10.61,2.56,8.84,11.11,11.09,10.17,14.18-1.03,3.4-11.09-.23-18.91,6.3-3.59,3-3.21,5.22-7.19,7.38-3.09,1.68-9.65,3.77-13.6,.03-2.9-2.75-3.85-8.14-1.44-11.08,2.72-3.3,8.69-2.3,12.05-.86,7.81,3.36,10.58,13.04,13.16,22.53,4.7,17.29,1,22.5,6.19,27.42,2.63,2.49,5.25,2.75,26.32,2.79,25.18,.05,28.09-.3,32.07-2.79,8.07-5.05,11.54-13.26,14.15-19.46,2.09-4.95,3.73-9,1.77-11.94-2.93-4.38-12.6-4.44-14.6-.88-1.47,2.62,.86,7.89,3.43,8.21,4.14,.51,11.69-11.54,8.96-20.59-1.64-5.43-5.87-6.19-6.19-9.81-.34-3.88,3.92-9.81,25.43-18.49-10.09-.97-16.24-2.57-20.12-3.98-1.13-.41-3.66-1.38-6.86-.96-3.45,.45-6.05,2.31-7.67,3.76-1.72-1.72-4.47-3.88-8.04-4.13-2.81-.2-4.77,1.09-7.19,1.91-3.39,1.15-8.24,2.69-14.34,4.28,8.83,2.68,16.43,3.76,21.97,4.23,7.14,.6,13.37,1.12,21.23-.69,8.47-1.96,14.75-5.69,18.58-8.4-1.17-.59-2.94-1.49-5.09-2.63-4.38-2.31-4.98-2.78-6.74-3.65-4.85-2.41-7.87-3.91-11.17-3.46-5.03,.69-8.18,5.57-9.29,7.52-3.58-4.9-6.91-6.28-9.29-6.63-6.67-.99-10.83,4.06-20.2,6.63-4.01,1.1-9.94,1.96-17.84,.48,8.26-.55,14.14-2.6,18.02-4.42,11.11-5.2,13.13-6.3,13.13-6.3,3.47-1.88,5.31-3.05,7.84-2.81,4.1,.39,6.92,4.19,8.26,6.34,3.04-3.4,7.12-6.69,11.65-6.34,1.64,.13,2.78,.57,9.36,4.5,9.35,5.58,10.53,6.67,13.67,7.81,2.67,.98,6.69,1.97,12.16,1.66-6.97-14.52-10.47-27.75-4.75-34.54,8.28-9.83,31.75-1.24,34.94-8.85,2.82-6.71-14-16.9-10.62-24.77,1.75-4.08,8.39-6.28,10.62-4.42,3.53,2.93-.74,18.72-11.5,25.21-6.18,3.73-12.59,3.23-19.9,2.65-4.56-.36-13.8-1.52-22.56-7.52-3.2-2.19-7.81-5.36-7.3-8.92,.36-2.47,3.19-5.12,5.75-4.64,2.14,.4,3.96,2.94,3.76,5.16-.34,3.79-6.34,3.75-10.17,9.29-3.04,4.4-.76,6.59-3.1,10.61-4.42,7.62-18.23,9.44-28.31,6.63-6.31-1.76-10.73-5.21-13.27-7.59-8.21-11.78-8.89-16.09-7.52-17.62,3.74-4.14,23.64,11.34,29.45,5.84,1.88-1.78,1.17-4.71-.7-17.78-.69-4.81-1.22-9.64-1.85-14.46-.74-5.7-.74-4.99-.8-5.74-1.01-11.43,3.04-19.78,1.99-27.86-.23-1.74-.37-2.82-.74-3.83-1.46-4-4.55-5.84-4.13-6.49,.35-.53,2.26,.89,5.45,1.03,3.44,.16,5.59-1.29,5.9-.74,.34,.6-2.02,2.67-3.83,3.98-3.61,2.62-5.25,2.44-6.78,4.28-1.84,2.21-1.46,4.84-1.62,6.93-.29,3.73-2.56,8.86-11.35,14.89,23.47-1.28,46.93-2.56,70.4-3.83,.63,2.5,1.66,8.19-.88,14.15-4.11,9.63-14.78,13.46-22.56,13.71-1.79,.06-12.87,.22-20.79-8.85-7.36-8.42-6.45-18.46-6.27-20.12,30.73,.93,46.88-1.74,56.02-4.72,1.24-.4,10.79-3.56,22.78-2.58,6.35,.52,9.73,1.9,11.94,3.1,6.58,3.55,9.88,9.23,11.28,12.09,.19-1.58,.52-3.77,1.11-6.34,.34-1.5,.68-3.01,1.33-4.87,1.2-3.46,1.84-5.32,3.54-7.08,2.63-2.73,5.96-3.35,7.08-3.54,1.66-.28,4.96-.85,7.52,.88,3.72,2.51,4.1,8.66,3.1,12.83-1.14,4.75-3.48,4.42-7.96,13.27-1.93,3.82-2.87,6.54-2.65,9.73,.15,2.32,.81,4.16,1.33,5.31,.96,1.31,4.95,7.04,3.1,12.97-.72,2.3-2.81,6.26-5.31,6.04-1.84-.16-2.94-2.33-3.1-2.65-.84-1.72-.94-4.37,.44-5.31,1.08-.73,2.83-.28,3.98,.44,1.41,.89,2.33,2.44,3.54,15.92,.22,2.45,.38,4.54-.44,7.08-.47,1.46-1.54,4.76-3.98,5.31-1.85,.41-3.65-.95-5.31-2.21-.56-.43-1.82-1.46-2.99-3.17-1.37-2.03-1.86-3.92-2.1-4.87-.89-3.56-1.97-13.05-2.54-25.76-1.57,2.41-2.35,4.56-2.76,6.08-.99,3.59-.84,6.8-.55,12.83,.07,1.41,.15,2.36,.22,3.1,.12,1.17,.4,3.59,1.11,6.75,.5,2.24,1.06,4.73,2.1,7.26,1.31,3.2,3.22,7.84,7.96,10.62,1.02,.6,5.8,3.4,11.17,1.7,3.94-1.25,6.04-4.24,7.19-5.86,4.02-5.71,3.77-12.1,3.65-14.37-.43-8.03-4.48-16-5.64-18.17-1.33-2.48-2.9-4.89-2.87-8.48,.01-2.14,.59-3.35,1.99-7,3.81-9.91,2.98-9.75,4.87-13.27,3.31-6.18,5.05-5.1,6.63-9.29,3.06-8.05-1.71-16.39-2.21-17.25-1.06-1.79-5.31-8.37-13.71-10.17-1.42-.3-11.59-2.31-18.02,4.9-4.4,4.93-4.28,11.06-4.2,12.61-.96-.66-2.24-1.75-3.1-3.43-2-3.91-.09-7.76,1.75-15.45,.86-3.59,1.91-8,2.12-12.97,.32-7.77-1.5-15.56-3.1-15.59-2.23-.04-.65,15.17-10.13,22.03-.43,.31-2.99,1.71-8.12,4.5-4.79,2.61-9.19,4.96-10.06,5.42-3.63,1.88-11.78,4.99-30.41,5.97,.49,.07,3.81,.63,5.09,3.21,1.85,3.73-1.68,9.42-5.42,9.58-3.96,.17-7.69-5.87-6.19-9.29,.25-.57,.85-1.53,2.43-2.29-7-2.04-14.01-4.08-21.01-6.12,2.11,3.83,6.16,9.83,13.27,14.6,2.83,1.9,5.57,3.21,7.96,4.13,2.41-.04,6.03-.41,9.95-2.1,2.69-1.16,4.54-2.53,7.96-5.31,3.16-2.58,7.29-6.06,12.04-10.43,.78-1.7,1.72-4.22,2.11-7.37,.35-2.81,1.32-10.53-2.65-13.6-3.39-2.62-6.82,.94-12.72-2.21-1.44-.77-4.19-2.24-5.2-5.12-.79-2.25,.21-3.33-.77-5.49-.84-1.86-2.87-3.91-5.42-4.09-3.36-.24-6.05,2.89-7.08,5.16h0c-.14,.31-3.05,6.58-7.99,8.54-2.07,.83-3,.15-6.6,.3-9.37,.4-10.32,3.27-15.48,2.65-6.21-.74-7.03-5.15-13.27-7.96-4.27-1.92-11.02-3.08-21.67,.88-5.33,1.21-12.88,3.89-19.46,10.17-10.04,9.58-16.43,26.22-10.84,33.87,3.17,4.33,7.52,5.31,7.52,5.31,2.73,.61,4.41-.21,8.07,.44,2.76,.49,4.89,1.5,6.23,2.25-6.73,1.63-11.33,2.73-14.08,3.39-12.47,2.98-13.04,3.06-14.3,4.05-.77,.6-2.49,2.1-4.28,1.7-1.05-.24-2.13-1.14-2.36-2.36-.28-1.5,.85-2.85,1.92-3.39,1.69-.87,3.65,.07,4.42,.44,4.86,2.33,4.67,8.07,8.4,13.49,4.22,6.12,11.75,9.39,18.13,9.8,7.34,.48,12.84-2.83,15.48-4.42,3.27-1.97,8.15-4.91,10.62-11.06,2.74-6.84,.69-13.16,0-15.04l-18.13,2.21c1.85-3.74,1.03-7.68-1.33-9.29-1.35-.92-3.37-1.18-5.09-.41-1.93,.87-3.63,3.12-3.1,5.31,.62,2.53,3.91,3.75,6.41,3.06,2.85-.79,3.8-3.83,3.86-4.05,4.76-4.99,9.51-9.98,14.27-14.97-4.41,2.81-11.5,6.58-20.92,8.65-10.79,2.37-19.86,1.46-25.3,.49-.56,1.68-2.99,8.36-9.88,11.79-5.06,2.52-12.36,3.2-17.25-.44-2.04-1.53-4.99-4.8-4.13-7.52,.44-1.39,1.96-2.93,3.54-2.65,1.43,.25,2.67,1.97,2.51,4.13-.16,3.58-.89,11.26-5.09,16.95-2.08,2.82-3.68,3.38-4.42,3.54-2.83,.6-4.11-1.42-7.08-1.33-4.62,.15-9.16,5.44-8.33,7.81,.47,1.35,2.87,2.23,4.35,1.47,1.39-.71,1.8-2.75,1.55-4.13-.21-1.11-.77-1.35-1.55-3.39-.39-1.03-.55-1.75-.67-2.23-.4-1.53-1.66-6.38-5.08-7.95-2.01-.92-4.91-.77-6.74,.77-2.54,2.14-2.03,6.17-1.59,9.7,.53,4.28,1.58,12.69,8,17.21,6.46,4.56,13.7,1.88,14.93,5.53,.47,1.4-.57,3.47-2.65,7.63-1.72,3.44-2.63,3.94-3.33,4.12-1.64,.41-3.43-.63-4.41-1.8-1.11-1.32-1.17-2.8-1.18-3.21,0-.36,0-2.86,2.06-4.2,1.04-.67,2.87-1.23,3.98-.44,1.95,1.39,.93,6.41-.46,9.65-1.83,4.27-4.03,4.8-5.07,8.56-.74,2.66-.38,5.08,0,6.63,.36,1.19,1.86,5.73,5.31,6.63,3.76,.98,7.54-2.98,10.62-6.19,2.95-3.09,4.72-6.21,5.75-8.4,.23,2.93,.23,8.44-2.65,14.15-3.32,6.57-11.31,15.12-19.02,13.27-6.22-1.49-9.68-9.05-10.62-13.71-1.02-5.04,.21-10.28,2.65-20.75,.79-3.38,.78-2.78,.88-3.58,1.53-12.22-15.28-16.82-15.92-30.96-.27-5.94,1.39-10.6,2.21-12.83,1.74-4.74,3.66-9.96,8.85-12.38,4.84-2.26,9.68-.76,10.69-.44,4.63,1.44,7.23,4.67,9.88,7.96,2.83,3.51,4.42,6.89,5.31,9.14,.95-6.89-.43-11.46-1.99-14.45-2.36-4.51-7.74-10.41-9.93-16.06-.42-1.07-.95-2.94-.16-4.64,.7-1.52,1.9-1.64,3.02-2.75,2.95-2.92,2.7-10.08-.88-13.27-.39-.35-2.18-1.93-4.5-1.62-2.09,.28-4.29,2.06-4.29,4.11,0,2.28,2.74,4,4.88,4.3,4.28,.59,9.15-4.11,9.66-8.55,.36-3.17-.84-4.72-2.21-8.85-1.33-3.98,0,0-9.29-.88-2.63-.25-3.96,.02-5.28,.37-4.01,1.05-4.66,3.57-6.59,3.32-2.63-.34-1.88-5.07-5.6-8.55-4.5-4.2-10.21-1.61-12.61-5.75-1.33-2.3-.7-5.05-.66-5.22,.71-2.91,2.93-3.14,4.2-6.73,.81-2.29,.22-3.09,1.25-4.42,1.28-1.64,3.41-2.01,4.94-2.21,9.27-1.22,13.93-1.87,17.25,1.33,2.81,2.71,5.33,8.29,2.65,12.83-2.34,3.96-7.49,5.19-11.43,4.13-4.54-1.22-8.53-5.76-7.59-8.55,1-2.97,7.76-4.4,12.38-1.77,5.27,3,5.31,9.86,5.31,10.17,.07,.74,.69,6.72,5.31,9.29,4.35,2.42,9.34,.21,12.83-1.33,.83-.37,2.06-.81,3-1.94,.86-1.04,2.1-1.94,2.31-3.37,.3-2.02-1.53-2.53-1.88-5.16-.35-2.65,1.32-3.53,.66-5.09-.89-2.11-5.23-3.58-7.63-1.7-2.61,2.05-1.05,6.61-.88,7.08,.94,2.75,3.04,4.24,3.85,4.82,6.66,4.74,16.89,1.01,18.26,.49,5.11-1.37,7.8-5.45,7.08-8.4-.52-2.11-2.92-4.23-5.42-4.17-1.05,.03-2.74,.46-3.05,1.51-.44,1.48,2.03,3.61,3.94,4.68,4.72,2.65,9.97,1.02,16.92-1.14,1.04-.32,2.03-.68,2.8-1.61,1.69-2.06,.21-4.41,1.63-5.87,1.38-1.41,4.75-1.24,6.4,.37,1.64,1.6,.54,3.62,2,5.38,1.73,2.08,5.32,1.74,7.41,1.55,4.39-.41,6.68-2.22,14.71-4.53,1.27-.37,3.1-.86,4.19,.06,1.43,1.21,.6,4.06,1.34,4.25,.83,.22,1.66-3.4,4.64-4.46,.37-.13,1.16-.36,2.12-.27,2.19,.21,2.69,1.82,4.4,2.63,3.32,1.56,6.26-2.19,9.12-.62,1.66,.91,2.14,2.97,2.28,3.57,1.09,4.63-3.72,7.36-2.45,10.62,.86,2.21,3.29,1.51,5.2,4.46,1.98,3.05,.55,5.61,1.88,6.3,2.01,1.05,7.85-3.48,9.62-9.62,.18-.63,1.9-6.61-.62-8.46-2.82-2.07-7.66,3.47-14.09,1.49-.85-.26-3.36-1.03-4.09-3.1-.43-1.21-.07-2.36,.12-2.95,.73-2.33,2.69-3.64,4.64-4.94,2.65-1.77,3.54-2.65,13.27-.88,9.73,1.77,1.33,5.31-.44,6.63-1.77,1.33-5.31-3.1-5.31-5.75s3.1-3.54,3.1-3.54c0,0,12.83-2.21,18.58,.44,5.75,2.65-1.77,3.54-5.75,4.42-3.98,.88-2.65,8.85-2.65,8.85,0,0,10.17,3.98,19.46,2.21,1.5-.29,3.42-.93,3.58-2.01,.29-1.97-5.7-3.13-5.79-5.96-.07-2.38,4.08-5.02,6.63-5.31,.41-.05,1.43-.11,2.97-.36,1.78-.29,2.13-.52,4.99-.52,3.98,0,12.38,2.65,11.94,11.06-.02,.43-.1,2.41-1.5,4.09-2.26,2.73-7.1,3.69-9.12,1.66-2.34-2.36,.2-7.63,.55-8.37,1.95-4.05,5.49-5.93,7.08-6.74,1.21-.62,8.68-4.46,15.15-.77,.87,.49,5.18,2.95,5.3,6.53,.13,3.79-4.55,5.38-4.08,9.39,.18,1.54,1.11,3.36,2.76,3.98,1.79,.68,4.38-.06,4.98-1.77,.5-1.44-.55-3.12-1.66-3.98-1.64-1.28-3.2-.6-6.19-1.11-2.27-.39-4.67-1.34-6.08-2.43-4.62-3.59-5.05-13.77-1.22-16.36,3.72-2.52,9.48,3.41,13.38,.55,3.06-2.25,1.38-7.29,4.64-8.96,2.56-1.31,5.93,.61,6.41,.88,5.06,2.88,3.28,8.11,8.62,13.16,3.66,3.46,6.11,2.53,7.45,5.56,1.69,3.83-.14,10.03-4.02,11.33-2.57,.86-5.24-.71-5.86-1.07-2.39-1.4-3.42-3.52-3.91-4.55-1.9-4.02-2.57-11.39,2.36-15.91,5.96-5.46,15.95-2.91,19.13,1.77,3.3,4.85-1.85,10.29,1.44,14.6,3.57,4.68,15.01,5.31,19.13-.59,2.28-3.25,2.83-9.22-.62-11.92-2.92-2.29-7.42-1.2-9.89,.56-.74,.52-2.09,1.52-2.54,3.32-.42,1.64-.04,3.78,1.33,4.87,1.95,1.54,5.36,.51,7.19-1.04,4.98-4.22,1.6-15.18,1.43-15.7-3.19-9.94-10.3-10.98-10.61-18.32-.24-5.75,3.85-11.61,6.19-11.32,2.16,.27,4.55,6.01,3.1,10.61-2.56,8.13-15.72,8.31-15.92,14.15-.07,2.05,1.46,4.27,2.76,4.35,1.64,.1,4-3.17,3.43-5.68-.83-3.64-7.13-2.49-12.83-7.96-3.07-2.95-6.11-7.97-4.53-10.91,.86-1.6,3.17-2.75,4.72-2.07,1.88,.82,1.84,4.01,1.83,4.48-.04,3.17-2.29,5.3-2.9,5.84-6.42,1.82-10.43,5.55-10.17,8.85,.21,2.73,3.36,5.57,4.75,5.01,1.09-.43,1.79-3.22,.88-5.2-2.49-5.44-16.19-2.7-26.98-8.51-2.24-1.21-3.84-2.5-3.87-4.09-.03-1.42,1.2-2.93,2.65-3.32,1.71-.46,3.83,.59,4.64,1.99,2.89,4.95-10.28,14.91-7.63,19.24,1.2,1.95,5.28,2.21,6.19,1,.89-1.19-.96-4.15-2.32-5.68-.42-.47-1.51-1.68-3.07-2.41-5.03-2.36-9.05,2.96-13.3,1.08-3.47-1.54-4.92-6.92-3.98-10.17,.39-1.33,1.05-1.85,1.29-2.02,1.6-1.1,4.25-.33,5.78,1.14,1.11,1.07,2.07,2.91,1.66,4.57-.63,2.56-4.51,4.63-9.18,3.39-10.42-1.95-18.14,1.6-19.02,5.75-.84,3.97,4.22,10.12,9.73,10.61,.63,.06,3.61,.32,5.67-1.66,1.81-1.74,2.22-4.55,1.85-6.3-1.89-8.83-28.57-13.34-33.17-6.19-1.15,1.79-.49,3.62-2.21,4.87-3.22,2.32-10.54-.45-11.06-3.61-.15-.89,.21-2.05,.97-2.44,1.01-.52,2.75,.32,3.23,1.44,.83,1.92-1.98,4.76-3.57,6.38-2.51,2.55-7.21,7.3-14.78,7.96-4.16,.36-7.04-.7-12.38-2.65-5.93-2.17-10.79-3.96-11.06-7.08-.26-3.05,3.97-6.11,7.52-7.08,4.08-1.11,9.9-.16,12.09,3.98,1.16,2.2,1.23,5.17,0,7.52-1.86,3.54-6.57,4.47-15.92,6.19-7.13,1.31-10.76,1.93-14.3,.44-4.38-1.85-6.71-5.34-7.45-6.49-1.51-2.33-3.29-5.08-2.36-7.81,1.24-3.65,6.75-5.61,10.76-4.13,1.7,.63,4.94,2.54,4.76,5.52-.17,2.86-3.34,4.42-3.51,4.5l-12.38,8.4-12.38-3.1s-6.19-3.1-8.85-5.31c-.66-.55-2.59-4.69-.44-7.96,1.74-2.65,5.72-3.97,8.85-2.21,3.24,1.83,4.4,6.31,2.21,9.73-2.23,4.34-4.76,5.96-6.63,6.63-4.7,1.7-7.5-1.71-13.34-.29-5.37,1.3-6.33,4.97-8.77,4.28-4.49-1.28-7.46-15.48-1.77-19.46,2.83-1.98,8.09-1.65,10.17,1.33,2.25,3.22-.19,8.17-2.65,10.61-3.23,3.22-8.46,4.07-13.49,2.36-2.73-.18-6.7-.54-11.5-1.33-3.05-.5-3.63-.72-4.2-1.03-5.14-2.82-6.21-11.57-3.98-17.69,3.54-9.73,10.17,0,10.17,0,0,0,.88,3.98-.44,7.96-1.33,3.98-6.63,7.52-6.63,7.52-1.74,.31-4.18,.52-7,0-6.26-1.14-10.17-5.06-11.57-6.63-1.76-1.3-5.56-4.53-6.63-9.73-.36-1.72-1.01-4.86,.88-7.08,1.03-1.21,2.99-2.35,4.81-1.79,2.17,.67,3.07,3.43,3.08,5.18,.02,3.49-3.46,6.99-8.77,8.55-1.38,.62-3.91,1.53-7.08,1.33-4.57-.29-10.1-2.86-11.94-7.5-3.38-8.49,7.46-19.21,10.17-18.16,1.96,.76,2.11,8.57-1.33,10.61-2.48,1.48-6.01-.53-6.63-.88-5.08-2.89-8.17-10.44-5.75-15.92,1.67-3.79,5.44-5.36,10.62-7.52,3.48-1.45,5.84-2.44,8.85-2.21,7.91,.59,15.22,9.2,13.71,12.83-1.16,2.8-8.19,4.12-11.74,.88-1.72-1.57-3.07-4.61-1.97-6.63,2.46-4.54,15.85-1.12,22.11,.44,5.31,1.33,11.06,5.75,12.83,8.4,1.77,2.65-1.77,8.85-1.77,8.85-1.67,2.31-4.27,3.56-6.63,3.1-4.12-.8-6.11-6.54-4.57-9.13,.99-1.66,3.41-1.97,5.97-2.08,5.92-.26,25.41-1.12,30,9.44,.34,.78,2.04,4.94,0,7.98-1.88,2.79-6.36,3.82-11.28,2.48-.41-.31-3.03-2.33-2.87-5.16,.05-.96,.3-2.45,2.21-3.98,5.22-4.18,13.27-4.87,13.27-4.87,13.33-1.21,20-1.81,21.67,.88,2.54,4.09-1.22,13.19-5.82,13.71-4.15,.47-9.2-6-8.77-11.94,.41-5.68,5.85-10.87,13.27-11.5,1.89,.34,21.65,4.03,22.04,10.91,.11,2-1.39,4.7-3.68,5.79-2.83,1.35-6.69,.18-7.08-1.36-.38-1.48,2.53-2.8,2.06-4.72-.3-1.26-1.75-1.46-1.77-2.36-.02-1.26,2.79-2.42,4.79-2.95,6.96-1.83,17.64,.49,20.27,7.08,1.13,2.84,.79,6.54-.33,6.94-1.14,.41-3.74-2.37-4.1-5.32-.06-.5-.14-1.23,.15-2.06,.64-1.87,2.54-2.71,4.5-3.54,1.65-.7,1.43-.34,5.88-1.62,2.29-.66,3.08-.96,4.58-1.04,1.09-.05,1.59,.07,3.4,.24,3.18,.31,4.02,.21,5.3,.32,2.32,.2,8.28,2.12,8.54,5.33,.17,2.16-2.25,4.55-5.64,5.97-3.32,.53-6.32-.72-7.52-2.99-1.31-2.48,.05-5.22,.33-5.79,1.78-3.58,6.41-5.57,11.75-5.31,2.31-.97,6.9-2.53,12.58-1.77,3.18,.42,9.07,1.21,11.83,5.9,1.98,3.36,2.61,9.15-.55,11.28-2.62,1.76-7.09,.5-9.18-2.21-2.37-3.07-1.09-7.19-.33-9.66,1.74-5.64,7.21-14.07,16.36-14.6,6-.35,10.48,2.88,12.07,4.16,.2,.14,3.73,2.67,3.41,6.46-.33,3.87-4.5,7.04-7.08,6.19-1.96-.64-3.44-3.75-2.76-6.16,1.57-5.64,14.55-6.09,18.69-6.23,5.77-.2,8.02,.81,9.07,1.36,3.18,1.69,7.28,5.61,6.52,9.84-.45,2.54-2.68,5.31-5.06,5.25-2.25-.06-4.55-2.63-4.78-4.96-.71-7.21,17.69-20.06,29.63-14.6,4.95,2.26,9.6,8.04,8.85,13.27-.47,3.25-3.11,6.9-5.31,6.63-2.03-.24-3.03-3.75-3.1-3.98-1.37-5,2.8-9.75,3.43-10.47,2.78-3.17,6.13-4.25,9.84-5.45,3.28-1.06,5.08-1.01,5.88-.95,1.61,.12,4.82,.35,6.5,2.72,1.99,2.81,1.03,7.49-.44,7.89-1.36,.37-4.05-2.69-3.98-5.68,.05-2.04,1.37-3.53,2.21-4.42,5.84-6.22,11.83-12.6,20.01-11.91,1.37,.12,5.49,.47,6.61,2.99,1.25,2.81-1.63,7.32-5.4,8.91-4,1.69-9.02,.08-10.95-3.06-.96-1.57-.76-2.91-.16-7.91,1.6-13.34,1.65-16.16,3.81-17.07,1.57-.66,3.8-.13,4.32,.98,.69,1.46-1.66,3.78-1.89,4-3.34,3.24-9.38,3.6-13.82,1.44-1.54-.75-4.14-2.02-4.75-4.75-.48-2.14,.35-4.79,2.21-5.9,2.44-1.45,6.51-.13,7.96,2.21,3.09,5-3.48,18.25-14.15,22.11-7.3,2.65-14.07,0-16.36-.88-3.15-1.23-6.98-2.72-7.96-6.27-.88-3.2,.99-6.54,2.93-8.35,4.53-4.22,13.15-3.58,14.76-.42,2.19,4.29-7.35,15.48-18.58,20.35-11.85,5.14-27.65,4.13-30.96-2.34-.89-1.75-1.03-4.19-.22-6.19,1.18-2.9,4.62-5.54,7.96-4.75,3.28,.77,5.46,4.6,5.09,7.54-.7,5.54-10.68,9.89-19.02,8.85-8.89-1.11-17.26-8.52-16.36-13.27,.43-2.27,3.04-4.33,4.87-3.94,2.24,.47,3.75,4.76,3.1,7.48-1.85,7.65-22.05,8.34-24.33,8.4l-6.19-5.75s-.44-3.1,5.31-7.08c1.8-1.25,2.12-1.79,2.64-1.72,2.02,.27,3.6,5.21,3.11,8.35-.87,5.58-8.98,9.89-19.9,11.5h-4.87c-6.12,1.8-11.78-1.49-12.83-5.75-1-4.05,2.4-8.01,5.31-9.73,.53-.31,5.17-2.98,7.96-.81,1.79,1.39,2.01,4.21,1.66,6.11-.88,4.76-6.01,7.41-12.79,10.91-3.6,1.86-5.78,2.95-9.07,3.24-4.13,.37-7.47-.75-9.3-1.53-5.57-2.65-7.87-7.47-6.62-10.34,.81-1.86,3.34-3.42,5.82-3.02,2.46,.39,4.4,2.62,4.64,4.72,.5,4.31-5.98,9.7-11.94,9.73-4.27,.02-4.79-2.72-11.34-4.6-7.44-2.14-11.55,.02-12.55-2.03-1.18-2.42,2.99-8.6,8.4-9.29,5.7-.73,11.32,4.8,10.62,6.63-1.2,3.14-21.89-2.12-26.91-3.39-8.3-2.11-14.97-4.54-19.46-6.34-2.68-1.09-4.56-3.39-4.82-6.01-.24-2.42,.99-4.29,1.21-4.61,.46-.68,1.3-1.92,2.56-2.25,2.72-.72,7.11,2.86,7.61,6.68,.67,5.08-5.95,7.57-4.87,11.5,.85,3.07,5.77,4.67,9.07,5.75,4.69,1.53,6.8,.82,7.81,2.51,1.62,2.69-1.38,8.38-3.83,8.4-2.48,.02-3.16-5.79-6.49-6.04-1.93-.15-2.67,1.74-5.16,2.8-2.82,1.2-5.88,.47-10.91-1.62-10.17-4.23-19.99-8.31-19.61-13.56,.19-2.67,2.94-4.33,3.1-4.42,5.63-3.29,14.74,3.66,19.02,6.93,1.85,1.41,8.42,6.42,7.52,8.11-.85,1.6-8.46,.21-14.01-3.83-4.97-3.62-7.2-8.57-8.18-11.35-13.48-6.33-16.45-9.71-16-11.65,.4-1.72,3.71-3.21,5.6-2.36,1.98,.9,1.48,3.96,3.69,5.01,1.33,.63,3.28,.36,4.5-.59,2.99-2.34-.88-7.25,.88-17.25,.49-2.78,1.22-4.89-.06-6.43-1.98-2.38-6.99-.92-7.9-1.53-1.33-.88-13.71,.88-15.48,3.1-4.47,5.59-5.6,15.96,.44,21.67,5.63,5.32,15.86,5.1,18.26,1.31,1.43-2.25,.41-6.5-1.98-8.42-1.62-1.3-2.91-.77-4.31-1.42-4.54-2.13-2.39-13.17-1.8-29.07,.53-14.12-.43-20.79,3.27-22.92,2.98-1.72,8.72,3.63,20.17-2.73,8.01-4.45,10.36-5.53,10.63-5.18,.33,.43-2.01,1.97-1.83,4.21,.15,1.82,1.81,2.46,2.63,3.77,2.2,3.54-1.82,11.97-7.89,16.22-9.56,6.68-22.49,1.77-22.48,.59,0-.97,8.99-.06,11.35-4.86,1.51-3.07-.8-6.21,.74-7.37,1.59-1.2,6.1,.64,7.52,3.83,1.44,3.24-.28,7.91-4.64,10.75,0,0-2.25,1.21-4.18,2.38-1.1,.67-1.89,1.24-2.02,1.32-3.43,2.4-8.91,11.03-5.97,15.19,.89,1.27,2.28,1.7,2.95,1.92,3.57,1.13,5.88-1.14,15.41-6.04,4.64-2.39,6.32-2.94,6.29-4.3-.04-2.25-5.72-3.68-6.29-4.55-.88-1.33-7.96,1.33-8.4,3.98-.97,5.83-.21,12.67,3.98,16.81,6.01,5.94,15.01,5.11,19.46,3.54,2.91-1.03,5.2-2.84,6.63-3.98,2.61-2.07,2.89-3.03,2.94-3.63,.15-1.81-1.48-3.56-2.94-4.33-3.69-1.94-10.1,.37-11.94,4.42-1.8,3.97,1.17,8.79,5.31,15.48,.56,.9,1.2,1.68,2,2.65,5.74,6.93,8.61,4.42,8.61,4.42,6.94-6.53,11.79-7.52,15.04-7.08,1.1,.15,4.53,.81,4.94-.15,.31-.72-1.38-1.68-1.28-3.55,.03-.59,.1-1.19,.77-2.05,4.42-5.75-.44-2.21-.44-7.08s-.88-3.1-7.08-8.4c-6.19-5.31-13.71,12.38-12.38,13.71,1.33,1.33,3.1,15.48,14.6,18.3,11.5,2.82,4.87,2.49,29.63,2.05,20.91-.37,8.41-2.32,8.53-6.38,.03-1.17,1.06-1.9,1.65-2.47,4.41-4.21,3.03-14.95,.88-15.48-1.53-.38-2.5,4.64-6.41,5.31-3.3,.57-5.14-2.58-6.41-1.77-2.33,1.48,.43,15.54,8.4,18.13,1.87,.61,3.97,.22,8.16-.55,9.5-1.76,10.67-3.78,15.28-3.87,4.58-.09,5.9,1.29,8.85,0,.9-.39,2.98-1.49,4.87-3.58,.9-1,1.45-1.48,1.56-2.09,.58-3.06-5.21-6.89-11.29-15.12-7.52-10.17-5.31,7.08-2.65,10.17,2.65,3.1,.44,5.31,7.96,7.04,7.52,1.73,18.58-1.29,24.77-7.04,2.18-2.02,2.42-3.24,2.27-4.11-.46-2.64-5.69-4.89-9.64-3.34-2.19,.86-4.75,3.19-4.57,5.68,.37,5.22,12.59,8.5,20.35,8.21,1.09-.04,6.45-.59,8.38-3.16,.79-1.05,.21-2.26,4-5.05,7-5.14,0-2.65,0-12.83s-7.52,0-7.52,0l-6.19,10.62s0,6.63,12.83,9.26,8.4,.47,16.36-3.07c2.58-1.15,3.54-1.97,3.68-2.8,.46-2.7,.33-6.46-2.35-8.26-.97-.65-3-1.57-4.28-.74-1.37,.89-.31,2.76-1.55,5.16-1.7,3.3-5.62,3.5-5.5,5.16,.06,.77,.93,.84,2.92,2.36,3.23,2.47,3.06,3.91,5.16,4.64,1.59,.55,3.64,.4,5.16-.52,2.32-1.4,2.1-3.78,3.83-4.13,1.62-.33,2.23,1.66,4.28,1.62,2.65-.05,4.55-3.45,5.01-4.28,.45-.8,1.1-2.23,1.25-4.06,.05-.64-.65-1.73-.36-3.9,.88-6.63-10.17,.88-2.65,2.53,7.52,1.65,8.85,6.31,23.44,0,14.6-6.31,5.31-14.47,3.1-18.9-2.21-4.42-8.4,5.75,.44,8.85,1.08,.38,2,.62,2.81,.75,5.79,.88,5.56-4.59,14.88-13.13,10.62-9.73,4.42-13.27,4.42-21.23s-12.83-3.98-12.83-3.98c-4.31,.89-7.61,3.98-8.4,7.81-.9,4.32,1.42,11.18,4.87,10.32,1.77-.44,7.96-5.31,7.52-8.4-.42-2.93-12.09-1.42-14.6,3.54-1.65,3.27,1.16,6.37-1.11,9.51-1.29,1.79-2.41,1.06-6.23,3.76-2.39,1.68-4.68,3.35-5.49,6.19-.15,.52-1.15,4.01,.88,5.68,1.23,1.01,3.34,1.16,4.41,.2,1.91-1.7-.27-6.12-.47-6.54-.89-1.81-2.11-2.91-2.61-3.32-2.95-2.46-6.47-2.58-8.4-2.65-.92-.03-7.41-.17-12.81,4.35-1.61,1.35-3.91,3.27-3.48,5.45,.29,1.49,1.78,2.71,3.24,2.87,2.55,.29,4.96-2.62,5.16-5.09,.34-4.23-5.8-7.16-6.71-7.59-6.08-2.9-12-.51-13.27,0-1.11,.45-6.89,2.78-6.63,5.75,.17,1.9,2.8,3.94,4.94,3.54,.18-.03,1.32-.25,1.8-1.16,.93-1.77-1.58-4.51-1.73-4.67-3.15-3.36-8.87-2.33-9.88-2.14-1.67-.69-6.87-2.59-12.38-.44-5,1.95-9.81,7.06-8.7,10.03,.76,2.03,4.33,3.09,6.93,2.36,1.52-.43,3.21-1.61,3.1-2.58-.11-.91-1.74-1.01-2.14-2.36-.26-.88,.21-1.58,.37-2.14,.73-2.64-4.01-8.32-9.29-8.85-6.22-.62-9.76,7.1-12.83,9.29-3.1,2.21-7.52,14.15-3.98,14.84,3.54,.69,1.77-3.34,4.42-6.88,.57-.75,.73-1.37,.63-1.88-.34-1.73-2.67-2.48-5.05-3.87-4.67-2.71-4.14-5.15-6.86-6.19-6.85-2.62-18.24,9.55-17.62,14,.1,.73,.43,1.45,1.03,2.17,1.84,2.18,2.83,2.84,3.35,2.62,1.36-.58,2.04-4.72,1.51-8.16-.95-6.24-6.11-12.59-13.27-15.04-6.47-2.21-13.81-.99-19.02,3.1-4.1,3.22-7.82,8.99-7.08,14.6,.88,6.63,3.98,.88,16.36-7.46,12.38-8.34-2.65-15.98-5.75-24.83-.7-2.01-1.88-4.04-2.93-3.93-1.66,.17-.6,5.68-3.81,9.5-4.51,5.36-12.84,1.88-14.93,6.38-1,2.15,.77,3.2,.44,10.61-.03,.66-.12,2.21,.31,2.27,.28,.04,.91-3.08,3.67-4.92,3.98-2.65-.88-2.21-.88-6.19,0-3.08-.27-2.98-.59-3.81-.22-.56-.27-.99-.29-1.06-.35-1.31-15.42-.58-20.79,4.87-.61,.62-1.91,1.97-1.88,3.8,0,.24,.03,1.73,1,2.4,1.59,1.1,4.47-.91,4.92-1.2,1.89-1.19,3.35-3.39,4.37-7.21,.28-1.06,.47-2.13,.6-3.18,.65-5.54-.6-10.54-.6-10.54-.59-5.11-3.84-9.12-7.96-10.07-5.03-1.16-9.05,2.78-10.17,3.88-4.91,4.8-6.66,13.53-3.54,16.36,3.31,3,8.68-3.7,21.87-4.28,10.55-.47,17.11,3.37,20.03-.32,2.19-2.77,.83-7.88,4.2-9.84,.62-.36,1.92-.92,2.99-2.36,.2-.27,1.16-1.47,1.23-2.74,.3-5-9.66-9.16-12.29-11.41-3.1-2.65-6.19,.44-11.5,2.21-5.31,1.77-11.06,9.29,4.87,11.06,14.74,1.64,7.11,.24,18.94-4.19,.95-.35,2.02-.73,3.23-1.12,5.5-1.78,8.18-2.87,8.95-4.69,.86-2.03-.96-3.02-.16-6.36,.56-2.38,1.92-2.14,1.87-4.19-.05-2.21-2.17-3.57-1.87-7.75,.44-6.19-3.1-3.54-6.63,0-.95,.95-1.82,2.31-2.11,4.01-1.1,6.48,8.86,14.67,11.11,15.9,.37,.21,1.9,.92,2.7,2.53,.52,1.06-.5,.84,6.44,1.45,7.32,.64,5.48,.13,6.02-2.19,.33-1.43,1.18-1.59,2.39-3.56,.83-1.34,1.25-2.03,1-2.51-.6-1.12-4,.65-5.31-.66-1.72-1.73,1.87-7.09,.77-7.89-.72-.53-3.1,1.18-4.87,3.1-1.76,1.91-5.06,6.37-5.31,15.04-.34,.59-3.49,6.22-.88,11.5,.33,.66,1.4,2.76,3.72,4.12,2.04,1.2,2.77,.48,7.91,1.19,4.57,.63,6.39,1.42,8.05,.28,1.18-.81,.9-2.58,5.53-4.26,8.17-2.96,2.65-3.98,3.1-6.63,.44-2.65-2.65-4.87-3.98-6.63-1.33-1.77-5.75-1.33-5.75-1.33l-6.63,1.77s-1.77,7.96,3.1,13.27c4.87,5.31,.88,4.42,10.62,12.8,6.47,5.57,4.92,4.33,7.32,1.83,1.9-1.98,3.26-1.74,8.16-4.02,2.35-1.09,4.53-2.13,6.79-4.2,1.64-1.51,1.29-1.7,2.94-3.32,4.09-4.04,7.52-4.11,7.72-6.33,.11-1.21-.8-2.49-1.8-3.05-2.53-1.43-5.56,1.75-7.25,.57-1.87-1.3,.69-5.99-.88-7.13-1.78-1.28-7.84,2.69-10.5,8.12-1.61,3.28-1.37,5.85-1.22,6.86,.15,.99,.56,3.66,1.99,4.05,2.02,.56,3.56-4.11,6.41-3.94,2.39,.14,2.45,3.47,5.97,4.39,1.8,.47,3.76,.11,5.28-.16,1.2-.22,1.21-.35,3.4-.88,2.82-.69,3.09-.54,4.87-1.03,2.74-.75,4.11-1.13,5.03-2.31,1.1-1.41,1.68-3.98,.33-5.53-.89-1.03-2.38-1.32-3.54-1.11-1.55,.28-2.43,1.44-2.99,2.17-1.88,2.52-3.09,7.25-.88,10.17,2.47,3.27,7.78,2.39,11.5,1.77,7.56-1.26,15.33-6.07,14.82-9.47-.23-1.53-1.91-1.29-3.98-4.2-2.52-3.56-1.75-6.36-3.54-6.97-1.61-.55-3.83,1.21-4.87,2.88-1.14,1.84-.96,3.77-.88,4.42,.33,3.02,2.14,3.58,4.64,8.03,2.13,3.79,1.62,4.8,3.1,5.75,3.27,2.1,8.63-.94,9.29-1.33,5.98-3.48,6.05-8.88,8.77-8.85,3.74,.05,4.17,10.25,11.13,12.38,2.06,.63,4.55,.51,4.97-.41,.55-1.21-2.88-3.08-2.39-4.9,.5-1.86,4.42-1.12,5.75-3.46,1.16-2.04-.01-5.75-2.14-6.71-3.3-1.49-8.37,3.89-9.29,4.87-3.98,4.22-3.68,7.3-6.19,7.96-2.96,.78-7.6-2.4-8.99-6.49-2.67-7.8,8.05-15.79,5.45-19.17-1.53-1.99-6.83-1.28-7.81,.74-.86,1.77,2.04,3.63,1.47,7-.36,2.12-1.99,4.27-3.39,4.2-1.86-.09-3.17-4.08-3.54-6.63-.3-2.07,.11-2.6,0-3.98-.49-6.07-9.26-6.86-11.5-14.15-.25-.83-1.22-3.97,.44-6.63,1.2-1.93,3.77-3.61,6.56-3.11,3.05,.55,4.4,3.35,4.5,3.55,1.59,3.43-.6,7.38-2.65,9.29-.18,.17-2.93,2.65-6.63,2.65h0c-3.19,0-5.06-2.23-6.68-3.25-2.93-1.85-7.77-1.48-10.41,.8-2.73,2.36-3.78,7.37-1.77,9.18,1.68,1.5,5.5,.79,7.24-1.27,3-3.54,.31-11.58-4.75-14.74-1.91-1.19-5.45-2.49-7.3-1.01-2.09,1.67,.27,5.05-1.77,8.35-2.44,3.95-8.85,4.01-11.33,4.04-1.95,.02-9.11,.09-10.12-3.26-.83-2.76,2.75-7.1,5.53-6.91,2.55,.18,2.84,4.05,5.81,4.53,2.54,.41,6.1-1.81,6.8-5.29,.54-2.66-.74-5.36-2.65-6.63-2.83-1.89-6.65-.42-8.4,0-12.88,3.12-32.27-21.17-41.8-37.01-3.9-6.48-7.87-13.08-10.62-23-2.13-7.67-6.62-25.08,2.21-42.46,2.13-4.19,9.71-19.1,24.11-22.75,20.87-5.3,46.7,2.06,48.82,13.86,1.71,9.52-11.93,23.47-22.54,21.79-8.03-1.27-12.47-11.16-15-17-11.48-26.49-.8-47.97,1-95,.44-11.61,.2-20.91,0-26"/><g><line id="Line_23" class="cls-1" x1="214.26" y1="55.14" x2="210.76" y2="801.14"/><g id="Path_153" transform="translate(3.5)"><path class="cls-5" d="M214.26,52.64c-3.04,0-5.98-.59-8.76-1.77-2.68-1.13-5.09-2.76-7.15-4.82-2.07-2.07-3.69-4.47-4.82-7.15-1.17-2.77-1.77-5.72-1.77-8.76s.59-5.98,1.77-8.76c1.13-2.68,2.76-5.09,4.82-7.15,2.07-2.07,4.47-3.69,7.15-4.82,2.77-1.17,5.72-1.77,8.76-1.77s5.98,.59,8.76,1.77c2.68,1.13,5.09,2.76,7.15,4.82,2.07,2.07,3.69,4.47,4.82,7.15,1.17,2.77,1.77,5.72,1.77,8.76s-.59,5.98-1.77,8.76c-1.13,2.68-2.76,5.09-4.82,7.15-2.07,2.07-4.47,3.69-7.15,4.82-2.77,1.17-5.72,1.77-8.76,1.77Z"/><path class="cls-3" d="M214.26,10.14c-5.34,0-10.36,2.08-14.14,5.86s-5.86,8.8-5.86,14.14,2.08,10.36,5.86,14.14c3.78,3.78,8.8,5.86,14.14,5.86s10.36-2.08,14.14-5.86c3.78-3.78,5.86-8.8,5.86-14.14s-2.08-10.36-5.86-14.14c-3.78-3.78-8.8-5.86-14.14-5.86m0-5c13.81,0,25,11.19,25,25s-11.19,25-25,25-25-11.19-25-25,11.19-25,25-25Z"/></g><line id="Line_24" class="cls-1" x1="214.26" y1="833.38" x2="214.26" y2="1669.38"/><line id="Line_25" class="cls-1" x1="214.26" y1="1624.39" x2="214.26" y2="2406"/><g id="Ellipse_44" transform="translate(3.5 778.247)"><circle class="cls-5" cx="214.26" cy="808.38" r="25"/><circle class="cls-1" cx="214.26" cy="808.38" r="22.5"/></g><g id="Path_172" transform="translate(0 1594.25)"><path class="cls-4" d="M210.76,1646.89c-3.04,0-5.98-.59-8.76-1.77-2.68-1.13-5.09-2.76-7.15-4.82-2.07-2.07-3.69-4.47-4.82-7.15-1.17-2.77-1.77-5.72-1.77-8.76s.59-5.98,1.77-8.76c1.13-2.68,2.76-5.09,4.82-7.15,2.07-2.07,4.47-3.69,7.15-4.82,2.77-1.17,5.72-1.77,8.76-1.77s5.98,.59,8.76,1.77c2.68,1.13,5.09,2.76,7.15,4.82,2.07,2.07,3.69,4.47,4.82,7.15,1.17,2.77,1.77,5.72,1.77,8.76s-.59,5.98-1.77,8.76c-1.13,2.68-2.76,5.09-4.82,7.15-2.07,2.07-4.47,3.69-7.15,4.82-2.77,1.17-5.72,1.77-8.76,1.77Z"/><path class="cls-3" d="M210.76,1604.39c-5.34,0-10.36,2.08-14.14,5.86s-5.86,8.8-5.86,14.14,2.08,10.36,5.86,14.14c3.78,3.78,8.8,5.86,14.14,5.86s10.36-2.08,14.14-5.86c3.78-3.78,5.86-8.8,5.86-14.14s-2.08-10.36-5.86-14.14c-3.78-3.78-8.8-5.86-14.14-5.86m0-5c13.81,0,25,11.19,25,25s-11.19,25-25,25-25-11.19-25-25,11.19-25,25-25Z"/></g><g id="Ellipse_63" transform="translate(3.5 3242.367)"><circle class="cls-4" cx="214.26" cy="3272.5" r="25"/><circle class="cls-1" cx="214.26" cy="3272.5" r="22.5"/></g><g id="Ellipse_46" transform="translate(3.5 2376.253)"><circle class="cls-4" cx="214.26" cy="2406.39" r="25"/><circle class="cls-1" cx="214.26" cy="2406.39" r="22.5"/></g></g></svg>