<?xml version="1.0" encoding="utf-8"?>
<!-- Generator: Adobe Illustrator 26.3.1, SVG Export Plug-In . SVG Version: 6.00 Build 0)  -->
<svg version="1.1" id="Layer_1" xmlns="http://www.w3.org/2000/svg" xmlns:xlink="http://www.w3.org/1999/xlink" x="0px" y="0px"
	 viewBox="0 0 2000 2528.897" style="enable-background:new 0 0 2000 2528.897;" xml:space="preserve">
<style type="text/css">
	.st0{fill:none;stroke:#EBAAAC;stroke-width:5;}
</style>
<path class="st0" d="M879.149,52.812c72.483-4.134,125.06,1.732,157.277,7.149c15.516,2.609,35.848,6.734,51.064,23.49
	c14.509,15.977,23.095,42.015,15.319,63.319c-7.172,19.651-21.488,16.705-33.702,37.787c-15.39,26.566,1.345,41.592-10.213,73.532
	c-10.843,29.964-40.882,59.053-64.341,54.128c-14.543-3.054-22.886-18.411-30.638-32.681c-4.673-8.601-22.712-41.806-11.234-57.191
	c15.134-20.286,78.89-5.979,124.954,18.534c47.326,25.184,83.556,65.174,102.28,53.636c7.261-4.474,8.246-14.499,16.851-15.489
	c9.114-1.049,20.428,8.534,22.979,19.404c2.634,11.226-5.914,15.999-18.276,41.814c-12.194,25.462-10.639,34.937-20.2,38.889
	c-10.252,4.237-24.24-1.615-31.992-11.086c-9.007-11.004-9.356-26.602-3.064-36.766c6.554-10.586,19.255-13.394,30.638-15.319
	c20.652-3.492,54.314-6.997,101.106-2.894c-5.012,3.528-12.62,9.644-19.404,19.064c-17.163,23.83-7.585,38.988-20.426,54.298
	c-18.561,22.129-62.754,19.412-76.596,18.383c-18.596-1.383-27.558-6.274-39.83,0c-12.207,6.241-9.581,14.271-27.574,30.638
	c-12.997,11.823-18.453,11.348-29.617,23.83c-3.225,3.606-9.997,11.285-14.808,21.957c-7.457,16.541-14.528,49.867,4.596,67.574
	c7.685,7.116,22.784,14.657,33.702,9.191c21.585-10.805,12.341-68.992,0-104.17c-9.287-26.472-17.115-48.788-38.298-56.851
	c-32.7-12.447-78.4,16.236-80.681,41.872c-1.626,18.274,19.865,23.131,23.489,49.021c4.423,31.594-22.972,59.637-26.553,63.319
	c-6.442,6.623-12.085,10.417-18.876,14.926c-13.906,9.231-36.478,21.633-68.954,29.354c23.359,11.197,37.373,9.752,45.957,6.104
	c1.525-0.648,1.173-0.641,14.298-7.149c6.769-3.357,21.002-9.166,26.553-9.872c26.368-3.356,40.428,89.771,80.936,97.106
	c27.891,5.051,64.051-31.346,59.745-48.255c-2.285-8.972-16.533-14.709-27.574-13.787c-12.518,1.045-20.354,10.603-29.872,22.213
	c-5.982,7.297-14.89,18.162-18.383,32.596c-5.772,23.851,4.652,49.899,18.383,64.34c21.361,22.465,49.136,23.381,159.319,30.979
	c33.767,2.328,60.172,4.243,72,5.106c-10.949,6.172-27.284,15.093-47.489,25.021c-101.782,50.013-174.434,87.873-202.723,63.83
	c-25.003-21.25,4.137-73.839-21.447-89.872c-18.47-11.575-53.379,3.476-70.468,25.532c-23.767,30.673-11.926,73.421-5.106,98.042
	c6.347,22.915,15.51,38.145,24.511,53.106c22.003,36.574,66.775,92.663,96.511,85.447c4.039-0.98,12.869-4.356,19.404,0
	c4.43,2.953,7.369,9.173,6.128,15.319c-1.625,8.041-9.844,13.169-15.702,12.213c-6.846-1.117-7.518-10.062-13.404-10.468
	c-6.42-0.443-14.693,9.573-12.766,15.957c2.334,7.734,18.859,7.575,23.362,7.532c5.737-0.055,20.536-0.197,26.17-9.319
	c4.705-7.617-0.733-15.422,4.085-19.277c4.269-3.415,12.44-0.411,16.851,2.34c11.7,7.296,17.895,25.864,10.979,34.043
	c-4.029,4.764-12.853,6.411-16.723,2.936c-4.639-4.164-2.22-15.737,4.085-21.192c6.085-5.264,17.268-6.109,24.031-1.839
	c3.735,2.358,8.059,7.499,15.415,7.499h0c8.559,0,14.904-5.742,15.319-6.128c4.739-4.41,9.803-13.528,6.128-21.447
	c-0.214-0.462-3.344-6.921-10.382-8.191c-6.454-1.165-12.385,2.723-15.15,7.17c-3.829,6.158-1.606,13.413-1.021,15.319
	c5.163,16.847,25.421,18.671,26.553,32.681c0.258,3.191-0.688,4.401,0,9.192c0.847,5.901,3.867,15.115,8.17,15.319
	c3.237,0.153,7.006-4.802,7.83-9.702c1.31-7.793-5.394-12.085-3.404-16.17c2.269-4.66,14.509-6.298,18.043-1.702
	c6.002,7.805-18.762,26.242-12.596,44.255c3.227,9.426,13.924,16.778,20.766,14.979c5.798-1.525,5.114-8.638,14.298-18.383
	c2.118-2.247,13.828-14.673,21.447-11.234c4.905,2.214,7.618,10.777,4.936,15.489c-3.08,5.411-12.112,3.701-13.277,8
	c-1.139,4.205,6.777,8.518,5.511,11.317c-0.956,2.112-6.703,2.398-11.468,0.938c-16.066-4.921-17.06-28.482-25.702-28.596
	c-6.293-0.083-6.449,12.4-20.255,20.426c-1.525,0.886-13.886,7.913-21.447,3.064c-3.404-2.183-2.237-4.533-7.149-13.277
	c-5.785-10.297-9.96-11.588-10.723-18.553c-0.166-1.516-0.59-5.966,2.042-10.213c2.384-3.845,7.506-7.897,11.234-6.638
	c4.126,1.393,2.343,7.875,8.17,16.085c4.77,6.72,8.655,6.167,9.192,9.702c1.193,7.86-16.75,18.965-34.213,21.872
	c-8.587,1.429-20.853,3.471-26.553-4.085c-5.099-6.758-2.293-17.678,2.043-23.489c1.272-1.705,3.324-4.37,6.894-5.021
	c2.677-0.488,6.104,0.176,8.17,2.553c3.118,3.587,1.771,9.5-0.766,12.766c-2.114,2.721-5.277,3.591-11.604,5.331
	c-4.103,1.128-4.746,0.798-11.247,2.382c-5.066,1.234-5.098,1.537-7.86,2.041c-3.491,0.636-8.019,1.462-12.182,0.375
	c-8.124-2.121-8.277-9.807-13.787-10.128c-6.595-0.384-10.151,10.405-14.808,9.106c-3.292-0.918-4.242-7.069-4.596-9.362
	c-0.357-2.311-0.912-8.248,2.809-15.83c6.157-12.546,20.146-21.698,24.255-18.752c3.643,2.612-2.279,13.444,2.043,16.454
	c3.906,2.72,10.896-4.63,16.747-1.318c2.309,1.307,4.408,4.256,4.153,7.053c-0.466,5.11-8.388,5.278-17.836,14.606
	c-3.797,3.749-2.988,4.187-6.782,7.665c-5.216,4.783-10.255,7.172-15.686,9.696c-11.314,5.258-14.44,4.703-18.837,9.279
	c-5.544,5.769-1.963,8.639-16.908-4.23c-22.468-19.348-13.277-17.305-24.511-29.56c-11.234-12.255-7.149-30.638-7.149-30.638
	l15.319-4.085c0,0,10.213-1.021,13.277,3.064c3.064,4.085,10.213,9.191,9.192,15.319c-1.021,6.128,11.707,8.485-7.149,15.319
	c-10.703,3.879-10.051,7.961-12.771,9.832c-3.829,2.635-8.047,0.814-18.592-0.64c-11.866-1.637-13.552,0.024-18.27-2.739
	c-5.347-3.132-7.823-7.983-8.581-9.516c-6.022-12.182,1.249-25.185,2.043-26.553c0.56-20.015,8.198-30.32,12.255-34.723
	c4.071-4.418,9.576-8.362,11.234-7.149c2.521,1.845-5.749,14.218-1.787,18.213c3.017,3.042,10.875-1.043,12.255,1.532
	c0.59,1.1-0.392,2.693-2.298,5.787c-2.798,4.54-4.751,4.929-5.515,8.222c-1.242,5.349,3.024,6.526-13.889,5.055
	c-16.027-1.394-13.67-0.885-14.88-3.342c-1.836-3.727-5.361-5.376-6.226-5.85c-5.177-2.833-28.172-21.752-25.642-36.703
	c0.664-3.926,2.694-7.071,4.876-9.254c8.17-8.17,16.34-14.298,15.319,0c-0.689,9.652,4.206,12.788,4.318,17.891
	c0.105,4.745-3.016,4.189-4.318,9.683c-1.832,7.729,2.355,10.015,0.38,14.693c-1.778,4.212-7.969,6.735-20.669,10.839
	c-2.808,0.907-5.279,1.77-7.463,2.588c-27.314,10.228-9.694,13.45-43.738,9.668c-36.766-4.085-23.489-21.447-11.234-25.532
	c12.255-4.085,19.404-11.234,26.553-5.106c6.069,5.202,29.07,14.821,28.378,26.357c-0.175,2.923-2.377,5.69-2.846,6.324
	c-2.46,3.322-5.468,4.616-6.894,5.447c-7.788,4.535-4.644,16.323-9.702,22.723c-6.747,8.537-21.908-0.334-46.261,0.745
	c-30.451,1.35-42.865,16.822-50.505,9.893c-7.216-6.544-3.16-26.708,8.17-37.787c2.59-2.533,11.885-11.621,23.489-8.952
	c9.514,2.189,17.02,11.461,18.383,23.249c0,0,2.887,11.547,1.38,24.328c-0.286,2.423-0.729,4.89-1.38,7.331
	c-2.349,8.809-5.711,13.903-10.086,16.642c-1.045,0.654-7.684,5.299-11.361,2.762c-2.239-1.544-2.29-4.987-2.298-5.532
	c-0.062-4.208,2.931-7.335,4.34-8.766c12.392-12.583,47.182-14.267,48-11.234c0.044,0.165,0.166,1.139,0.679,2.442
	c0.751,1.906,1.364,1.673,1.364,8.792c0,9.191,11.234,8.17,2.043,14.298c-6.378,4.252-7.839,11.455-8.476,11.371
	c-0.999-0.132-0.784-3.709-0.715-5.243c0.764-17.113-3.323-19.555-1.021-24.511c4.826-10.392,24.045-2.337,34.468-14.724
	c7.414-8.812,4.964-21.534,8.808-21.927c2.418-0.247,5.139,4.427,6.766,9.076c7.149,20.426,41.872,38.062,13.277,57.329
	c-28.596,19.267-35.745,32.543-37.787,17.224c-1.725-12.936,6.865-26.261,16.34-33.702c12.02-9.439,28.986-12.262,43.915-7.149
	c16.525,5.66,28.435,20.318,30.638,34.723c1.214,7.942-0.354,17.517-3.494,18.851c-1.217,0.517-3.482-1.015-7.74-6.046
	c-1.389-1.641-2.147-3.315-2.383-5.001c-1.437-10.265,24.857-38.37,40.681-32.316c6.271,2.399,5.056,8.042,15.83,14.298
	c5.49,3.188,10.875,4.922,11.663,8.925c0.234,1.191-0.143,2.609-1.45,4.351c-6.128,8.17-2.043,17.468-10.213,15.883
	c-8.17-1.585,2.042-29.159,9.191-34.266c7.089-5.064,15.264-22.873,29.617-21.447c12.197,1.212,23.121,14.331,21.447,20.426
	c-0.356,1.295-1.454,2.905-0.851,4.936c0.923,3.108,4.685,3.339,4.936,5.447c0.268,2.245-3.643,4.97-7.149,5.957
	c-6.004,1.691-14.234-0.753-16-5.447c-2.576-6.846,8.538-18.647,20.085-23.149c12.726-4.962,24.739-0.576,28.596,1.021
	c2.326-0.451,15.546-2.82,22.808,4.936c0.346,0.37,6.135,6.682,3.987,10.778c-1.101,2.1-3.752,2.594-4.157,2.669
	c-4.947,0.921-11.021-3.791-11.404-8.17c-0.599-6.847,12.767-12.246,15.319-13.276c2.921-1.18,16.603-6.706,30.638,0
	c2.091,0.999,16.272,7.775,15.489,17.532c-0.458,5.7-6.022,12.422-11.915,11.745c-3.373-0.388-6.816-3.195-7.489-6.638
	c-0.984-5.029,4.318-9.47,8.035-12.584c12.466-10.443,27.449-10.13,29.582-10.054c4.465,0.16,12.583,0.45,19.404,6.128
	c1.159,0.964,3.982,3.502,6.036,7.673c0.468,0.951,5.502,11.178,1.083,15.093c-2.482,2.2-7.338,1.867-10.183-0.469
	c-4.697-3.855-2.386-11.91-2.042-13.106c1.882-6.561,7.178-10.408,12.686-14.298c8.811-6.223,11.392-4.55,14.378-8.681
	c5.238-7.249-1.26-14.404,2.553-21.957c5.784-11.457,32.736-14.933,33.702-8.17c1.021,7.149-13.277,18.383-17.362,19.404
	c-7.963,1.991-13.302-13.85-11.234-23.833c1.834-8.855,9.456-15.99,19.404-18.04c0,0,29.617-9.192,29.617,9.192
	c0,18.383,14.298,26.553-10.213,49.021c-21.515,19.722-20.997,32.362-34.363,30.322c-1.861-0.284-3.991-0.853-6.488-1.726
	c-20.426-7.149-6.128-30.638-1.021-20.426c5.106,10.213,26.553,29.058-7.149,43.635c-33.702,14.578-36.766,3.805-54.128,0
	s8.17-21.167,6.128-5.848c-0.668,5.011,0.946,7.523,0.832,8.997c-0.327,4.227-1.841,7.539-2.875,9.386
	c-1.073,1.916-5.458,9.747-11.574,9.872c-4.727,0.097-6.135-4.498-9.872-3.745c-4.003,0.807-3.485,6.298-8.851,9.532
	c-3.516,2.118-8.237,2.472-11.915,1.192c-4.846-1.687-4.458-5.019-11.915-10.724c-4.606-3.523-6.609-3.671-6.743-5.457
	c-0.286-3.814,8.768-4.283,12.701-11.905c2.863-5.548,0.418-9.858,3.574-11.915c2.955-1.925,7.636,0.198,9.872,1.702
	c6.176,4.154,6.483,12.84,5.424,19.074c-0.325,1.912-2.528,3.809-8.488,6.458c-18.383,8.17-8.17,13.151-37.787,7.086
	c-29.617-6.065-29.617-21.384-29.617-21.384l14.298-24.511c0,0,17.362-23.489,17.362,0c0,23.489,16.166,17.744,0,29.617
	c-8.763,6.436-7.426,9.239-9.243,11.664c-4.449,5.938-16.844,7.211-19.353,7.303c-17.903,0.655-46.13-6.912-46.979-18.967
	c-0.404-5.739,5.494-11.117,10.553-13.106c9.122-3.586,21.205,1.613,22.271,7.71c0.348,1.993-0.221,4.813-5.249,9.482
	c-14.298,13.277-39.83,20.235-57.192,16.245s-12.255-9.096-18.383-16.245c-6.128-7.149-11.234-46.979,6.128-23.489
	c14.042,18.998,27.416,27.851,26.073,34.915c-0.269,1.413-1.526,2.509-3.605,4.82c-4.348,4.834-9.147,7.354-11.234,8.266
	c-6.803,2.971-9.846-0.208-20.426,0c-10.65,0.209-13.359,4.885-35.292,8.938c-9.674,1.787-14.511,2.681-18.836,1.275
	c-18.405-5.986-24.789-38.453-19.404-41.872c2.941-1.868,7.184,5.39,14.808,4.085c9.029-1.545,11.279-13.126,14.809-12.255
	c4.964,1.224,8.134,26.014-2.043,35.745c-1.359,1.3-3.721,2.995-3.8,5.694c-0.276,9.369,28.591,13.87-19.689,14.732
	c-57.191,1.021-41.872,1.785-68.426-4.724c-26.553-6.51-30.638-39.19-33.702-42.254c-3.064-3.064,14.298-43.915,28.596-31.66
	c14.298,12.255,16.34,8.17,16.34,19.404s11.234,3.064,1.021,16.34c-1.537,1.999-1.696,3.381-1.77,4.737
	c-0.236,4.325,3.679,6.531,2.961,8.199c-0.953,2.216-8.875,0.688-11.404,0.34c-7.489-1.03-18.688,1.27-34.723,16.34
	c0,0-6.628,5.8-19.885-10.213c-1.861-2.248-3.336-4.04-4.626-6.128c-9.547-15.456-16.416-26.576-12.255-35.745
	c4.243-9.349,19.055-14.686,27.574-10.213c3.371,1.77,7.144,5.805,6.792,9.996c-0.118,1.402-0.763,3.605-6.792,8.387
	c-3.311,2.626-8.594,6.817-15.319,9.191c-10.27,3.626-31.053,5.54-44.936-8.17c-9.68-9.559-11.435-25.349-9.191-38.808
	c1.021-6.128,17.362-12.255,19.404-9.192c1.335,2.002,14.442,5.312,14.535,10.5c0.056,3.128-3.818,4.409-14.535,9.926
	c-22.003,11.326-27.343,16.564-35.574,13.957c-1.544-0.489-4.742-1.502-6.808-4.426c-6.78-9.594,5.865-29.531,13.787-35.064
	c0.287-0.2,2.108-1.508,4.655-3.055c4.459-2.708,9.643-5.491,9.643-5.491c10.076-6.56,14.041-17.346,10.723-24.816
	c-3.273-7.371-13.69-11.631-17.362-8.851c-3.54,2.68,1.785,9.935-1.702,17.021c-5.456,11.089-26.205,8.993-26.213,11.234
	c-0.009,2.718,29.833,14.071,51.915-1.362c14.018-9.798,23.303-29.268,18.213-37.447c-1.883-3.025-5.731-4.505-6.066-8.703
	c-0.414-5.186,4.983-8.725,4.222-9.728c-0.616-0.812-6.046,1.689-24.539,11.963c-26.433,14.685-39.69,2.342-46.572,6.304
	c-8.553,4.925-6.332,20.326-7.556,52.93c-1.378,36.705-6.332,62.191,4.151,67.116c3.224,1.515,6.212,0.287,9.943,3.282
	c5.515,4.427,7.878,14.237,4.577,19.44c-5.548,8.745-29.167,9.256-42.16-3.029c-13.962-13.201-11.341-37.142-1.021-50.043
	c4.085-5.106,32.681-9.192,35.745-7.149c2.088,1.392,13.667-1.96,18.24,3.526c2.964,3.555,1.275,8.445,0.143,14.857
	c-4.077,23.098,4.853,34.431-2.043,39.83c-2.815,2.204-7.321,2.821-10.383,1.362c-5.089-2.425-3.929-9.507-8.511-11.574
	c-4.366-1.97-12.014,1.484-12.936,5.447c-1.038,4.46,5.812,12.263,36.936,26.89c2.267,6.43,7.416,17.86,18.894,26.217
	c12.806,9.324,30.367,12.549,32.34,8.851c2.076-3.891-13.09-15.464-17.362-18.723c-9.889-7.546-30.924-23.597-43.915-16
	c-0.368,0.215-6.699,4.038-7.149,10.213c-0.884,12.133,21.795,21.559,45.277,31.319c11.626,4.832,18.673,6.513,25.192,3.745
	c5.755-2.444,7.453-6.808,11.915-6.468c7.677,0.585,9.242,14.007,14.979,13.957c5.664-0.049,12.584-13.204,8.851-19.404
	c-2.346-3.897-7.223-2.26-18.043-5.787c-7.618-2.483-18.972-6.184-20.936-13.277c-2.511-9.067,12.777-14.826,11.234-26.553
	c-1.158-8.806-11.292-17.083-17.578-15.414c-2.903,0.771-4.841,3.625-5.912,5.201c-0.494,0.728-3.347,5.057-2.792,10.645
	c0.599,6.03,4.951,11.36,11.132,13.866c10.376,4.162,25.769,9.77,44.936,14.638c11.586,2.943,59.355,15.076,62.128,7.83
	c1.619-4.23-11.358-17.003-24.511-15.319c-12.496,1.6-22.139,15.863-19.404,21.447c2.316,4.728,11.799-0.254,28.976,4.691
	c15.12,4.353,16.325,10.675,26.173,10.628c13.776-0.066,28.719-12.52,27.574-22.468c-0.558-4.855-5.049-9.989-10.723-10.894
	c-5.737-0.914-11.571,2.672-13.444,6.972c-2.887,6.628,2.416,17.757,15.283,23.88c4.242,1.805,11.942,4.382,21.48,3.531
	c7.601-0.678,12.617-3.199,20.936-7.489c15.656-8.074,27.518-14.192,29.538-25.191c0.809-4.406,0.287-10.909-3.841-14.12
	c-6.437-5.007-17.148,1.139-18.378,1.865c-6.708,3.962-14.558,13.116-12.255,22.468c2.424,9.842,15.483,17.422,29.617,13.277h11.234
	c25.228-3.721,43.938-13.676,45.958-26.553c1.138-7.255-2.517-18.668-7.178-19.284c-1.2-0.159-1.945,1.088-6.099,3.964
	c-13.277,9.192-12.255,16.34-12.255,16.34l14.298,13.277c5.26-0.14,51.909-1.739,56.17-19.404
	c1.518-6.293-1.968-16.181-7.149-17.276c-4.208-0.89-10.249,3.868-11.234,9.106c-2.063,10.964,17.259,28.075,37.787,30.638
	c19.248,2.404,42.304-7.64,43.915-20.426c0.855-6.784-4.165-15.631-11.745-17.404c-7.718-1.806-15.666,4.289-18.383,10.979
	c-1.877,4.623-1.556,10.266,0.511,14.298c7.654,14.936,44.117,17.278,71.489,5.404c25.925-11.245,47.942-37.084,42.894-46.979
	c-3.724-7.298-23.626-8.771-34.085,0.979c-4.479,4.175-8.805,11.881-6.766,19.277c2.257,8.187,11.113,11.636,18.383,14.468
	c5.294,2.062,20.924,8.15,37.787,2.043c24.653-8.928,39.823-39.528,32.681-51.064c-3.351-5.412-12.738-8.444-18.383-5.106
	c-4.308,2.547-6.212,8.669-5.106,13.617c1.413,6.324,7.412,9.243,10.979,10.979c10.26,4.992,24.202,4.165,31.915-3.319
	c0.512-0.497,5.939-5.864,4.356-9.229c-1.199-2.549-6.346-3.793-9.973-2.26c-4.986,2.108-5.106,8.622-8.801,39.426
	c-1.387,11.565-1.849,14.64,0.375,18.276c4.441,7.259,16.038,10.957,25.277,7.064c8.699-3.666,15.358-14.084,12.464-20.576
	c-2.602-5.837-12.099-6.644-15.272-6.914c-18.89-1.606-32.729,13.131-46.213,27.489c-1.937,2.062-4.997,5.498-5.106,10.213
	c-0.161,6.893,6.044,13.953,9.192,13.106c3.406-0.916,5.614-11.727,1.021-18.213c-3.882-5.482-11.31-6.019-15.018-6.287
	c-1.857-0.134-5.998-0.251-13.577,2.202c-8.563,2.771-16.299,5.275-22.723,12.596c-1.459,1.663-11.081,12.628-7.915,24.17
	c0.145,0.529,2.459,8.627,7.149,9.192c5.077,0.611,11.176-7.818,12.255-15.319c1.736-12.069-8.993-25.411-20.426-30.638
	c-27.58-12.611-70.055,17.061-68.425,33.702c0.526,5.37,5.835,11.32,11.031,11.45c5.5,0.137,10.647-6.255,11.693-12.131
	c1.738-9.761-7.713-18.822-15.064-22.723c-2.412-1.28-7.616-3.607-20.936-3.149c-9.545,0.328-39.518,1.36-43.149,14.383
	c-1.55,5.56,1.863,12.724,6.383,14.213c5.959,1.963,15.583-5.366,16.34-14.298c0.743-8.759-7.419-14.599-7.873-14.912
	c-3.667-2.948-14.016-10.4-27.872-9.598c-21.135,1.223-33.764,20.682-37.787,33.702c-1.76,5.695-4.703,15.221,0.766,22.298
	c4.832,6.252,15.138,9.18,21.192,5.106c7.299-4.912,5.857-18.28,1.276-26.042c-6.385-10.819-19.979-12.636-27.319-13.617
	c-13.126-1.754-23.724,1.834-29.048,4.085c-12.329-0.599-23.017,3.989-27.122,12.255c-0.644,1.297-3.789,7.629-0.766,13.362
	c2.762,5.239,9.699,8.126,17.362,6.894c7.821-3.283,13.421-8.797,13.021-13.787c-0.596-7.433-14.355-11.849-19.723-12.319
	c-2.97-0.26-4.894-0.023-12.248-0.738c-4.19-0.407-5.334-0.682-7.858-0.561c-3.464,0.166-5.291,0.874-10.583,2.393
	c-10.289,2.953-9.766,2.11-13.588,3.735c-4.526,1.924-8.91,3.863-10.383,8.17c-0.662,1.936-0.48,3.603-0.34,4.766
	c0.815,6.793,6.827,13.22,9.462,12.274c2.583-0.927,3.367-9.461,0.751-16.019c-6.067-15.21-30.732-20.572-46.808-16.34
	c-4.611,1.214-11.119,3.901-11.064,6.809c0.039,2.073,3.383,2.528,4.085,5.447c1.065,4.425-5.634,7.484-4.766,10.894
	c0.911,3.577,9.827,6.266,16.351,3.152c5.284-2.522,8.76-8.739,8.501-13.365c-0.892-15.893-46.526-24.407-50.894-25.191
	c-17.135,1.443-29.683,13.439-30.638,26.553c-0.999,13.711,10.673,28.657,20.255,27.575c10.637-1.202,19.314-22.226,13.447-31.66
	c-3.872-6.225-19.262-4.831-50.043-2.042c0,0-18.585,1.592-30.638,11.234c-4.421,3.537-4.988,6.974-5.106,9.192
	c-0.348,6.535,5.682,11.197,6.638,11.915c11.36,3.085,21.712,0.717,26.043-5.737c4.712-7.021,0.785-16.628,0-18.433
	c-10.601-24.375-55.6-22.39-69.277-21.787c-5.911,0.261-11.492,0.964-13.779,4.8c-3.561,5.97,1.042,19.214,10.545,21.072
	c5.452,1.066,11.465-1.822,15.319-7.149c0,0,8.17-14.298,4.085-20.426c-4.085-6.128-17.362-16.34-29.617-19.404
	c-14.47-3.617-45.375-11.509-51.064-1.021c-2.531,4.666,0.574,11.698,4.548,15.319c8.191,7.464,24.428,4.412,27.111-2.043
	c3.477-8.365-13.398-28.244-31.66-29.617c-6.937-0.522-12.391,1.754-20.426,5.106c-11.95,4.986-20.649,8.616-24.511,17.362
	c-5.587,12.652,1.558,30.104,13.277,36.766c1.441,0.819,9.593,5.453,15.319,2.042c7.94-4.73,7.581-22.761,3.064-24.511
	c-6.266-2.427-31.3,22.313-23.489,41.923c4.263,10.703,17.02,16.642,27.574,17.311c7.319,0.464,13.158-1.632,16.34-3.064
	c12.261-3.608,20.308-11.691,20.255-19.745c-0.027-4.037-2.104-10.406-7.107-11.953c-4.202-1.3-8.729,1.34-11.106,4.124
	c-4.368,5.117-2.867,12.36-2.043,16.34c2.488,12.007,11.256,19.459,15.319,22.468c3.251,3.628,12.269,12.679,26.723,15.319
	c6.517,1.19,12.161,0.715,16.17,0c0,0,12.255-8.17,15.319-17.362c3.064-9.191,1.021-18.383,1.021-18.383s-15.319-22.468-23.489,0
	c-5.139,14.133-2.671,34.344,9.192,40.851c1.324,0.726,2.653,1.221,9.702,2.383c11.09,1.828,20.246,2.653,26.553,3.064
	c11.623,3.955,23.683,1.979,31.149-5.447c5.685-5.654,11.327-17.074,6.128-24.511c-4.804-6.871-16.966-7.627-23.489-3.064
	c-13.137,9.191-6.285,41.972,4.085,44.936c5.641,1.612,7.848-6.878,20.255-9.872c13.5-3.259,19.951,4.606,30.809,0.681
	c4.336-1.568,10.165-5.301,15.319-15.319c5.054-7.887,2.383-18.25-5.106-22.468c-7.217-4.065-16.414-1.017-20.426,5.106
	c-4.951,7.558-0.5,17.115,1.021,18.383c6.128,5.106,20.426,12.255,20.426,12.255l28.596,7.149l28.596-19.404
	c0.388-0.185,7.715-3.798,8.108-10.402c0.41-6.891-7.072-11.3-11.001-12.747c-9.276-3.417-21.989,1.105-24.851,9.532
	c-2.142,6.306,1.962,12.653,5.447,18.043c1.706,2.638,7.08,10.718,17.191,14.979c8.173,3.444,16.567,2.002,33.021-1.021
	c21.593-3.968,32.477-6.119,36.763-14.298c2.847-5.432,2.685-12.287,0-17.362c-5.053-9.552-18.49-11.749-27.912-9.192
	c-8.196,2.225-17.962,9.3-17.362,16.34c0.615,7.208,11.833,11.32,25.532,16.34c12.33,4.519,18.996,6.962,28.596,6.128
	c17.495-1.521,28.333-12.504,34.135-18.383c3.674-3.723,10.162-10.297,8.248-14.723c-1.114-2.576-5.116-4.521-7.459-3.324
	c-1.756,0.897-2.583,3.559-2.243,5.622c1.203,7.302,18.108,13.69,25.532,8.34c3.983-2.87,2.452-7.11,5.106-11.234
	c10.628-16.514,72.23-6.092,76.596,14.298c0.867,4.049-0.085,10.537-4.264,14.553c-4.758,4.572-11.635,3.96-13.097,3.83
	c-12.714-1.132-24.417-15.334-22.468-24.511c2.036-9.59,19.852-17.787,43.915-13.277c10.78,2.853,19.726-1.929,21.192-7.83
	c0.951-3.83-1.258-8.092-3.83-10.553c-3.533-3.381-9.645-5.176-13.35-2.626c-0.575,0.396-2.095,1.587-2.99,4.669
	c-2.18,7.508,1.18,19.943,9.192,23.489c9.799,4.337,19.09-7.928,30.702-2.489c3.599,1.686,6.11,4.458,7.085,5.553
	c3.147,3.534,7.416,10.363,5.362,13.106c-2.108,2.816-11.534,2.212-14.298-2.298c-6.128-9.998,24.292-32.986,17.617-44.426
	c-1.88-3.222-6.777-5.654-10.723-4.596c-3.357,0.9-6.196,4.371-6.128,7.66c0.076,3.668,3.76,6.659,8.936,9.447
	c24.922,13.421,56.546,7.091,62.298,19.66c2.092,4.57,0.47,11-2.043,12c-3.212,1.278-10.496-5.278-10.979-11.574
	c-0.584-7.613,8.667-16.233,23.489-20.426c1.417-1.26,6.603-6.172,6.701-13.496c0.014-1.081,0.113-8.448-4.233-10.349
	c-3.566-1.56-8.911,1.093-10.893,4.78c-3.647,6.783,3.376,18.377,10.468,25.192c13.143,12.629,27.704,9.977,29.617,18.383
	c1.314,5.776-4.127,13.327-7.915,13.106c-3.001-0.175-6.544-5.319-6.383-10.043c0.46-13.5,30.844-13.914,36.766-32.681
	c3.354-10.627-2.167-23.877-7.149-24.511c-5.399-0.687-14.862,12.847-14.298,26.128c0.719,16.943,17.156,19.335,24.511,42.298
	c0.381,1.189,8.191,26.506-3.307,36.241c-4.226,3.578-12.114,5.945-16.608,2.397c-3.167-2.5-4.023-7.444-3.064-11.234
	c1.052-4.158,4.17-6.448,5.872-7.66c5.71-4.065,16.084-6.578,22.832-1.301c7.959,6.223,6.679,20,1.423,27.514
	c-9.521,13.612-35.928,12.158-44.17,1.362c-7.594-9.948,4.292-22.511-3.319-33.702c-7.349-10.806-30.398-16.689-44.17-4.085
	c-11.387,10.421-9.849,27.453-5.459,36.73c1.129,2.385,3.525,7.278,9.034,10.504c1.424,0.834,7.596,4.448,13.532,2.468
	c8.955-2.987,13.185-17.309,9.281-26.15c-3.089-6.994-8.746-4.847-17.196-12.829c-12.332-11.649-8.231-23.732-19.915-30.383
	c-1.116-0.635-8.895-5.063-14.809-2.043c-7.53,3.847-3.651,15.491-10.723,20.681c-9,6.605-22.315-7.092-30.894-1.277
	c-8.847,5.997-7.858,29.495,2.808,37.787c3.256,2.531,8.806,4.728,14.043,5.617c6.91,1.174,10.509-0.398,14.298,2.553
	c2.549,1.986,4.993,5.87,3.83,9.192c-1.382,3.946-7.35,5.654-11.489,4.085c-3.811-1.444-5.964-5.625-6.383-9.192
	c-1.089-9.277,9.729-12.929,9.427-21.691c-0.286-8.272-10.237-13.937-12.235-15.075c-14.936-8.502-32.196,0.359-34.979,1.787
	c-3.652,1.875-11.829,6.217-16.34,15.574c-0.817,1.695-6.69,13.879-1.276,19.319c4.665,4.688,15.832,2.48,21.052-3.827
	c3.224-3.896,3.407-8.457,3.459-9.45c1.021-19.404-18.383-25.532-27.574-25.532c-6.613,0-7.411,0.529-11.521,1.205
	c-3.561,0.586-5.918,0.732-6.862,0.837c-5.905,0.658-15.489,6.754-15.319,12.255c0.201,6.529,14.046,9.206,13.365,13.753
	c-0.371,2.478-4.789,3.969-8.259,4.63c-21.447,4.085-44.936-5.106-44.936-5.106s-3.064-18.383,6.128-20.426
	s26.553-4.085,13.277-10.213s-42.894-1.021-42.894-1.021s-7.149,2.042-7.149,8.17s8.17,16.34,12.255,13.277
	s23.489-11.234,1.021-15.319c-22.468-4.085-24.511-2.042-30.638,2.043c-4.506,3.004-9.026,6.028-10.712,11.403
	c-0.429,1.369-1.26,4.017-0.267,6.81c1.694,4.766,7.491,6.548,9.447,7.149c14.845,4.562,26.007-8.217,32.526-3.448
	c5.825,4.262,1.849,18.079,1.431,19.533c-4.079,14.176-17.561,24.644-22.213,22.213c-3.068-1.603,0.226-7.501-4.34-14.553
	c-4.412-6.815-10.011-5.204-12-10.298c-2.936-7.518,8.164-13.83,5.653-24.516c-0.326-1.389-1.445-6.151-5.271-8.242
	c-6.603-3.611-13.405,5.033-21.063,1.439c-3.97-1.864-5.121-5.586-10.17-6.066c-2.222-0.212-4.038,0.315-4.893,0.62
	c-6.893,2.45-8.815,10.801-10.723,10.298c-1.705-0.449,0.21-7.017-3.092-9.821c-2.51-2.131-6.734-0.983-9.674-0.137
	c-18.529,5.333-23.819,9.512-33.957,10.468c-4.824,0.455-13.114,1.236-17.106-3.574c-3.382-4.076-0.83-8.731-4.623-12.424
	c-3.804-3.705-11.603-4.115-14.781-0.852c-3.279,3.366,0.146,8.807-3.757,13.554c-1.763,2.145-4.06,2.977-6.456,3.723
	c-16.046,4.99-28.158,8.756-39.064,2.638c-4.41-2.474-10.105-7.396-9.088-10.815c0.722-2.426,4.621-3.418,7.045-3.483
	c5.774-0.154,11.319,4.735,12.511,9.617c1.667,6.828-4.542,16.249-16.34,19.404c-3.17,1.202-26.793,9.815-42.165-1.125
	c-1.886-1.342-6.72-4.783-8.899-11.13c-0.37-1.079-3.982-11.6,2.043-16.34c5.54-4.358,15.572-0.955,17.617,3.915
	c1.512,3.601-2.339,5.635-1.532,11.745c0.803,6.073,5.031,7.259,4.34,11.915c-0.49,3.303-3.358,5.392-5.338,7.784
	c-2.156,2.606-4.994,3.622-6.918,4.471c-8.041,3.549-19.584,8.644-29.617,3.064c-10.66-5.929-12.102-19.731-12.255-21.447
	c0.007-0.718-0.084-16.572-12.255-23.489c-10.678-6.069-26.283-2.774-28.596,4.085c-2.169,6.433,7.041,16.929,17.532,19.745
	c9.095,2.441,20.989-0.398,26.383-9.532c6.186-10.475,0.36-23.366-6.128-29.617c-7.653-7.375-18.432-5.882-39.83-3.064
	c-3.541,0.466-8.456,1.314-11.404,5.106c-2.392,3.077-1.027,4.925-2.894,10.213c-2.921,8.273-8.047,8.805-9.692,15.532
	c-0.092,0.378-1.556,6.728,1.521,12.043c5.539,9.567,18.724,3.57,29.106,13.277c8.585,8.027,6.869,18.952,12.936,19.745
	c4.457,0.583,5.952-5.239,15.208-7.661c3.046-0.797,6.123-1.428,12.196-0.849c21.447,2.043,18.383-7.149,21.447,2.043
	c3.176,9.527,5.948,13.102,5.106,20.426c-1.179,10.252-12.417,21.106-22.298,19.745c-4.94-0.68-11.259-4.65-11.261-9.921
	c-0.001-4.724,5.075-8.833,9.899-9.484c5.358-0.722,9.486,2.947,10.383,3.745c8.284,7.364,8.858,23.893,2.043,30.638
	c-2.576,2.55-5.34,2.842-6.966,6.343c-1.819,3.915-0.585,8.222,0.376,10.703c5.053,13.048,17.49,26.664,22.93,37.081
	c3.601,6.896,6.784,17.459,4.596,33.362c-2.046-5.193-5.727-12.997-12.255-21.106c-6.125-7.609-12.12-15.055-22.808-18.383
	c-2.328-0.725-13.505-4.205-24.681,1.021c-11.97,5.597-16.404,17.659-20.426,28.596c-1.892,5.146-5.727,15.89-5.106,29.617
	c1.475,32.638,40.292,43.261,36.763,71.486c-0.229,1.83-0.216,0.449-2.04,8.258c-5.648,24.184-8.472,36.276-6.128,47.915
	c2.168,10.763,10.145,28.218,24.511,31.66c17.801,4.265,36.256-15.479,43.915-30.638c6.669-13.201,6.659-25.911,6.128-32.681
	c-2.389,5.065-6.466,12.274-13.277,19.404c-7.095,7.428-15.821,16.564-24.511,14.298c-7.968-2.078-11.431-12.577-12.255-15.319
	c-0.878-3.591-1.702-9.177,0-15.319c2.407-8.685,7.485-9.901,11.713-19.769c3.205-7.48,5.553-19.073,1.053-22.273
	c-2.562-1.822-6.796-0.534-9.191,1.022c-4.754,3.09-4.777,8.873-4.767,9.701c0.012,0.933,0.168,4.357,2.723,7.404
	c2.262,2.697,6.403,5.099,10.181,4.146c1.621-0.409,3.715-1.572,7.691-9.507c4.807-9.594,7.211-14.391,6.128-17.617
	c-2.83-8.43-19.542-2.234-34.468-12.766c-14.81-10.449-17.235-29.868-18.468-39.745c-1.018-8.149-2.181-17.442,3.68-22.386
	c4.219-3.558,10.92-3.898,15.554-1.784c7.905,3.607,10.818,14.826,11.733,18.35c0.285,1.097,0.639,2.76,1.544,5.139
	c1.796,4.719,3.098,5.256,3.574,7.83c0.589,3.177-0.369,7.9-3.574,9.532c-3.424,1.743-8.949-0.276-10.043-3.404
	c-1.915-5.475,8.57-17.704,19.234-18.043c6.856-0.217,9.801,4.458,16.34,3.064c1.708-0.364,5.414-1.657,10.213-8.17
	c9.687-13.148,11.385-30.877,11.745-39.149c0.368-4.975-2.481-8.944-5.787-9.532c-3.639-0.647-7.156,2.924-8.17,6.128
	c-1.992,6.289,4.81,13.84,9.532,17.362c11.28,8.413,28.135,6.844,39.83,1.021c15.912-7.923,21.522-23.349,22.808-27.234
	c12.55,2.236,33.503,4.329,58.409-1.139c21.761-4.777,38.129-13.48,48.314-19.968c-10.984,11.52-21.968,23.04-32.952,34.56
	c-0.15,0.511-2.328,7.528-8.92,9.355c-5.784,1.603-13.385-1.229-14.809-7.064c-1.234-5.059,2.697-10.239,7.149-12.255
	c3.971-1.799,8.617-1.199,11.745,0.936c5.45,3.721,7.335,12.819,3.064,21.447l41.872-5.106c1.598,4.348,6.334,18.93,0,34.723
	c-5.689,14.186-16.952,20.975-24.511,25.532c-6.094,3.674-18.785,11.324-35.745,10.213c-14.732-0.965-32.135-8.507-41.872-22.638
	c-8.619-12.509-8.189-25.767-19.404-31.149c-1.782-0.855-6.304-3.025-10.213-1.021c-2.458,1.26-5.064,4.369-4.426,7.83
	c0.521,2.824,3.021,4.896,5.447,5.447c4.132,0.938,8.105-2.52,9.872-3.915c2.906-2.294,4.231-2.474,33.021-9.362
	c6.348-1.519,16.974-4.068,32.511-7.83c-3.093-1.735-8.015-4.065-14.383-5.191c-8.459-1.497-12.333,0.393-18.638-1.021
	c0,0-10.051-2.254-17.362-12.255c-12.923-17.679,1.841-56.09,25.021-78.213c15.191-14.499,32.619-20.686,44.936-23.489
	c24.602-9.161,40.192-6.487,50.043-2.043c14.406,6.499,16.303,16.678,30.638,18.383c11.926,1.418,14.115-5.21,35.745-6.128
	c8.322-0.353,10.463,1.209,15.251-0.696c11.411-4.542,18.126-19.008,18.449-19.723c0-0.001,0.003-0.006,0.003-0.006
	c2.364-5.24,8.575-12.465,16.34-11.915c5.884,0.417,10.56,5.149,12.511,9.447c2.269,5-0.031,7.478,1.787,12.681
	c2.323,6.648,8.68,10.052,12,11.83c13.611,7.288,21.543-0.936,29.362,5.106c9.167,7.085,6.939,24.912,6.128,31.404
	c-0.91,7.285-3.076,13.099-4.877,17.021c-10.962,10.083-20.496,18.136-27.803,24.085c-7.891,6.425-12.175,9.574-18.383,12.255
	c-9.062,3.914-17.413,4.754-22.979,4.851c-5.52-2.127-11.847-5.157-18.383-9.532c-16.421-10.994-25.76-24.866-30.638-33.702
	c16.17,4.709,32.34,9.418,48.511,14.128c-3.664,1.754-5.04,3.956-5.617,5.277c-3.449,7.886,5.165,21.842,14.298,21.447
	c8.632-0.373,16.779-13.526,12.511-22.128c-2.953-5.951-10.613-7.232-11.745-7.404c43.016-2.261,61.842-9.437,70.213-13.787
	c2.017-1.048,12.182-6.483,23.234-12.511c11.83-6.453,17.746-9.679,18.742-10.4c21.887-15.84,18.244-50.963,23.386-50.877
	c3.676,0.061,7.888,18.048,7.149,36c-0.472,11.464-2.911,21.658-4.893,29.945c-4.249,17.758-8.67,26.655-4.043,35.672
	c1.988,3.874,4.936,6.385,7.149,7.915c-0.175-3.579-0.458-17.725,9.702-29.106c14.857-16.643,38.337-12.021,41.617-11.319
	c19.405,4.154,29.22,19.355,31.66,23.489c1.168,1.98,12.163,21.237,5.106,39.83c-3.668,9.666-7.667,7.169-15.319,21.447
	c-4.352,8.119-2.436,7.765-11.234,30.638c-3.245,8.436-4.563,11.235-4.596,16.17c-0.054,8.276,3.574,13.847,6.638,19.574
	c2.677,5.004,12.032,23.404,13.021,41.958c0.28,5.255,0.864,20.01-8.426,33.191c-2.639,3.745-7.503,10.647-16.596,13.532
	c-12.396,3.933-23.421-2.528-25.787-3.915c-10.951-6.418-15.35-17.126-18.383-24.511c-2.397-5.836-3.689-11.59-4.851-16.766
	c-1.633-7.275-2.282-12.868-2.553-15.574c-0.169-1.689-0.356-3.903-0.511-7.149c-0.661-13.904-1.013-21.321,1.277-29.617
	c0.968-3.507,2.766-8.467,6.383-14.042c1.318,29.355,3.812,51.28,5.872,59.489c0.548,2.183,1.678,6.555,4.851,11.234
	c2.684,3.958,5.59,6.33,6.894,7.319c3.832,2.907,7.984,6.057,12.255,5.106c5.632-1.253,8.101-8.884,9.192-12.255
	c1.898-5.865,1.528-10.673,1.021-16.34c-2.784-31.135-4.911-34.721-8.17-36.766c-2.658-1.668-6.709-2.713-9.192-1.021
	c-3.185,2.17-2.958,8.276-1.021,12.255c0.363,0.745,2.899,5.757,7.149,6.128c5.757,0.502,10.596-8.655,12.255-13.957
	c4.288-13.704-4.933-26.936-7.149-29.958c-1.189-2.656-2.708-6.887-3.064-12.255c-0.488-7.363,1.661-13.643,6.128-22.468
	c10.344-20.442,15.744-19.666,18.383-30.638c2.315-9.625,1.429-23.817-7.149-29.617c-5.91-3.996-13.531-2.696-17.362-2.042
	c-2.581,0.44-10.273,1.86-16.34,8.17c-3.91,4.067-5.395,8.344-8.17,16.34c-1.489,4.291-2.281,7.78-3.064,11.234
	c-1.347,5.941-2.106,10.984-2.553,14.638c-3.223-6.595-10.851-19.719-26.043-27.915c-5.102-2.752-12.904-5.946-27.574-7.149
	c-27.691-2.27-49.729,5.023-52.596,5.958c-21.119,6.884-58.413,13.05-129.362,10.894c-0.415,3.844-2.529,27.019,14.468,46.468
	c18.288,20.925,43.859,20.562,48,20.426c17.966-0.591,42.592-9.412,52.085-31.66c5.876-13.77,3.486-26.901,2.042-32.681
	c-54.184,2.95-108.369,5.901-162.553,8.851c20.297-13.927,25.542-25.765,26.213-34.383c0.376-4.829-0.507-10.905,3.745-16
	c3.545-4.247,7.326-3.82,15.66-9.872c4.18-3.036,9.637-7.798,8.851-9.191c-0.719-1.276-5.664,2.063-13.617,1.702
	c-7.372-0.335-11.795-3.599-12.596-2.383c-0.985,1.495,6.16,5.746,9.532,14.979c0.856,2.344,1.179,4.836,1.702,8.851
	c2.434,18.669-6.926,37.946-4.596,64.34c0.154,1.747,0.147,0.093,1.857,13.258c1.445,11.124,2.683,22.276,4.27,33.38
	c4.314,30.184,5.96,36.933,1.617,41.049c-13.418,12.716-59.366-23.04-68-13.474c-3.175,3.518-1.584,13.477,17.362,40.681
	c5.861,5.504,16.066,13.475,30.638,17.532c23.269,6.478,55.153,2.271,65.362-15.319c5.392-9.29,0.121-14.357,7.149-24.511
	c8.849-12.784,22.703-12.694,23.489-21.447c0.46-5.117-3.75-10.999-8.681-11.915c-5.909-1.098-12.448,5.009-13.277,10.723
	c-1.193,8.225,9.459,15.528,16.851,20.596c20.212,13.857,41.553,16.536,52.085,17.362c16.888,1.323,31.679,2.483,45.958-6.128
	c24.848-14.983,34.699-51.441,26.553-58.213c-5.145-4.277-20.46,0.802-24.511,10.213c-7.822,18.172,31.014,41.692,24.511,57.192
	c-7.368,17.562-61.571-2.27-80.681,20.426c-13.194,15.67-5.116,46.217,10.979,79.745c-12.637,0.728-21.925-1.578-28.085-3.83
	c-7.253-2.651-9.975-5.156-31.574-18.043c-15.198-9.067-17.822-10.089-21.617-10.383c-10.459-0.811-19.864,6.793-26.894,14.638
	c-3.086-4.955-9.599-13.738-19.064-14.638c-5.846-0.556-10.088,2.154-18.097,6.484c0,0-4.677,2.529-30.328,14.537
	c-8.967,4.198-22.534,8.945-41.617,10.213c18.242,3.422,31.931,1.435,41.192-1.106c21.624-5.936,31.232-17.607,46.638-15.319
	c5.498,0.817,13.188,4.003,21.447,15.319c2.569-4.505,9.84-15.774,21.447-17.362c7.608-1.041,14.581,2.419,25.787,7.979
	c4.067,2.018,5.462,3.08,15.574,8.426c4.947,2.615,9.037,4.699,11.745,6.064c-8.83,6.263-23.334,14.884-42.894,19.404
	c-18.142,4.192-32.528,2.983-49.021,1.596c-12.79-1.076-30.335-3.578-50.723-9.766c14.082-3.689,25.29-7.25,33.106-9.894
	c5.587-1.89,10.111-4.856,16.596-4.404c8.238,0.574,14.59,5.567,18.553,9.532c3.744-3.352,9.745-7.632,17.702-8.681
	c7.386-0.973,13.217,1.265,15.83,2.213c8.968,3.254,23.167,6.961,46.468,9.192c-49.674,20.051-59.517,33.739-58.724,42.702
	c0.74,8.365,10.516,10.133,14.298,22.66c6.314,20.914-11.127,48.73-20.681,47.553c-5.921-0.729-11.314-12.901-7.915-18.958
	c4.604-8.203,26.947-8.06,33.702,2.043c4.539,6.789,0.744,16.136-4.085,27.574c-6.04,14.308-14.045,33.267-32.681,44.936
	c-9.183,5.75-15.894,6.565-74.043,6.447c-48.646-0.099-54.701-0.692-60.766-6.447c-11.981-11.369-3.457-23.391-14.298-63.319
	c-5.948-21.908-12.342-44.26-30.383-52.021c-7.757-3.337-21.56-5.652-27.83,1.979c-5.581,6.792-3.372,19.247,3.319,25.596
	c9.114,8.647,24.268,3.808,31.404-0.064c9.189-4.985,8.298-10.109,16.596-17.042c18.056-15.086,41.283-6.706,43.66-14.553
	c2.161-7.137-17.573-12.343-23.489-32.745c-3.06-10.553-1.427-21.735-1.021-24.511c1.764-12.073,6.674-18.367,4.085-28.596
	c-1.309-5.17-2.733-4.361-4.936-10.213c-7.679-20.395,4.8-43.027,6.979-46.979c1.748-3.171,2.338-3.663,4.085-7.149
	c4.247-8.474,3.916-12.156,8-22.468c4.367-11.026,6.694-11.742,7.489-11.915c4.014-0.875,9.46,3.237,10.213,7.83
	c0.82,5-4.139,9.242-8.17,12.596c-12.381,10.302-26.8,12.399-31.83,12.936c-19.072,2.038-34.354-4.331-41.872-8.17
	c-7.24-3.697-11.869-8.661-13.106-9.872c-5.402-5.288-8.917-10.646-15.149-20.255c-7.201-11.104-8.218-14.105-9.532-13.787
	c-3.209,0.776-2.631,19.989,2.383,37.277c5.286,18.226,13.551,27.583,17.021,31.149c4.157,4.272,12.935,13.292,20.426,10.894
	c3.705-1.186,7.147-5.182,6.468-8.17c-0.844-3.711-7.825-4.898-9.058-5.086c0,0-0.072-0.011-0.134-0.02
	c-5.813-0.835-44.839,18.931-45.483,53.441c-0.235,12.591,4.735,21.973,7.526,27.24c8.963,16.919,23.272,25.697,41.872,37.106
	c4.797,2.942,13.541,8.006,25.192,12.936c9.388,3.973,17.833,6.661,24.681,8.511c0,0,20.426,9.192,18.383,22.468
	c-2.022,13.144-12.611,19.107-12.255,32.681c0.407,15.528,19.154,26.788,29.106,32.766c4.52,2.715,13.038,7.346,57.191,15.83
	c45.443,8.732,55.068,7.409,63.319,3.574c0,0,0.642-0.298,21.958-11.319c0,0,6.128-4.085,20.426-4.085c14.298,0,31.66,0,48-21.447
	c10.729-14.081,24.788-30.008,30.638-55.149c7.159-30.767-5.122-40.468,5.957-61.617c7.663-14.629,22.773-27.614,29.277-24.511
	c8.338,3.978,6.563,36.317-9.958,55.553c-3.843,4.474-8.28,9.133-19.149,15.319c-18.619,10.597-27.929,15.895-32.681,20.362
	c-17.583,16.528-22.094,50.413-9.192,69.447c8.537,12.593,19.393,10.863,20.426,17.362c3.402,21.419-116.257,29.238-152.17,99.064
	c-22.985,44.69-7.821,107.301,8.17,110.298c19.819,3.715,66.247-79.392,44.936-106.213c-20.77-26.14-113.728-8.692-138.894,40.851
	c-11.944,23.513,10.939,86.804,57.191,212.426c8.005,21.743,25.217,67.931,28.596,130.723c0.751,13.96,0.645,25.515,0.425,33.255"/>
</svg>
