<svg xmlns="http://www.w3.org/2000/svg" width="38.561" height="38.561" viewBox="0 0 38.561 38.561">
  <g id="Path_94" data-name="Path 94" transform="translate(0)" fill="#fd910a">
    <path d="M 19.28062057495117 33.56126022338867 C 15.46613025665283 33.56126022338867 11.87995052337646 32.07582092285156 9.182700157165527 29.37856101989746 C 6.485440731048584 26.68131065368652 5.000000476837158 23.09513092041016 5.000000476837158 19.28063011169434 C 5.000000476837158 15.46613025665283 6.485440731048584 11.87995052337646 9.182700157165527 9.182700157165527 C 11.87995052337646 6.485440254211426 15.46613025665283 5 19.28062057495117 5 C 23.0951099395752 5 26.68128967285156 6.485440254211426 29.3785400390625 9.182700157165527 C 32.07580184936523 11.87995052337646 33.56124114990234 15.46613025665283 33.56124114990234 19.28063011169434 C 33.56124114990234 23.09513092041016 32.07580184936523 26.68131065368652 29.3785400390625 29.37856101989746 C 26.68128967285156 32.07582092285156 23.0951099395752 33.56126022338867 19.28062057495117 33.56126022338867 Z" stroke="none"/>
    <path d="M 19.28062057495117 10 C 14.16326713562012 10 10.0000057220459 14.16327667236328 10.0000057220459 19.28063011169434 C 10.0000057220459 24.39798355102539 14.16326713562012 28.56126022338867 19.28062057495117 28.56126022338867 C 24.39797401428223 28.56126022338867 28.56123733520508 24.39798355102539 28.56123733520508 19.28063011169434 C 28.56123733520508 14.16327667236328 24.39797401428223 10 19.28062057495117 10 M 19.28062057495117 0 C 29.92901992797852 0 38.56123733520508 8.632230758666992 38.56123733520508 19.28063011169434 C 38.56123733520508 29.92903137207031 29.92901992797852 38.56126022338867 19.28062057495117 38.56126022338867 C 8.632236480712891 38.56126022338867 3.814697265625e-06 29.92903137207031 3.814697265625e-06 19.28063011169434 C 3.814697265625e-06 8.632230758666992 8.632236480712891 0 19.28062057495117 0 Z" stroke="none" fill="#fd910a"/>
  </g>
</svg>
