<?xml version="1.0" encoding="utf-8"?>
<!-- Generator: Adobe Illustrator 26.3.1, SVG Export Plug-In . SVG Version: 6.00 Build 0)  -->
<svg version="1.1" id="Layer_1" xmlns="http://www.w3.org/2000/svg" xmlns:xlink="http://www.w3.org/1999/xlink" x="0px" y="0px"
	 viewBox="0 0 428 3305" style="enable-background:new 0 0 428 3305;" xml:space="preserve">
<style type="text/css">
	.st0{fill:none;stroke:#F6A6AA;stroke-width:5;}
	.st1{fill:none;stroke:#F8A7AC;stroke-width:5;}
	.st2{fill:#FD910A;}
	.st3{fill:#F8A7AC;}
	.st4{fill:#FC9009;}
</style>
<path class="st0" d="M175.912,1786.829"/>
<path class="st0" d="M213.074,3271.778c0.017-5.674-0.295-14.567-2.21-25.207c-3.503-19.459-10.275-33.13-13.069-38.969
	c-19.969-41.725-34.691-72.463-24.768-91.997c10.899-21.456,51.157-29.012,60.152-17.692c9.229,11.615-10.878,47.607-19.461,45.999
	c-6.925-1.298-13.493-28.414-3.538-47.768c15.553-30.24,67.375-33.626,65.902-42.903c-0.447-2.814-5.149-2.065-8.846-7.519
	c-5.588-8.243-3.634-22.918,3.981-30.076c2.058-1.934,6.09-4.229,14.153-8.818c4.707-2.679,6.629-4.697,8.293-6.635
	c7.155-8.331,7.923-22.336,4.312-24.059c-2.817-1.344-9.36,4.28-12.679,10.615c-4.798,9.159,0.52,13.36-2.58,26.685
	c-2.533,10.888-8.622,17.786-13.269,23.884c-7.077,9.288-14.596,9.288-20.788,9.288c-6.192,0-8.846,1.769-8.846,1.769
	c-9.231,4.773-9.509,4.902-9.509,4.902c-3.573,1.661-7.742,2.234-27.422-1.548c-19.122-3.674-22.811-5.68-24.768-6.856
	c-4.31-2.589-12.429-7.465-12.605-14.19c-0.154-5.879,4.432-8.461,5.308-14.154c0.885-5.75-7.961-9.73-7.961-9.73
	c-2.966-0.801-6.623-1.965-10.689-3.686c-5.046-2.135-8.833-4.328-10.91-5.603c-8.055-4.941-14.252-8.743-18.134-16.07
	c-1.208-2.281-3.361-6.344-3.259-11.797c0.279-14.945,17.18-23.506,19.698-23.144c0.027,0.004,0.058,0.009,0.058,0.009
	c0.534,0.082,3.558,0.596,3.923,2.203c0.294,1.294-1.197,3.025-2.801,3.538c-3.244,1.039-7.046-2.868-8.846-4.718
	c-1.503-1.544-5.082-5.596-7.372-13.49c-2.171-7.487-2.422-15.808-1.032-16.144c0.569-0.137,1.009,1.162,4.128,5.971
	c2.699,4.162,4.221,6.482,6.561,8.772c0.536,0.524,2.541,2.674,5.676,4.276c3.256,1.662,9.875,4.421,18.134,3.538
	c2.178-0.233,8.423-1.141,13.785-5.603c1.746-1.453,3.893-3.29,3.538-5.455c-0.326-1.989-2.684-3.77-4.423-3.391
	c-0.344,0.075-1.352,0.385-3.243,5.16c-1.769,4.466-1.626,6.061-3.465,9.73c-0.757,1.51-1.012,1.723-1.769,3.096
	c-0.944,1.711-6.348,11.513-3.022,20.345c0.954,2.534,1.571,2.184,2.138,4.423c1.121,4.43-1.005,7.156-1.769,12.384
	c-0.176,1.202-0.883,6.044,0.442,10.615c2.562,8.836,11.109,11.09,10.173,14.181c-1.029,3.398-11.088-0.231-18.908,6.302
	c-3.594,3.003-3.208,5.222-7.187,7.381c-3.091,1.677-9.654,3.773-13.601,0.028c-2.898-2.75-3.855-8.143-1.437-11.085
	c2.715-3.304,8.693-2.302,12.053-0.857c7.813,3.361,10.582,13.042,13.158,22.529c4.695,17.292,1.004,22.499,6.192,27.422
	c2.627,2.492,5.249,2.749,26.316,2.792c25.183,0.051,28.089-0.302,32.066-2.792c8.071-5.054,11.537-13.265,14.153-19.461
	c2.091-4.954,3.735-9.002,1.769-11.942c-2.926-4.375-12.602-4.437-14.596-0.885c-1.472,2.623,0.863,7.895,3.428,8.21
	c4.138,0.51,11.691-11.537,8.956-20.594c-1.638-5.425-5.872-6.191-6.192-9.813c-0.344-3.882,3.919-9.81,25.432-18.493
	c-10.092-0.966-16.241-2.572-20.124-3.981c-1.131-0.41-3.657-1.38-6.856-0.958c-3.446,0.454-6.045,2.308-7.666,3.76
	c-1.717-1.717-4.467-3.88-8.035-4.128c-2.808-0.196-4.768,1.089-7.187,1.907c-3.385,1.145-8.239,2.687-14.338,4.285
	c8.83,2.68,16.428,3.764,21.967,4.229c7.143,0.601,13.373,1.125,21.23-0.691c8.471-1.958,14.752-5.691,18.576-8.404
	c-1.173-0.591-2.944-1.494-5.086-2.626c-4.38-2.315-4.984-2.775-6.745-3.649c-4.853-2.408-7.873-3.906-11.168-3.455
	c-5.027,0.688-8.175,5.568-9.288,7.519c-3.577-4.901-6.907-6.281-9.288-6.635c-6.672-0.991-10.833,4.064-20.198,6.635
	c-4.01,1.101-9.939,1.961-17.839,0.479c8.265-0.549,14.14-2.605,18.023-4.423c11.109-5.201,13.134-6.296,13.134-6.296
	c3.469-1.875,5.306-3.049,7.838-2.808c4.099,0.39,6.92,4.194,8.256,6.34c3.045-3.397,7.118-6.691,11.647-6.34
	c1.644,0.127,2.78,0.57,9.362,4.497c9.354,5.581,10.533,6.666,13.674,7.814c2.668,0.975,6.69,1.974,12.163,1.659
	c-6.97-14.52-10.469-27.75-4.755-34.536c8.276-9.829,31.75-1.24,34.941-8.846c2.816-6.713-14.002-16.898-10.615-24.768
	c1.754-4.076,8.387-6.275,10.615-4.423c3.528,2.933-0.738,18.722-11.5,25.211c-6.184,3.729-12.589,3.227-19.903,2.654
	c-4.561-0.357-13.803-1.518-22.557-7.519c-3.201-2.195-7.815-5.358-7.298-8.92c0.359-2.475,3.191-5.12,5.75-4.644
	c2.135,0.397,3.959,2.944,3.759,5.16c-0.341,3.79-6.34,3.752-10.173,9.288c-3.044,4.397-0.761,6.592-3.096,10.615
	c-4.421,7.618-18.229,9.44-28.307,6.635c-6.311-1.757-10.731-5.209-13.269-7.593c-8.205-11.781-8.894-16.094-7.519-17.618
	c3.739-4.143,23.638,11.343,29.449,5.836c1.881-1.783,1.168-4.705-0.7-17.778c-0.687-4.809-1.224-9.639-1.849-14.456
	c-0.741-5.701-0.738-4.985-0.804-5.742c-1.009-11.431,3.044-19.78,1.99-27.865c-0.227-1.739-0.366-2.818-0.737-3.833
	c-1.46-3.999-4.555-5.839-4.128-6.487c0.347-0.527,2.262,0.887,5.455,1.032c3.444,0.156,5.586-1.29,5.897-0.737
	c0.34,0.604-2.023,2.666-3.833,3.98c-3.609,2.621-5.247,2.436-6.782,4.276c-1.841,2.207-1.459,4.838-1.622,6.929
	c-0.291,3.732-2.562,8.859-11.352,14.891c23.466-1.278,46.932-2.555,70.398-3.833c0.625,2.503,1.66,8.19-0.885,14.154
	c-4.111,9.635-14.776,13.455-22.557,13.711c-1.793,0.059-12.868,0.217-20.788-8.846c-7.361-8.423-6.446-18.46-6.266-20.125
	c30.726,0.934,46.878-1.737,56.024-4.718c1.242-0.405,10.786-3.563,22.778-2.58c6.353,0.521,9.732,1.904,11.942,3.096
	c6.579,3.55,9.883,9.233,11.279,12.089c0.194-1.583,0.522-3.767,1.106-6.34c0.339-1.496,0.682-3.007,1.327-4.865
	c1.202-3.463,1.845-5.315,3.538-7.077c2.628-2.733,5.959-3.348,7.077-3.538c1.659-0.283,4.959-0.846,7.519,0.885
	c3.715,2.512,4.099,8.658,3.096,12.826c-1.143,4.752-3.481,4.416-7.961,13.269c-1.934,3.822-2.865,6.542-2.654,9.731
	c0.154,2.325,0.812,4.157,1.327,5.307c0.96,1.308,4.953,7.039,3.096,12.974c-0.718,2.296-2.814,6.262-5.308,6.045
	c-1.841-0.16-2.939-2.331-3.096-2.654c-0.839-1.723-0.937-4.368,0.442-5.308c1.075-0.733,2.829-0.28,3.981,0.442
	c1.412,0.886,2.333,2.438,3.538,15.923c0.219,2.455,0.38,4.536-0.442,7.077c-0.472,1.46-1.542,4.765-3.981,5.307
	c-1.85,0.412-3.648-0.952-5.307-2.211c-0.564-0.428-1.823-1.456-2.986-3.17c-1.374-2.026-1.864-3.92-2.101-4.865
	c-0.892-3.555-1.973-13.051-2.543-25.764c-1.567,2.415-2.345,4.563-2.764,6.082c-0.992,3.593-0.839,6.805-0.553,12.827
	c0.067,1.406,0.148,2.364,0.221,3.096c0.117,1.172,0.398,3.594,1.106,6.745c0.503,2.242,1.063,4.733,2.101,7.261
	c1.314,3.198,3.219,7.836,7.961,10.615c1.025,0.601,5.8,3.399,11.168,1.695c3.938-1.249,6.044-4.239,7.187-5.86
	c4.023-5.708,3.77-12.099,3.649-14.375c-0.429-8.035-4.48-16.004-5.639-18.171c-1.327-2.48-2.898-4.893-2.875-8.477
	c0.014-2.137,0.585-3.349,1.99-7.003c3.81-9.906,2.981-9.753,4.865-13.269c3.314-6.183,5.046-5.102,6.634-9.288
	c3.056-8.052-1.705-16.392-2.211-17.25c-1.057-1.791-5.307-8.374-13.711-10.173c-1.421-0.304-11.589-2.306-18.024,4.902
	c-4.4,4.929-4.278,11.056-4.202,12.605c-0.959-0.662-2.235-1.75-3.096-3.428c-2.004-3.905-0.089-7.758,1.751-15.449
	c0.859-3.589,1.915-8.004,2.119-12.969c0.32-7.775-1.504-15.564-3.096-15.591c-2.227-0.037-0.649,15.174-10.128,22.034
	c-0.431,0.312-2.993,1.709-8.117,4.504c-4.787,2.611-9.189,4.964-10.062,5.418c-3.625,1.884-11.778,4.992-30.408,5.971
	c0.49,0.075,3.807,0.63,5.086,3.207c1.849,3.725-1.68,9.421-5.418,9.583c-3.955,0.171-7.686-5.873-6.192-9.288
	c0.25-0.572,0.846-1.525,2.433-2.285c-7.003-2.04-14.006-4.079-21.009-6.118c2.113,3.827,6.157,9.835,13.269,14.596
	c2.83,1.895,5.571,3.207,7.961,4.128c2.41-0.042,6.027-0.406,9.952-2.101c2.689-1.161,4.544-2.525,7.961-5.307
	c3.164-2.576,7.294-6.064,12.041-10.431c0.78-1.698,1.718-4.217,2.112-7.372c0.351-2.812,1.316-10.532-2.654-13.6
	c-3.386-2.617-6.821,0.945-12.716-2.212c-1.438-0.77-4.191-2.244-5.197-5.123c-0.787-2.253,0.209-3.326-0.774-5.492
	c-0.845-1.861-2.87-3.911-5.418-4.091c-3.363-0.238-6.053,2.891-7.077,5.16c0,0-0.001,0.002-0.001,0.003
	c-0.14,0.31-3.048,6.574-7.99,8.542c-2.074,0.825-3.001,0.149-6.605,0.302c-9.367,0.397-10.316,3.268-15.48,2.654
	c-6.208-0.739-7.03-5.147-13.269-7.961c-4.266-1.925-11.018-3.083-21.672,0.885c-5.334,1.214-12.882,3.893-19.461,10.173
	c-10.039,9.581-16.433,26.216-10.836,33.872c3.166,4.332,7.519,5.308,7.519,5.308c2.731,0.613,4.408-0.206,8.072,0.442
	c2.758,0.488,4.889,1.497,6.229,2.248c-6.729,1.629-11.33,2.733-14.08,3.391c-12.468,2.983-13.042,3.061-14.301,4.054
	c-0.765,0.604-2.486,2.102-4.276,1.695c-1.051-0.239-2.133-1.136-2.359-2.359c-0.276-1.499,0.852-2.845,1.917-3.391
	c1.693-0.868,3.651,0.072,4.423,0.442c4.857,2.331,4.671,8.072,8.404,13.49c4.217,6.12,11.754,9.386,18.134,9.804
	c7.345,0.481,12.841-2.832,15.48-4.423c3.273-1.973,8.151-4.914,10.615-11.057c2.743-6.84,0.692-13.155,0-15.038l-18.134,2.211
	c1.85-3.737,1.034-7.677-1.327-9.288c-1.354-0.924-3.367-1.184-5.086-0.405c-1.928,0.873-3.631,3.116-3.096,5.307
	c0.616,2.527,3.908,3.754,6.413,3.059c2.855-0.791,3.798-3.83,3.863-4.052c4.757-4.989,9.514-9.978,14.271-14.967
	c-4.411,2.81-11.5,6.579-20.924,8.648c-10.786,2.368-19.861,1.461-25.296,0.493c-0.557,1.682-2.987,8.363-9.878,11.794
	c-5.065,2.522-12.364,3.201-17.249-0.442c-2.045-1.525-4.991-4.795-4.128-7.519c0.439-1.387,1.962-2.934,3.538-2.654
	c1.432,0.254,2.666,1.973,2.506,4.128c-0.156,3.583-0.891,11.26-5.086,16.955c-2.078,2.821-3.683,3.381-4.423,3.538
	c-2.832,0.604-4.108-1.421-7.077-1.327c-4.618,0.146-9.159,5.443-8.33,7.814c0.474,1.355,2.867,2.229,4.349,1.474
	c1.388-0.707,1.803-2.752,1.548-4.128c-0.207-1.115-0.77-1.347-1.548-3.391c-0.392-1.03-0.545-1.75-0.669-2.226
	c-0.396-1.526-1.658-6.385-5.081-7.947c-2.007-0.916-4.909-0.769-6.736,0.772c-2.538,2.141-2.035,6.166-1.594,9.695
	c0.534,4.277,1.584,12.687,7.998,17.213c6.464,4.561,13.702,1.878,14.927,5.529c0.469,1.397-0.572,3.475-2.654,7.629
	c-1.722,3.437-2.629,3.94-3.331,4.118c-1.636,0.413-3.43-0.627-4.409-1.795c-1.107-1.32-1.174-2.803-1.179-3.207
	c-0.005-0.359,0.006-2.863,2.064-4.201c1.037-0.674,2.871-1.232,3.98-0.443c1.949,1.386,0.932,6.406-0.456,9.646
	c-1.831,4.274-4.03,4.8-5.073,8.562c-0.737,2.66-0.38,5.079,0,6.634c0.357,1.188,1.857,5.735,5.308,6.635
	c3.763,0.981,7.543-2.975,10.615-6.192c2.949-3.088,4.715-6.21,5.75-8.404c0.23,2.932,0.234,8.436-2.654,14.154
	c-3.317,6.565-11.309,15.116-19.019,13.269c-6.221-1.491-9.676-9.05-10.615-13.711c-1.015-5.041,0.208-10.277,2.654-20.751
	c0.79-3.382,0.784-2.784,0.883-3.576c1.528-12.224-15.283-16.824-15.921-30.959c-0.269-5.945,1.392-10.598,2.211-12.826
	c1.741-4.737,3.662-9.96,8.846-12.384c4.84-2.263,9.68-0.756,10.689-0.442c4.629,1.441,7.225,4.666,9.878,7.961
	c2.827,3.512,4.421,6.892,5.308,9.141c0.948-6.887-0.431-11.462-1.99-14.448c-2.356-4.512-7.742-10.408-9.931-16.059
	c-0.416-1.075-0.95-2.94-0.163-4.635c0.704-1.516,1.901-1.643,3.017-2.747c2.951-2.921,2.703-10.079-0.885-13.269
	c-0.389-0.345-2.176-1.935-4.497-1.622c-2.089,0.282-4.288,2.061-4.287,4.107c0.001,2.282,2.737,4.002,4.877,4.296
	c4.279,0.59,9.146-4.111,9.657-8.551c0.365-3.172-0.836-4.72-2.211-8.846c-1.327-3.981,0,0-9.288-0.885
	c-2.63-0.25-3.963,0.023-5.282,0.368c-4.009,1.049-4.656,3.57-6.586,3.318c-2.628-0.344-1.884-5.075-5.602-8.551
	c-4.496-4.204-10.206-1.606-12.605-5.75c-1.333-2.302-0.699-5.052-0.659-5.216c0.712-2.913,2.932-3.144,4.197-6.726
	c0.809-2.29,0.217-3.09,1.253-4.423c1.277-1.643,3.406-2.01,4.939-2.212c9.267-1.22,13.935-1.867,17.249,1.327
	c2.81,2.707,5.333,8.29,2.654,12.827c-2.336,3.956-7.487,5.185-11.426,4.128c-4.544-1.219-8.532-5.765-7.593-8.551
	c1.002-2.97,7.76-4.397,12.384-1.769c5.271,2.996,5.311,9.862,5.308,10.173c0.066,0.743,0.691,6.72,5.308,9.288
	c4.345,2.417,9.344,0.21,12.827-1.327c0.833-0.368,2.062-0.808,2.996-1.936c0.857-1.036,2.1-1.941,2.312-3.371
	c0.299-2.016-1.532-2.53-1.88-5.16c-0.35-2.646,1.318-3.527,0.663-5.086c-0.886-2.109-5.23-3.583-7.63-1.696
	c-2.609,2.053-1.045,6.609-0.885,7.077c0.944,2.749,3.037,4.239,3.854,4.82c6.657,4.738,16.888,1.008,18.261,0.487
	c5.11-1.366,7.799-5.447,7.077-8.404c-0.516-2.114-2.917-4.232-5.418-4.165c-1.05,0.028-2.738,0.458-3.051,1.509
	c-0.441,1.481,2.026,3.612,3.936,4.684c4.723,2.65,9.969,1.019,16.918-1.143c1.038-0.323,2.032-0.683,2.796-1.612
	c1.69-2.056,0.207-4.412,1.627-5.87c1.377-1.413,4.754-1.235,6.402,0.369c1.643,1.6,0.537,3.616,2.002,5.381
	c1.729,2.083,5.319,1.745,7.408,1.548c4.391-0.414,6.682-2.224,14.706-4.533c1.273-0.366,3.102-0.864,4.19,0.059
	c1.43,1.214,0.601,4.059,1.339,4.253c0.826,0.218,1.659-3.399,4.644-4.46c0.371-0.132,1.157-0.36,2.119-0.268
	c2.187,0.208,2.685,1.82,4.405,2.627c3.316,1.557,6.262-2.187,9.122-0.623c1.657,0.906,2.141,2.968,2.283,3.57
	c1.088,4.628-3.72,7.361-2.448,10.617c0.861,2.206,3.286,1.509,5.197,4.46c1.977,3.054,0.551,5.608,1.88,6.302
	c2.014,1.053,7.853-3.48,9.62-9.62c0.181-0.629,1.903-6.613-0.62-8.459c-2.823-2.065-7.657,3.469-14.086,1.493
	c-0.847-0.26-3.357-1.032-4.091-3.096c-0.43-1.209-0.07-2.356,0.116-2.949c0.73-2.328,2.688-3.638,4.639-4.938
	c2.654-1.769,3.538-2.654,13.269-0.885c9.73,1.769,1.327,5.308-0.442,6.635c-1.769,1.327-5.308-3.096-5.308-5.75
	s3.096-3.538,3.096-3.538s12.827-2.211,18.576,0.442c5.75,2.654-1.769,3.538-5.75,4.423c-3.981,0.885-2.654,8.846-2.654,8.846
	s10.173,3.98,19.461,2.211c1.503-0.286,3.416-0.932,3.577-2.005c0.295-1.969-5.701-3.128-5.788-5.956
	c-0.073-2.383,4.077-5.023,6.634-5.308c0.409-0.045,1.429-0.108,2.972-0.362c1.78-0.293,2.126-0.522,4.99-0.522
	c3.981,0,12.384,2.654,11.942,11.057c-0.023,0.43-0.102,2.406-1.498,4.093c-2.26,2.731-7.096,3.688-9.117,1.657
	c-2.345-2.356,0.199-7.633,0.553-8.367c1.954-4.052,5.495-5.933,7.077-6.745c1.205-0.619,8.68-4.456,15.149-0.774
	c0.865,0.493,5.175,2.946,5.299,6.529c0.131,3.794-4.554,5.376-4.082,9.394c0.181,1.545,1.114,3.355,2.764,3.981
	c1.793,0.679,4.377-0.06,4.976-1.769c0.504-1.439-0.554-3.121-1.659-3.981c-1.641-1.278-3.199-0.597-6.192-1.106
	c-2.268-0.385-4.671-1.336-6.082-2.433c-4.619-3.591-5.048-13.768-1.216-16.365c3.715-2.518,9.481,3.413,13.379,0.553
	c3.063-2.248,1.383-7.291,4.644-8.957c2.561-1.308,5.93,0.61,6.413,0.885c5.06,2.88,3.284,8.113,8.625,13.158
	c3.659,3.457,6.11,2.527,7.447,5.556c1.691,3.829-0.141,10.031-4.019,11.325c-2.571,0.857-5.244-0.708-5.86-1.069
	c-2.386-1.397-3.424-3.516-3.912-4.549c-1.901-4.018-2.567-11.394,2.364-15.907c5.965-5.458,15.946-2.91,19.129,1.769
	c3.296,4.847-1.851,10.288,1.438,14.596c3.569,4.676,15.006,5.305,19.129-0.59c2.276-3.254,2.831-9.221-0.616-11.916
	c-2.923-2.285-7.415-1.197-9.888,0.564c-0.737,0.525-2.087,1.516-2.543,3.317c-0.415,1.641-0.044,3.782,1.327,4.865
	c1.946,1.536,5.363,0.511,7.193-1.038c4.98-4.216,1.597-15.18,1.432-15.695c-3.185-9.945-10.303-10.981-10.615-18.318
	c-0.244-5.752,3.854-11.613,6.192-11.315c2.158,0.275,4.548,6.013,3.096,10.615c-2.565,8.127-15.724,8.307-15.923,14.154
	c-0.07,2.046,1.465,4.273,2.764,4.349c1.64,0.096,3.997-3.175,3.428-5.676c-0.828-3.64-7.134-2.492-12.827-7.961
	c-3.071-2.951-6.113-7.972-4.533-10.91c0.859-1.597,3.173-2.746,4.718-2.07c1.882,0.823,1.839,4.014,1.833,4.482
	c-0.042,3.172-2.288,5.299-2.902,5.845c-6.419,1.815-10.426,5.549-10.173,8.846c0.209,2.727,3.364,5.566,4.755,5.013
	c1.088-0.433,1.79-3.218,0.885-5.197c-2.491-5.443-16.187-2.702-26.98-8.514c-2.242-1.207-3.837-2.503-3.87-4.091
	c-0.03-1.424,1.2-2.927,2.654-3.317c1.709-0.458,3.83,0.595,4.644,1.99c2.891,4.954-10.283,14.91-7.63,19.24
	c1.197,1.953,5.279,2.215,6.192,0.995c0.89-1.188-0.959-4.146-2.322-5.676c-0.422-0.474-1.51-1.675-3.068-2.405
	c-5.029-2.355-9.053,2.957-13.296,1.078c-3.47-1.536-4.925-6.921-3.981-10.173c0.388-1.335,1.046-1.85,1.295-2.022
	c1.605-1.104,4.252-0.327,5.782,1.137c1.114,1.066,2.071,2.912,1.659,4.57c-0.635,2.556-4.509,4.626-9.178,3.391
	c-10.421-1.953-18.137,1.597-19.019,5.75c-0.844,3.974,4.224,10.125,9.73,10.615c0.633,0.056,3.612,0.322,5.672-1.658
	c1.81-1.74,2.222-4.549,1.847-6.303c-1.891-8.831-28.569-13.344-33.172-6.192c-1.149,1.786-0.487,3.623-2.211,4.865
	c-3.215,2.317-10.536-0.45-11.057-3.612c-0.147-0.894,0.211-2.047,0.971-2.435c1.015-0.518,2.748,0.324,3.23,1.44
	c0.829,1.917-1.981,4.764-3.572,6.376c-2.513,2.546-7.206,7.302-14.783,7.961c-4.157,0.362-7.044-0.697-12.384-2.654
	c-5.933-2.174-10.791-3.955-11.057-7.077c-0.26-3.049,3.969-6.113,7.519-7.077c4.08-1.107,9.9-0.156,12.088,3.981
	c1.163,2.198,1.233,5.167,0,7.519c-1.856,3.542-6.57,4.474-15.921,6.192c-7.126,1.31-10.761,1.934-14.301,0.442
	c-4.379-1.845-6.707-5.344-7.445-6.487c-1.509-2.334-3.286-5.083-2.359-7.814c1.239-3.649,6.745-5.608,10.763-4.128
	c1.702,0.627,4.942,2.536,4.764,5.521c-0.17,2.86-3.343,4.425-3.511,4.505l-12.384,8.404l-12.384-3.096c0,0-6.192-3.096-8.846-5.307
	c-0.659-0.549-2.587-4.688-0.442-7.961c1.737-2.652,5.72-3.972,8.846-2.211c3.243,1.827,4.4,6.315,2.211,9.73
	c-2.232,4.339-4.756,5.956-6.634,6.635c-4.702,1.7-7.496-1.706-13.343-0.295c-5.373,1.297-6.329,4.974-8.772,4.275
	c-4.491-1.283-7.459-15.481-1.769-19.461c2.825-1.976,8.092-1.649,10.173,1.327c2.252,3.221-0.192,8.167-2.654,10.615
	c-3.234,3.216-8.456,4.072-13.49,2.359c-2.732-0.178-6.697-0.536-11.5-1.327c-3.053-0.503-3.628-0.718-4.202-1.032
	c-5.137-2.818-6.206-11.571-3.981-17.692c3.538-9.73,10.173,0,10.173,0s0.885,3.981-0.442,7.961
	c-1.327,3.981-6.634,7.519-6.634,7.519c-1.736,0.31-4.181,0.516-7.003,0c-6.26-1.143-10.165-5.063-11.573-6.634
	c-1.76-1.303-5.557-4.531-6.634-9.73c-0.357-1.724-1.007-4.861,0.885-7.077c1.029-1.206,2.99-2.349,4.81-1.786
	c2.167,0.67,3.066,3.428,3.078,5.177c0.023,3.488-3.462,6.988-8.772,8.551c-1.378,0.62-3.907,1.528-7.077,1.327
	c-4.571-0.29-10.096-2.862-11.942-7.497c-3.383-8.493,7.459-19.207,10.173-18.156c1.956,0.758,2.112,8.567-1.327,10.615
	c-2.48,1.477-6.01-0.53-6.634-0.885c-5.075-2.885-8.169-10.443-5.75-15.923c1.672-3.788,5.44-5.36,10.615-7.519
	c3.48-1.452,5.841-2.438,8.846-2.211c7.909,0.595,15.217,9.204,13.711,12.826c-1.162,2.795-8.194,4.117-11.741,0.885
	c-1.721-1.568-3.066-4.613-1.97-6.634c2.464-4.542,15.848-1.124,22.115,0.442c5.308,1.327,11.057,5.75,12.827,8.404
	c1.769,2.654-1.769,8.846-1.769,8.846c-1.669,2.307-4.273,3.558-6.634,3.096c-4.115-0.805-6.109-6.541-4.567-9.126
	c0.991-1.661,3.408-1.966,5.967-2.079c5.923-0.261,25.411-1.121,30.002,9.436c0.34,0.782,2.04,4.942,0,7.983
	c-1.875,2.795-6.359,3.821-11.278,2.485c-0.414-0.311-3.025-2.33-2.875-5.16c0.051-0.96,0.297-2.449,2.211-3.981
	c5.22-4.176,13.269-4.865,13.269-4.865c13.33-1.208,19.996-1.812,21.672,0.885c2.541,4.086-1.217,13.191-5.824,13.711
	c-4.15,0.469-9.205-6.004-8.772-11.942c0.414-5.679,5.848-10.875,13.269-11.5c1.892,0.34,21.655,4.027,22.041,10.91
	c0.112,2.003-1.393,4.696-3.681,5.788c-2.825,1.349-6.687,0.184-7.081-1.365c-0.376-1.477,2.525-2.802,2.064-4.718
	c-0.304-1.264-1.752-1.461-1.769-2.359c-0.024-1.259,2.794-2.423,4.792-2.949c6.962-1.833,17.644,0.49,20.272,7.077
	c1.133,2.84,0.793,6.536-0.325,6.938c-1.141,0.41-3.744-2.374-4.098-5.316c-0.06-0.504-0.139-1.226,0.147-2.064
	c0.638-1.865,2.537-2.705,4.497-3.539c1.655-0.703,1.429-0.338,5.885-1.617c2.292-0.658,3.083-0.964,4.583-1.036
	c1.093-0.052,1.589,0.066,3.403,0.243c3.185,0.31,4.018,0.207,5.304,0.32c2.325,0.203,8.284,2.116,8.542,5.335
	c0.173,2.161-2.252,4.549-5.639,5.971c-3.319,0.534-6.323-0.717-7.519-2.986c-1.309-2.482,0.053-5.225,0.332-5.787
	c1.778-3.58,6.406-5.567,11.746-5.307c2.306-0.975,6.895-2.529,12.58-1.769c3.179,0.425,9.066,1.212,11.831,5.897
	c1.984,3.362,2.608,9.151-0.553,11.279c-2.622,1.764-7.085,0.496-9.178-2.211c-2.369-3.065-1.094-7.19-0.332-9.657
	c1.742-5.638,7.212-14.066,16.365-14.595c6.001-0.347,10.483,2.88,12.071,4.157c0.196,0.136,3.731,2.665,3.409,6.458
	c-0.328,3.868-4.496,7.042-7.077,6.192c-1.957-0.645-3.436-3.747-2.764-6.155c1.572-5.64,14.553-6.087,18.687-6.229
	c5.769-0.198,8.022,0.809,9.067,1.364c3.183,1.69,7.277,5.614,6.524,9.841c-0.453,2.544-2.682,5.313-5.064,5.253
	c-2.25-0.056-4.549-2.633-4.777-4.959c-0.706-7.207,17.689-20.057,29.634-14.595c4.951,2.264,9.598,8.042,8.846,13.269
	c-0.467,3.249-3.109,6.899-5.308,6.635c-2.031-0.244-3.033-3.751-3.096-3.981c-1.371-4.999,2.796-9.748,3.428-10.468
	c2.782-3.171,6.132-4.255,9.841-5.455c3.282-1.062,5.076-1.012,5.88-0.954c1.606,0.116,4.823,0.348,6.504,2.723
	c1.989,2.809,1.033,7.491-0.442,7.888c-1.363,0.366-4.05-2.691-3.981-5.676c0.048-2.042,1.373-3.53,2.212-4.423
	c5.84-6.219,11.833-12.601,20.014-11.905c1.374,0.117,5.487,0.467,6.614,2.994c1.254,2.812-1.63,7.323-5.398,8.911
	c-4.001,1.686-9.024,0.085-10.947-3.059c-0.963-1.575-0.763-2.906-0.162-7.915c1.6-13.341,1.652-16.162,3.811-17.075
	c1.57-0.664,3.799-0.125,4.319,0.979c0.686,1.458-1.665,3.782-1.886,3.997c-3.34,3.241-9.378,3.6-13.822,1.438
	c-1.545-0.752-4.143-2.016-4.755-4.755c-0.479-2.143,0.346-4.794,2.212-5.897c2.445-1.446,6.51-0.133,7.961,2.212
	c3.093,4.996-3.477,18.248-14.153,22.115c-7.303,2.645-14.072,0.009-16.365-0.885c-3.148-1.226-6.984-2.72-7.961-6.266
	c-0.883-3.203,0.99-6.54,2.93-8.348c4.529-4.222,13.149-3.585,14.762-0.424c2.186,4.285-7.349,15.476-18.576,20.346
	c-11.854,5.142-27.646,4.128-30.961-2.341c-0.895-1.746-1.034-4.19-0.221-6.192c1.177-2.897,4.619-5.537,7.961-4.755
	c3.283,0.768,5.457,4.6,5.086,7.538c-0.698,5.537-10.683,9.887-19.019,8.846c-8.89-1.11-17.258-8.521-16.365-13.269
	c0.427-2.269,3.043-4.329,4.865-3.944c2.244,0.475,3.753,4.757,3.096,7.482c-1.845,7.65-22.048,8.343-24.326,8.404l-6.192-5.75
	c0,0-0.442-3.096,5.308-7.077c1.799-1.246,2.122-1.786,2.641-1.717c2.018,0.267,3.601,5.209,3.109,8.351
	c-0.874,5.577-8.978,9.888-19.903,11.5h-4.865c-6.121,1.795-11.777-1.487-12.827-5.75c-0.997-4.05,2.402-8.015,5.308-9.73
	c0.532-0.315,5.171-2.976,7.959-0.808c1.788,1.391,2.014,4.207,1.664,6.115c-0.875,4.764-6.012,7.413-12.792,10.91
	c-3.603,1.858-5.775,2.95-9.067,3.244c-4.131,0.368-7.465-0.747-9.302-1.529c-5.572-2.652-7.869-7.471-6.619-10.342
	c0.811-1.862,3.338-3.416,5.822-3.02c2.458,0.392,4.402,2.615,4.644,4.718c0.495,4.308-5.976,9.702-11.942,9.73
	c-4.265,0.021-4.787-2.718-11.335-4.603c-7.439-2.141-11.546,0.016-12.549-2.031c-1.184-2.418,2.992-8.595,8.404-9.288
	c5.696-0.729,11.316,4.802,10.615,6.635c-1.201,3.138-21.888-2.116-26.906-3.391c-8.301-2.108-14.967-4.537-19.461-6.339
	c-2.677-1.085-4.562-3.394-4.821-6.005c-0.24-2.42,0.995-4.295,1.209-4.61c0.464-0.682,1.303-1.918,2.56-2.252
	c2.722-0.723,7.111,2.862,7.612,6.676c0.668,5.079-5.953,7.573-4.865,11.5c0.851,3.072,5.768,4.675,9.067,5.75
	c4.686,1.527,6.798,0.819,7.814,2.506c1.617,2.685-1.38,8.382-3.833,8.404c-2.484,0.021-3.162-5.791-6.487-6.045
	c-1.932-0.147-2.668,1.743-5.16,2.801c-2.823,1.199-5.875,0.471-10.91-1.622c-10.169-4.227-19.991-8.309-19.608-13.564
	c0.195-2.674,2.937-4.33,3.096-4.423c5.626-3.29,14.736,3.661,19.019,6.929c1.85,1.411,8.418,6.424,7.519,8.109
	c-0.855,1.602-8.46,0.205-14.006-3.833c-4.971-3.619-7.201-8.569-8.182-11.354c-13.479-6.335-16.446-9.714-15.996-11.646
	c0.399-1.716,3.711-3.212,5.602-2.359c1.984,0.896,1.482,3.962,3.686,5.013c1.326,0.632,3.278,0.365,4.497-0.59
	c2.986-2.338-0.881-7.246,0.885-17.25c0.49-2.777,1.222-4.894-0.062-6.434c-1.981-2.376-6.995-0.924-7.899-1.527
	c-1.327-0.885-13.711,0.885-15.48,3.096c-4.469,5.587-5.604,15.955,0.442,21.673c5.627,5.32,15.856,5.099,18.259,1.312
	c1.429-2.253,0.406-6.501-1.982-8.419c-1.616-1.297-2.91-0.765-4.306-1.421c-4.54-2.133-2.394-13.17-1.798-29.067
	c0.53-14.12-0.432-20.79,3.272-22.923c2.98-1.716,8.722,3.63,20.169-2.73c8.009-4.449,10.36-5.533,10.627-5.181
	c0.33,0.434-2.007,1.967-1.828,4.213c0.145,1.818,1.812,2.459,2.627,3.769c2.205,3.542-1.816,11.974-7.888,16.218
	c-9.563,6.684-22.487,1.767-22.483,0.59c0.003-0.971,8.989-0.063,11.352-4.865c1.51-3.069-0.796-6.211,0.737-7.372
	c1.59-1.204,6.101,0.641,7.519,3.833c1.437,3.235-0.28,7.906-4.644,10.747c0,0-2.245,1.205-4.176,2.378
	c-1.103,0.67-1.892,1.236-2.016,1.323c-3.431,2.396-8.907,11.03-5.971,15.186c0.895,1.266,2.28,1.705,2.949,1.917
	c3.565,1.129,5.878-1.139,15.407-6.044c4.641-2.389,6.319-2.944,6.295-4.299c-0.04-2.247-5.717-3.68-6.295-4.547
	c-0.885-1.327-7.961,1.327-8.404,3.98c-0.972,5.829-0.212,12.667,3.981,16.807c6.013,5.938,15.013,5.108,19.461,3.538
	c2.912-1.028,5.201-2.844,6.634-3.981c2.611-2.071,2.89-3.025,2.941-3.632c0.152-1.815-1.481-3.562-2.941-4.329
	c-3.689-1.937-10.104,0.374-11.942,4.423c-1.802,3.971,1.173,8.787,5.308,15.48c0.559,0.904,1.197,1.68,2.003,2.654
	c5.741,6.935,8.612,4.423,8.612,4.423c6.945-6.526,11.795-7.522,15.038-7.077c1.095,0.151,4.526,0.812,4.939-0.147
	c0.311-0.722-1.385-1.677-1.283-3.551c0.032-0.587,0.101-1.186,0.767-2.052c4.423-5.75-0.442-2.211-0.442-7.077
	s-0.885-3.096-7.077-8.404c-6.192-5.308-13.711,12.384-12.384,13.711c1.327,1.327,3.096,15.48,14.596,18.3
	c11.5,2.819,4.865,2.488,29.634,2.046c20.909-0.374,8.407-2.323,8.527-6.38c0.034-1.169,1.057-1.903,1.646-2.466
	c4.407-4.214,3.034-14.95,0.885-15.48c-1.528-0.377-2.503,4.638-6.413,5.307c-3.302,0.565-5.14-2.578-6.413-1.769
	c-2.332,1.481,0.433,15.542,8.404,18.134c1.873,0.609,3.968,0.222,8.157-0.552c9.499-1.755,10.672-3.781,15.284-3.871
	c4.582-0.09,5.9,1.287,8.846,0c0.904-0.395,2.982-1.486,4.865-3.58c0.9-1.001,1.445-1.476,1.561-2.088
	c0.582-3.059-5.21-6.893-11.292-15.121c-7.519-10.173-5.307,7.077-2.654,10.173c2.654,3.096,0.442,5.308,7.961,7.036
	c7.519,1.728,18.576-1.286,24.768-7.036c2.177-2.022,2.424-3.243,2.273-4.106c-0.461-2.64-5.694-4.892-9.645-3.339
	c-2.191,0.861-4.745,3.191-4.57,5.676c0.367,5.221,12.592,8.498,20.346,8.214c1.086-0.04,6.454-0.591,8.381-3.163
	c0.787-1.051,0.208-2.264,4.003-5.052c7.001-5.142,0-2.654,0-12.827c0-10.173-7.519,0-7.519,0l-6.192,10.615
	c0,0,0,6.634,12.827,9.261s8.404,0.469,16.365-3.069c2.581-1.147,3.535-1.969,3.676-2.797c0.459-2.7,0.326-6.462-2.349-8.261
	c-0.969-0.651-2.996-1.571-4.275-0.737c-1.367,0.891-0.308,2.757-1.548,5.16c-1.703,3.301-5.624,3.504-5.5,5.156
	c0.058,0.773,0.926,0.837,2.92,2.363c3.229,2.47,3.062,3.913,5.16,4.644c1.593,0.554,3.638,0.401,5.16-0.516
	c2.324-1.4,2.1-3.779,3.833-4.128c1.618-0.326,2.228,1.664,4.275,1.622c2.649-0.054,4.548-3.446,5.013-4.275
	c0.448-0.8,1.104-2.234,1.245-4.065c0.049-0.638-0.65-1.726-0.361-3.896c0.885-6.634-10.173,0.885-2.654,2.533
	c7.519,1.648,8.846,6.313,23.442,0c14.596-6.313,5.308-14.475,3.096-18.897c-2.211-4.423-8.404,5.75,0.442,8.846
	c1.081,0.378,2.004,0.625,2.81,0.748c5.789,0.884,5.564-4.591,14.882-13.132c10.615-9.73,4.423-13.269,4.423-21.23
	s-12.827-3.981-12.827-3.981c-4.309,0.888-7.609,3.978-8.404,7.813c-0.895,4.323,1.417,11.184,4.865,10.321
	c1.769-0.442,7.961-5.307,7.519-8.404c-0.418-2.929-12.091-1.424-14.596,3.539c-1.652,3.271,1.163,6.37-1.106,9.509
	c-1.293,1.789-2.411,1.064-6.227,3.76c-2.385,1.685-4.679,3.351-5.494,6.192c-0.149,0.518-1.149,4.006,0.885,5.676
	c1.232,1.011,3.335,1.156,4.41,0.203c1.913-1.696-0.266-6.125-0.469-6.536c-0.889-1.807-2.112-2.906-2.614-3.323
	c-2.954-2.459-6.47-2.585-8.404-2.654c-0.924-0.033-7.413-0.169-12.811,4.354c-1.61,1.349-3.906,3.272-3.48,5.45
	c0.292,1.491,1.783,2.707,3.243,2.875c2.552,0.293,4.962-2.618,5.16-5.086c0.339-4.226-5.802-7.16-6.708-7.593
	c-6.078-2.904-12.004-0.511-13.269,0c-1.105,0.447-6.894,2.785-6.634,5.75c0.166,1.897,2.796,3.938,4.939,3.538
	c0.175-0.032,1.323-0.246,1.8-1.156c0.93-1.774-1.577-4.507-1.727-4.668c-3.145-3.359-8.871-2.333-9.878-2.138
	c-1.67-0.692-6.873-2.591-12.384-0.442c-5.001,1.95-9.814,7.061-8.699,10.025c0.765,2.033,4.329,3.091,6.929,2.359
	c1.518-0.427,3.212-1.608,3.096-2.58c-0.109-0.913-1.738-1.013-2.138-2.359c-0.261-0.88,0.214-1.577,0.369-2.138
	c0.725-2.639-4.006-8.321-9.288-8.846c-6.216-0.618-9.756,7.095-12.827,9.288c-3.096,2.211-7.519,14.153-3.981,14.84
	c3.538,0.687,1.769-3.34,4.423-6.878c0.566-0.755,0.73-1.368,0.628-1.885c-0.341-1.734-2.673-2.485-5.051-3.865
	c-4.666-2.709-4.14-5.153-6.856-6.192c-6.853-2.622-18.24,9.55-17.618,13.995c0.102,0.73,0.43,1.455,1.032,2.166
	c1.844,2.179,2.825,2.842,3.352,2.618c1.36-0.578,2.039-4.725,1.513-8.164c-0.954-6.239-6.112-12.587-13.269-15.038
	c-6.465-2.214-13.813-0.991-19.019,3.096c-4.104,3.222-7.824,8.994-7.077,14.596c0.885,6.635,3.981,0.885,16.365-7.459
	c12.384-8.344-2.654-15.982-5.75-24.828c-0.705-2.013-1.883-4.037-2.93-3.93c-1.665,0.17-0.604,5.68-3.815,9.496
	c-4.514,5.365-12.837,1.876-14.927,6.376c-0.997,2.146,0.773,3.204,0.442,10.615c-0.03,0.664-0.123,2.213,0.31,2.271
	c0.276,0.036,0.909-3.083,3.671-4.925c3.981-2.654-0.885-2.211-0.885-6.192c0-3.083-0.265-2.982-0.591-3.808
	c-0.222-0.564-0.275-0.986-0.294-1.057c-0.354-1.313-15.421-0.584-20.788,4.865c-0.61,0.62-1.907,1.974-1.88,3.796
	c0.003,0.236,0.026,1.727,0.995,2.396c1.592,1.098,4.468-0.913,4.92-1.196c1.895-1.186,3.351-3.392,4.368-7.207
	c0.282-1.057,0.474-2.126,0.598-3.175c0.653-5.535-0.598-10.536-0.598-10.536c-0.59-5.105-3.841-9.121-7.961-10.069
	c-5.026-1.156-9.051,2.78-10.173,3.877c-4.907,4.798-6.663,13.531-3.538,16.365c3.309,3.001,8.685-3.7,21.873-4.284
	c10.547-0.468,17.113,3.374,20.035-0.323c2.191-2.772,0.829-7.877,4.202-9.841c0.618-0.36,1.92-0.92,2.985-2.359
	c0.203-0.275,1.157-1.473,1.233-2.739c0.299-4.996-9.661-9.162-12.29-11.415c-3.096-2.654-6.192,0.442-11.5,2.211
	c-5.308,1.769-11.057,9.288,4.865,11.057c14.744,1.638,7.113,0.243,18.942-4.187c0.946-0.354,2.016-0.728,3.232-1.121
	c5.5-1.777,8.181-2.87,8.951-4.694c0.855-2.026-0.958-3.016-0.165-6.363c0.564-2.379,1.916-2.139,1.87-4.194
	c-0.049-2.21-2.169-3.568-1.87-7.748c0.442-6.192-3.096-3.539-6.634,0c-0.945,0.945-1.824,2.307-2.112,4.008
	c-1.096,6.475,8.863,14.669,11.105,15.896c0.375,0.205,1.901,0.919,2.696,2.533c0.524,1.064-0.497,0.844,6.444,1.447
	c7.325,0.637,5.477,0.127,6.015-2.189c0.331-1.426,1.177-1.594,2.389-3.561c0.826-1.34,1.251-2.03,0.995-2.506
	c-0.598-1.115-4.001,0.654-5.308-0.663c-1.716-1.73,1.866-7.089,0.774-7.888c-0.718-0.526-3.102,1.183-4.865,3.096
	c-1.757,1.907-5.065,6.37-5.308,15.038c-0.344,0.593-3.492,6.224-0.885,11.5c0.328,0.664,1.4,2.765,3.716,4.121
	c2.043,1.197,2.774,0.478,7.912,1.186c4.567,0.63,6.393,1.418,8.052,0.277c1.178-0.81,0.895-2.578,5.531-4.258
	c8.166-2.959,2.654-3.98,3.096-6.634c0.442-2.654-2.654-4.865-3.981-6.634c-1.327-1.769-5.75-1.327-5.75-1.327l-6.634,1.769
	c0,0-1.769,7.961,3.096,13.269c4.865,5.308,0.885,4.423,10.615,12.802c6.472,5.573,4.921,4.33,7.322,1.832
	c1.904-1.982,3.258-1.742,8.158-4.019c2.352-1.093,4.534-2.128,6.793-4.199c1.643-1.506,1.293-1.696,2.937-3.32
	c4.092-4.04,7.522-4.113,7.724-6.326c0.11-1.211-0.798-2.488-1.799-3.054c-2.534-1.434-5.561,1.749-7.253,0.571
	c-1.872-1.303,0.693-5.995-0.885-7.126c-1.78-1.276-7.838,2.688-10.504,8.121c-1.611,3.283-1.371,5.855-1.216,6.855
	c0.153,0.993,0.564,3.657,1.99,4.054c2.017,0.562,3.557-4.11,6.413-3.944c2.387,0.139,2.452,3.468,5.971,4.386
	c1.803,0.471,3.764,0.114,5.276-0.162c1.196-0.218,1.21-0.349,3.404-0.884c2.816-0.686,3.094-0.543,4.871-1.031
	c2.74-0.753,4.11-1.13,5.026-2.309c1.099-1.414,1.682-3.975,0.332-5.529c-0.895-1.03-2.379-1.317-3.538-1.106
	c-1.546,0.282-2.435,1.436-2.985,2.175c-1.878,2.517-3.093,7.246-0.885,10.173c2.469,3.273,7.781,2.388,11.5,1.769
	c7.563-1.259,15.333-6.068,14.817-9.472c-0.232-1.531-1.915-1.291-3.981-4.202c-2.524-3.556-1.751-6.363-3.538-6.966
	c-1.614-0.545-3.833,1.209-4.865,2.875c-1.14,1.839-0.956,3.766-0.884,4.423c0.33,3.017,2.139,3.576,4.644,8.035
	c2.127,3.787,1.622,4.804,3.096,5.75c3.274,2.1,8.628-0.943,9.288-1.327c5.979-3.476,6.047-8.882,8.772-8.846
	c3.743,0.049,4.173,10.253,11.131,12.384c2.064,0.632,4.553,0.508,4.967-0.406c0.549-1.212-2.88-3.08-2.387-4.901
	c0.504-1.862,4.416-1.121,5.75-3.465c1.161-2.041-0.014-5.75-2.138-6.708c-3.3-1.489-8.371,3.892-9.288,4.865
	c-3.977,4.22-3.681,7.301-6.192,7.961c-2.963,0.779-7.596-2.405-8.993-6.487c-2.67-7.801,8.054-15.786,5.455-19.166
	c-1.53-1.99-6.831-1.281-7.814,0.737c-0.862,1.769,2.041,3.628,1.474,7.003c-0.357,2.122-1.989,4.268-3.391,4.202
	c-1.864-0.088-3.172-4.079-3.538-6.634c-0.298-2.075,0.112-2.599,0-3.981c-0.49-6.067-9.264-6.858-11.5-14.154
	c-0.253-0.825-1.216-3.968,0.442-6.634c1.198-1.926,3.766-3.61,6.561-3.105c3.048,0.55,4.403,3.348,4.496,3.547
	c1.592,3.43-0.601,7.378-2.654,9.288c-0.18,0.167-2.927,2.654-6.634,2.654h0c-3.186,0-5.059-2.226-6.676-3.248
	c-2.929-1.849-7.772-1.483-10.407,0.796c-2.731,2.362-3.778,7.374-1.769,9.178c1.676,1.505,5.498,0.792,7.243-1.271
	c2.995-3.542,0.312-11.583-4.755-14.743c-1.911-1.191-5.449-2.493-7.298-1.013c-2.087,1.669,0.268,5.049-1.769,8.348
	c-2.44,3.95-8.849,4.012-11.334,4.036c-1.95,0.019-9.107,0.087-10.118-3.262c-0.834-2.765,2.748-7.103,5.529-6.911
	c2.549,0.176,2.84,4.05,5.805,4.533c2.537,0.414,6.097-1.807,6.8-5.289c0.538-2.662-0.735-5.356-2.654-6.634
	c-2.831-1.887-6.655-0.425-8.404,0c-12.878,3.125-32.268-21.166-41.797-37.005c-3.898-6.479-7.866-13.075-10.615-23
	c-2.126-7.674-6.622-25.082,2.211-42.46c2.13-4.191,9.706-19.095,24.112-22.75c20.869-5.295,46.703,2.055,48.819,13.862
	c1.707,9.524-11.926,23.466-22.545,21.792c-8.027-1.266-12.469-11.161-15-17c-11.483-26.491-0.799-47.967,1-95
	c0.444-11.608,0.199-20.906,0-26"/>
<g>
	<line id="Line_23" class="st1" x1="214.261" y1="55.136" x2="210.761" y2="801.136"/>
	<g id="Path_153" transform="translate(3.5)">
		<path class="st2" d="M210.761,52.636c-3.039,0-5.985-0.595-8.757-1.767c-2.679-1.133-5.085-2.756-7.153-4.823
			c-2.067-2.067-3.69-4.474-4.823-7.153c-1.173-2.772-1.767-5.719-1.767-8.757s0.595-5.985,1.767-8.757
			c1.133-2.679,2.756-5.085,4.823-7.153c2.067-2.067,4.474-3.69,7.153-4.823c2.772-1.173,5.719-1.767,8.757-1.767
			c3.039,0,5.985,0.595,8.757,1.767c2.679,1.133,5.085,2.756,7.153,4.823c2.067,2.067,3.69,4.474,4.823,7.153
			c1.173,2.772,1.767,5.719,1.767,8.757s-0.595,5.985-1.767,8.757c-1.133,2.679-2.756,5.085-4.823,7.153
			c-2.067,2.067-4.474,3.69-7.153,4.823C216.746,52.041,213.799,52.636,210.761,52.636z"/>
		<path class="st3" d="M210.761,10.136c-5.342,0-10.365,2.08-14.142,5.858c-3.777,3.778-5.858,8.8-5.858,14.142
			s2.08,10.365,5.858,14.142c3.778,3.777,8.8,5.858,14.142,5.858c5.342,0,10.365-2.08,14.142-5.858
			c3.777-3.778,5.858-8.8,5.858-14.142s-2.08-10.365-5.858-14.142S216.103,10.136,210.761,10.136 M210.761,5.136
			c13.807,0,25,11.193,25,25s-11.193,25-25,25c-13.807,0-25-11.193-25-25S196.954,5.136,210.761,5.136z"/>
	</g>
	<line id="Line_24" class="st1" x1="214.261" y1="833.383" x2="214.261" y2="1669.383"/>
	<line id="Line_25" class="st1" x1="214.261" y1="1624.386" x2="214.261" y2="2406"/>
	<g id="Ellipse_44" transform="translate(3.5 778.247)">
		<circle class="st2" cx="210.761" cy="30.136" r="25"/>
		<circle class="st1" cx="210.761" cy="30.136" r="22.5"/>
	</g>
	<g id="Path_172" transform="translate(0 1594.25)">
		<path class="st4" d="M210.761,52.636c-3.039,0-5.985-0.595-8.757-1.767c-2.679-1.133-5.085-2.756-7.153-4.823
			c-2.067-2.067-3.69-4.474-4.823-7.153c-1.173-2.772-1.767-5.719-1.767-8.757s0.595-5.985,1.767-8.757
			c1.133-2.679,2.756-5.085,4.823-7.153c2.067-2.067,4.474-3.69,7.153-4.823c2.772-1.173,5.719-1.767,8.757-1.767
			c3.039,0,5.985,0.595,8.757,1.767c2.679,1.133,5.085,2.756,7.153,4.823c2.067,2.067,3.69,4.474,4.823,7.153
			c1.173,2.772,1.767,5.719,1.767,8.757s-0.595,5.985-1.767,8.757c-1.133,2.679-2.756,5.085-4.823,7.153
			c-2.067,2.067-4.474,3.69-7.153,4.823C216.746,52.041,213.799,52.636,210.761,52.636z"/>
		<path class="st3" d="M210.761,10.136c-5.342,0-10.365,2.08-14.142,5.858c-3.777,3.778-5.858,8.8-5.858,14.142
			s2.08,10.365,5.858,14.142c3.778,3.777,8.8,5.858,14.142,5.858c5.342,0,10.365-2.08,14.142-5.858
			c3.777-3.778,5.858-8.8,5.858-14.142s-2.08-10.365-5.858-14.142S216.103,10.136,210.761,10.136 M210.761,5.136
			c13.807,0,25,11.193,25,25s-11.193,25-25,25c-13.807,0-25-11.193-25-25S196.954,5.136,210.761,5.136z"/>
	</g>
	<g id="Ellipse_63" transform="translate(3.5 3242.367)">
		<circle class="st4" cx="210.761" cy="30.136" r="25"/>
		<circle class="st1" cx="210.761" cy="30.136" r="22.5"/>
	</g>
	<g id="Ellipse_46" transform="translate(3.5 2376.253)">
		<circle class="st4" cx="210.761" cy="30.136" r="25"/>
		<circle class="st1" cx="210.761" cy="30.136" r="22.5"/>
	</g>
</g>
</svg>
