<?xml version="1.0" encoding="utf-8"?>
<!-- Generator: Adobe Illustrator 26.3.1, SVG Export Plug-In . SVG Version: 6.00 Build 0)  -->
<svg version="1.1" id="Layer_1" xmlns="http://www.w3.org/2000/svg" xmlns:xlink="http://www.w3.org/1999/xlink" x="0px" y="0px"
	 viewBox="0 0 541.348 849.565" style="enable-background:new 0 0 541.348 849.565;" xml:space="preserve">
<style type="text/css">
	.st0{fill:none;stroke:#F6A6AA;stroke-width:5;}
</style>
<path class="st0" d="M286.72,826.313c2.16-3.39,4.6-6.57,7.27-9.55c33.7-37.68,103.53-43.75,101.31-57.79
	c-0.76-4.77-8.73-3.5-14.99-12.74c-1.38-2.03-2.49-4.3-3.33-6.72c-4.97-14.22-0.95-33.89,10.07-44.25
	c3.23-3.02,9.31-6.58,21.03-13.25c1.32-15.49-4.03-22.61,2.83-35.71c5.62-10.74,16.71-20.26,21.48-17.99
	c6.12,2.92,4.82,26.65-7.3,40.77c-2.82,3.28-6.08,6.7-14.05,11.24c-1.03,0.58-2.01,1.15-2.96,1.69c-0.25,2.86-0.72,6-1.54,9.51
	c-4.29,18.45-14.61,30.13-22.49,40.47c-2.34,3.06-4.7,5.53-7.07,7.52c-9.79,8.22-19.7,8.22-28.15,8.22
	c-10.49,0-14.99,2.99-14.99,2.99c-15.64,8.09-16.11,8.31-16.11,8.31c-2.92,1.36-6.06,2.29-12.26,2.16
	c-6.68-0.11-16.91-1.45-34.21-4.78c-32.4-6.23-38.65-9.63-41.97-11.62c-7.3-4.39-21.06-12.65-21.36-24.04
	c-0.26-9.97,7.51-14.34,9-23.99c1.04-6.83-6-12.18-10.32-14.77c-1.84-1.11-3.18-1.71-3.18-1.71c-5.02-1.36-11.22-3.33-18.11-6.25
	c-8.55-3.62-14.96-7.33-18.48-9.49c-13.65-8.38-24.15-14.82-30.73-27.23c-2.05-3.87-5.7-10.75-5.52-19.99
	c0.31-16.88,13.14-28.96,22.92-34.95c4.9-3,9.03-4.47,10.45-4.27c0.05,0.01,0.1,0.01,0.1,0.01c0.91,0.14,6.03,1.01,6.65,3.74
	c0.5,2.19-2.03,5.12-4.75,5.99c-4.26,1.36-9.08-2.3-12.45-5.47c-0.99-0.93-1.85-1.81-2.54-2.52c-2.54-2.62-8.61-9.49-12.49-22.86
	c-3.68-12.69-4.1-26.79-1.75-27.36c0.97-0.23,1.71,1.97,7,10.12c4.57,7.05,7.15,10.99,11.11,14.87c0.91,0.88,4.31,4.53,9.62,7.24
	c5.52,2.82,16.74,7.49,30.73,6c2.2-0.24,6.83-0.88,12.14-2.95c1.52-3.95,1.89-6.9,4.22-12.79c3.21-8.09,4.92-8.62,5.5-8.75
	c2.95-0.64,6.94,2.38,7.49,5.75c0.61,3.67-3.03,6.78-5.99,9.24c-3.68,3.06-7.61,5.13-11.22,6.55c-0.43,1.12-0.96,2.32-1.65,3.7
	c-1.28,2.55-1.71,2.92-2.99,5.24c-1.6,2.9-10.76,19.51-5.13,34.48c1.62,4.29,2.67,3.7,3.63,7.49c1.9,7.51-1.71,12.13-3,20.99
	c-0.3,2.03-1.5,10.24,0.75,17.98c4.34,14.98,18.82,18.8,17.24,24.03c-0.77,2.53-4.5,2.76-9.57,3.17
	c-6.44,0.51-15.05,1.31-22.47,7.51c-2,1.67-3.27,3.2-4.32,4.62c-2.14,2.92-3.33,5.43-7.86,7.89c-5.24,2.84-16.36,6.39-23.05,0.05
	c-4.91-4.66-6.53-13.8-2.43-18.79c4.6-5.6,14.73-3.9,20.42-1.45c5.65,2.43,9.75,6.81,12.92,12.3c4.27,7.35,6.88,16.67,9.38,25.88
	c7.95,29.3,1.7,38.12,10.49,46.46c4.45,4.23,8.89,4.66,44.59,4.73c42.67,0.09,47.6-0.51,54.34-4.73c2.54-1.59,4.81-3.36,6.85-5.27
	c8.95-8.34,13.52-19.15,17.13-27.7c3.54-8.4,6.33-15.26,3-20.24c-1.12-1.68-2.83-2.98-4.85-3.92c-3.31,9.4-9.78,16.86-14.08,16.33
	c-4.34-0.53-8.3-9.46-5.81-13.91c2.61-4.66,13.02-5.65,19.89-2.42c2.07-5.92,2.89-12.62,1.1-18.56c-2.78-9.2-9.95-10.49-10.49-16.63
	c-0.59-6.58,6.64-16.62,43.09-31.34c-4.59-0.43-8.69-0.95-12.37-1.52c-6.08,3.41-13.86,6.85-23.23,9.02
	c-13.31,3.07-23.87,2.19-35.97,1.17c-9.39-0.79-22.26-2.63-37.23-7.17c10.34-2.71,18.56-5.32,24.3-7.26
	c4.1-1.39,7.42-3.56,12.18-3.23c6.04,0.42,10.7,4.08,13.61,6.99c2.75-2.46,7.15-5.6,12.99-6.37c5.42-0.71,9.7,0.93,11.62,1.63
	c4.82,1.74,11.69,3.67,21.73,5.22c3.24-1.82,6-3.63,8.25-5.22c-1.99-1-4.99-2.53-8.62-4.45c-7.42-3.93-8.44-4.71-11.43-6.19
	c-8.22-4.08-13.34-6.61-18.92-5.85c-8.52,1.16-13.86,9.43-15.74,12.74c-6.06-8.3-11.71-10.64-15.74-11.24
	c-11.31-1.68-18.36,6.88-34.23,11.24c-6.79,1.87-16.84,3.32-30.22,0.81c14-0.93,23.96-4.41,30.54-7.49
	c18.82-8.82,22.25-10.67,22.25-10.67c5.88-3.18,8.99-5.17,13.28-4.76c6.95,0.66,11.73,7.11,13.99,10.74
	c5.16-5.75,12.06-11.33,19.74-10.74c2.78,0.22,4.71,0.97,15.86,7.62c15.85,9.46,17.85,11.3,23.17,13.24
	c4.52,1.65,11.34,3.35,20.61,2.81c-11.81-24.6-17.74-47.02-8.05-58.52c14.02-16.65,53.8-2.1,59.2-14.99
	c2.14-5.08-2.37-11.33-7.5-17.89c-6.35-8.12-13.66-16.7-10.48-24.08c2.97-6.9,14.21-10.63,17.98-7.49
	c4.42,3.67,1.62,19.25-7.5,31.57c-3.22,4.34-7.23,8.28-11.98,11.15c-10.48,6.32-21.33,5.46-33.73,4.49
	c-7.73-0.6-23.39-2.57-38.22-12.74c-2.1-1.44-4.56-3.13-6.73-5.01c-3.44-2.96-6.17-6.4-5.64-10.1c0.61-4.19,5.41-8.68,9.75-7.87
	c3.62,0.67,6.7,4.99,6.37,8.74c-0.4,4.42-5.33,5.77-10.48,9.23c-2.34,1.57-4.73,3.58-6.76,6.51c-5.16,7.45-1.29,11.17-5.25,17.99
	c-7.49,12.91-30.89,15.99-47.96,11.24c-10.7-2.98-18.18-8.83-22.49-12.87c-13.9-19.96-15.07-27.27-12.74-29.85
	c6.34-7.02,40.06,19.22,49.91,9.89c3.18-3.02,1.97-7.97-1.19-30.12c-1.17-8.15-2.07-16.34-3.14-24.5c-1.25-9.66-1.25-8.45-1.36-9.73
	c-0.46-5.23-0.3-10.07,0.15-14.64c1.22-12.33,4.53-22.58,3.22-32.58c-0.38-2.94-0.62-4.77-1.24-6.49c-0.03-0.08-0.06-0.15-0.09-0.23
	c-2.51-6.62-7.62-9.68-6.91-10.76c0.59-0.9,3.83,1.5,9.24,1.75c5.84,0.26,9.47-2.19,10-1.25c0.57,1.02-3.43,4.51-6.5,6.74
	c-2.39,1.74-4.27,2.74-5.83,3.52c-2.43,1.2-4.08,1.83-5.66,3.73c-3.12,3.74-2.47,8.19-2.75,11.74c-0.43,5.55-3.45,12.92-14.25,21.55
	c-1.5,1.21-3.16,2.43-4.98,3.68c1.9-0.1,3.8-0.21,5.7-0.31c6.68-0.37,13.37-0.73,20.05-1.09c2.6-0.15,5.2-0.29,7.8-0.43
	c28.58-1.56,57.15-3.11,85.73-4.67c1.06,4.25,2.82,13.88-1.49,23.99c-6.97,16.32-25.04,22.8-38.23,23.23
	c-3.04,0.1-21.8,0.37-35.22-14.99c-8.47-9.69-10.47-20.64-10.79-27.56c-0.15-3.27,0.07-5.63,0.17-6.54
	c52.07,1.58,79.43-2.94,94.93-7.99c2.11-0.69,18.28-6.04,38.6-4.38c10.77,0.89,16.49,3.23,20.24,5.25
	c11.14,6.02,16.74,15.65,19.11,20.49c0.32-2.69,0.88-6.39,1.87-10.75c0.57-2.53,1.16-5.09,2.25-8.24c2.04-5.87,3.12-9.01,5.99-11.99
	c4.46-4.63,10.1-5.67,12-6c2.81-0.48,8.4-1.43,12.74,1.5c6.29,4.26,6.94,14.67,5.24,21.74c-1.93,8.05-5.9,7.48-13.49,22.48
	c-3.28,6.48-4.85,11.09-4.49,16.49c0.26,3.94,1.37,7.04,2.24,8.99c1.63,2.22,8.4,11.93,5.25,21.99c-0.55,1.77-1.59,4.11-2.94,6.11
	c-1.64,2.42-3.74,4.33-6.05,4.13c-3.12-0.27-4.98-3.95-5.25-4.5c-1.42-2.92-1.59-7.4,0.75-8.99c1.82-1.24,4.79-0.48,6.74,0.75
	c1.49,0.93,2.65,2.29,3.81,8.61c0.71,3.89,1.41,9.67,2.19,18.37c0.37,4.16,0.64,7.69-0.75,11.99c-0.8,2.47-2.61,8.07-6.74,8.99
	c-3.14,0.7-6.19-1.61-9-3.74c-0.95-0.73-3.09-2.47-5.06-5.38c-2.33-3.43-3.15-6.64-3.56-8.24c-1.51-6.02-3.34-22.11-4.31-43.66
	c-2.65,4.1-3.97,7.74-4.68,10.31c-1.68,6.09-1.42,11.53-0.94,21.73c0.12,2.39,0.25,4.01,0.38,5.25c0.2,1.99,0.67,6.09,1.87,11.43
	c0.85,3.8,1.8,8.02,3.56,12.3c2.23,5.42,5.46,13.28,13.49,17.99c1.74,1.02,9.83,5.76,18.93,2.87c6.67-2.11,10.24-7.18,12.17-9.93
	c6.82-9.67,6.39-20.5,6.19-24.35c-0.73-13.62-7.59-27.12-9.56-30.8c-2.25-4.2-4.91-8.29-4.87-14.36c0.02-3.62,0.99-5.68,3.37-11.87
	c6.46-16.78,5.05-16.52,8.25-22.48c5.61-10.48,8.55-8.65,11.24-15.74c5.18-13.64-2.89-27.77-3.75-29.23
	c-1.79-3.03-8.99-14.19-23.23-17.23c-2.41-0.52-19.64-3.91-30.54,8.3c-7.46,8.35-7.25,18.73-7.12,21.36
	c-1.63-1.12-3.79-2.96-5.25-5.81c-3.39-6.61-0.15-13.14,2.97-26.18c1.45-6.08,3.24-13.56,3.59-21.97
	c0.54-13.17-2.55-26.37-5.25-26.42c-3.77-0.06-1.1,25.71-17.16,37.34c-0.73,0.53-5.07,2.89-13.75,7.63
	c-8.11,4.42-15.57,8.41-17.05,9.18c-1.73,0.9-4.06,1.96-7.22,3.06c-0.03,0.08-0.07,0.17-0.11,0.25c-8.04,7.4-15.04,13.31-20.4,17.67
	c-5.79,4.72-8.94,7.03-13.49,9c-6.65,2.87-12.78,3.49-16.87,3.56c-4.05-1.56-8.69-3.79-13.49-7c-12.05-8.06-18.9-18.24-22.48-24.73
	c11.87,3.46,23.73,6.91,35.6,10.37c-2.69,1.29-3.7,2.9-4.12,3.87c-2.53,5.79,3.79,16.03,10.49,15.74
	c6.34-0.27,12.31-9.93,9.18-16.24c-2.17-4.37-7.79-5.31-8.62-5.43c22.7-1.19,36.22-4.25,44.31-7.06c1.3-2.87,2.82-7.04,3.47-12.24
	c0.6-4.77,2.23-17.85-4.5-23.05c-5.73-4.43-11.55,1.6-21.54-3.74c-2.44-1.31-7.1-3.81-8.81-8.69c-1.33-3.81,0.35-5.63-1.31-9.3
	c-1.43-3.16-4.86-6.63-9.18-6.93c-5.7-0.41-10.26,4.89-11.99,8.74c0,0,0,0-0.01,0c-0.23,0.53-5.16,11.14-13.53,14.48
	c-3.52,1.4-5.09,0.25-11.2,0.51c-15.87,0.67-17.47,5.54-26.23,4.5c-10.52-1.26-11.91-8.72-22.48-13.49
	c-7.23-3.27-18.67-5.23-36.72,1.49c-9.04,2.06-21.83,6.6-32.98,17.24c-14.4,13.75-24.38,36.07-21.34,50.46
	c0.55,2.61,1.53,4.95,2.98,6.94c5.36,7.34,12.74,8.99,12.74,8.99c4.63,1.04,7.47-0.35,13.68,0.75c4.67,0.83,8.28,2.54,10.55,3.81
	c-11.4,2.76-19.2,4.63-23.86,5.75c-11.22,2.68-16.76,3.98-19.8,4.86c-2.69,0.77-3.43,1.21-4.43,2.01c-1.3,1.02-4.21,3.56-7.24,2.87
	c-1.78-0.4-3.62-1.92-4-4c-0.47-2.54,1.44-4.82,3.25-5.74c2.87-1.47,6.18,0.12,7.49,0.75c2.13,1.02,3.68,2.43,4.93,4.11
	c3.58,4.83,4.62,11.93,9.31,18.74c7.15,10.38,19.92,15.91,30.73,16.62c12.45,0.81,21.76-4.8,26.23-7.5
	c5.55-3.34,13.81-8.32,17.99-18.73c2.8-6.99,2.65-13.66,1.83-18.55c-0.21-1.25-0.46-2.38-0.72-3.37c-0.41-1.57-0.83-2.78-1.11-3.56
	l-30.73,3.74c1.59-3.22,2.02-6.52,1.53-9.35c-0.08,0.08-0.15,0.16-0.23,0.24c-0.11,0.37-1.71,5.52-6.55,6.86
	c-4.24,1.18-9.82-0.9-10.86-5.18c-0.91-3.71,1.98-7.51,5.24-8.99c2.92-1.32,6.33-0.88,8.62,0.68c1.97,1.34,3.3,3.64,3.78,6.39
	c7.98-8.37,15.97-16.75,23.95-25.12c-7.47,4.76-19.48,11.14-35.45,14.65c-16.41,3.6-30.48,2.74-39.85,1.33
	c-1.07-0.15-2.08-0.32-3.02-0.49c-0.94,2.85-5.06,14.17-16.74,19.98c-7.96,3.97-19.19,5.25-27.37,0.46
	c-0.64-0.36-1.25-0.77-1.85-1.21c-3.47-2.58-8.46-8.12-7-12.74c0.75-2.35,3.33-4.97,6-4.5c2.42,0.44,4.51,3.35,4.24,7
	c-0.12,2.73-0.44,6.85-1.39,11.45c-1.18,5.63-3.31,11.96-7.23,17.28c-3.52,4.78-6.24,5.73-7.49,5.99c-4.8,1.03-6.96-2.4-11.99-2.24
	c-2.43,0.07-4.85,0.99-6.98,2.35c0.07,0.21,0.15,0.42,0.23,0.64c1.32,3.47,2.28,3.86,2.63,5.75c0.43,2.33-0.27,5.8-2.63,7
	c-2.51,1.27-6.56-0.21-7.37-2.5c-0.97-2.77,2.39-7.9,7.14-10.89c-0.5-1.4-0.72-2.42-0.9-3.13c-0.67-2.58-2.81-10.82-8.61-13.46
	c-3.4-1.55-8.32-1.31-11.41,1.31c-4.3,3.62-3.45,10.44-2.7,16.42c0.9,7.25,2.68,21.5,13.55,29.17c10.95,7.73,23.22,3.18,25.29,9.37
	c0.8,2.37-0.97,5.89-4.49,12.93c-2.92,5.82-4.46,6.67-5.65,6.97c-2.77,0.7-5.81-1.06-7.47-3.04c-1.87-2.23-1.99-4.75-2-5.43
	c-0.01-0.61,0.01-4.85,3.5-7.12c1.76-1.14,4.86-2.09,6.74-0.75c3.31,2.35,1.58,10.85-0.77,16.34c-3.1,7.25-6.83,8.14-8.59,14.51
	c-1.25,4.51-0.65,8.61,0,11.24c0.6,2.02,3.14,9.72,8.99,11.24c6.38,1.67,12.78-5.04,17.99-10.49c4.99-5.23,7.99-10.52,9.74-14.24
	c0.39,4.97,0.4,14.3-4.5,23.99c-5.62,11.12-19.16,25.61-32.22,22.48c-10.55-2.53-16.4-15.34-17.99-23.23
	c-1.72-8.54,0.35-17.42,4.5-35.17c1.33-5.73,1.32-4.71,1.49-6.06c2.59-20.71-25.89-28.5-26.98-52.46
	c-0.45-10.07,2.36-17.95,3.75-21.73c2.95-8.03,6.21-16.88,14.99-20.99c8.2-3.83,16.4-1.28,18.11-0.75
	c7.85,2.45,12.25,7.91,16.74,13.5c4.79,5.95,7.49,11.67,8.99,15.48c1.61-11.67-0.73-19.42-3.37-24.48
	c-3.99-7.64-13.12-17.63-16.83-27.21c-0.7-1.82-1.61-4.98-0.27-7.85c1.19-2.57,3.22-2.79,5.11-4.66c3.32-3.29,4.25-9.75,2.72-15.29
	c-3.11,2.95-7.11,4.81-10.84,4.3c-3.62-0.5-8.26-3.41-8.26-7.28c0-3.47,3.72-6.48,7.26-6.96c3.93-0.53,6.96,2.16,7.62,2.75
	c2.04,1.81,3.44,4.38,4.22,7.19c2.94-2.78,5.1-6.54,5.52-10.19c0.62-5.38-1.41-8-3.74-14.99c-0.5-1.5-0.78-2.34-1.08-2.74
	c-0.39-0.52-0.82-0.33-1.82,0.05c-1.71,0.67-5.1,1.93-12.84,1.19c-4.46-0.42-6.72,0.04-8.95,0.62c-6.79,1.78-7.89,6.05-11.16,5.63
	c-4.45-0.59-3.19-8.6-9.5-14.49c-7.61-7.13-17.29-2.73-21.35-9.75c-2.26-3.9-1.19-8.56-1.12-8.83c1.21-4.94,4.97-5.33,7.11-11.4
	c1.37-3.88,0.37-5.24,2.12-7.5c2.17-2.78,5.78-3.4,8.37-3.74c15.71-2.07,23.62-3.17,29.23,2.24c4.76,4.59,9.04,14.05,4.5,21.74
	c-0.72,1.22-1.59,2.28-2.59,3.19c-4.47,4.14-11.31,5.27-16.77,3.8c-7.7-2.06-14.46-9.76-12.87-14.49c1.7-5.03,13.15-7.45,20.99-2.99
	c5.97,3.39,7.98,9.71,8.65,13.68c0.34,1.98,0.34,3.38,0.34,3.55c0.11,1.26,1.17,11.39,8.99,15.74c2.22,1.23,4.53,1.76,6.85,1.81
	c0.6,0.02,1.21,0,1.82-0.05c4.76-0.34,9.41-2.39,13.07-4.01c1.41-0.62,3.49-1.36,5.08-3.28c0.66-0.79,1.44-1.54,2.14-2.35
	c-2.88-0.58-5.68-1.66-8.19-3.44c-1.38-0.98-4.93-3.51-6.53-8.16c-0.27-0.8-2.92-8.52,1.5-11.99c4.07-3.2,11.43-0.71,12.93,2.87
	c1.11,2.64-1.72,4.13-1.12,8.62c0.59,4.45,3.69,5.32,3.18,8.74c-0.2,1.32-0.92,2.39-1.77,3.36c10.06,2.05,20.95-1.93,22.76-2.61
	c5.66-1.51,9.56-4.99,11.24-8.61c-2.41-0.25-4.71-0.94-6.93-2.19c-3.24-1.82-7.42-5.43-6.67-7.94c0.53-1.78,3.39-2.51,5.17-2.56
	c4.23-0.11,8.3,3.48,9.18,7.06c0.42,1.74,0.15,3.7-0.75,5.63c6.24,0.69,13.23-1.49,21.73-4.13c1.76-0.55,3.45-1.16,4.74-2.73
	c2.87-3.49,0.35-7.48,2.76-9.95c2.33-2.39,8.05-2.09,10.85,0.63c2.78,2.71,0.91,6.12,3.39,9.11c2.93,3.53,9.01,2.96,12.55,2.63
	c7.44-0.7,11.32-3.77,24.92-7.68c2.16-0.63,5.26-1.47,7.1,0.1c2.42,2.05,1.02,6.87,2.27,7.2c1.4,0.37,2.81-5.76,7.87-7.55
	c0.63-0.23,1.96-0.61,3.59-0.46c3.7,0.35,4.55,3.09,7.46,4.45c5.24,2.46,9.93-2.89,14.48-1.47c0.33,0.1,0.65,0.24,0.98,0.42
	c2.81,1.53,3.63,5.03,3.87,6.05c0.72,3.07-0.09,5.65-1.22,7.98c0.17,0.06,0.31,0.1,0.44,0.14c10.9,3.35,19.09-6.03,23.87-2.53
	c4.28,3.13,1.36,13.27,1.05,14.33c-2.99,10.41-12.89,18.09-16.3,16.3c-2.25-1.17,0.17-5.5-3.18-10.68c-3.24-5-7.35-3.82-8.81-7.55
	c-1.31-3.36,1.19-6.39,2.93-10.01c-1.72-0.55-5.36-1.92-6.49-5.11c-0.73-2.05-0.12-3.99,0.2-5c0.55-1.73,1.49-3.13,2.66-4.34
	c1.49-1.55,3.35-2.79,5.2-4.02c3.5-2.34,5.18-3.77,13.57-2.86c2.37,0.25,5.28,0.7,8.91,1.36c16.49,3,2.25,8.99-0.75,11.24
	s-8.99-5.25-8.99-9.74c0-1.14,0.33-2.08,0.83-2.86c1.48-2.3,4.41-3.14,4.41-3.14s21.74-3.75,31.48,0.75s-3,6-9.74,7.49
	c-6.75,1.5-4.5,14.99-4.5,14.99s17.24,6.75,32.98,3.75c2.54-0.48,5.79-1.58,6.06-3.4c0.5-3.33-9.66-5.3-9.81-10.09
	c-0.13-4.04,6.91-8.51,11.24-8.99c0.69-0.08,2.42-0.19,5.04-0.62c3.01-0.49,3.6-0.88,8.45-0.88c3.39,0,8.67,1.13,12.99,4.06
	c4.28,2.91,7.62,7.59,7.25,14.68c-0.04,0.72-0.18,4.07-2.54,6.93c-3.83,4.63-12.03,6.25-15.45,2.81
	c-3.97-3.99,0.34-12.94,0.94-14.18c2.58-5.36,6.8-8.47,9.8-10.24c0.85-0.49,1.6-0.89,2.19-1.19c1.13-0.59,5.56-2.85,11.16-3.67
	c4.45-0.67,9.65-0.41,14.51,2.36c1.46,0.83,8.77,4.99,8.98,11.06c0.16,4.72-4.07,7.42-6.02,11.21c4.37,0.55,6.83-0.29,9.4,1.71
	c1.87,1.46,3.67,4.31,2.81,6.75c-1.01,2.89-5.39,4.15-8.43,3c-2.79-1.06-4.37-4.13-4.68-6.75c-0.21-1.81,0.19-3.33,0.9-4.71
	c-0.35-0.04-0.71-0.1-1.09-0.16c-3.84-0.65-7.91-2.27-10.3-4.12c-5.33-4.14-7.37-13.44-6.08-20.35c0.59-3.25,1.93-5.97,4.01-7.38
	c6.3-4.27,16.07,5.78,22.68,0.93c5.19-3.8,2.34-12.35,7.87-15.17c4.33-2.22,10.04,1.03,10.86,1.5c5.69,3.24,6.28,8.23,8.68,13.72
	c1.22,2.78,2.9,5.69,5.94,8.57c6.2,5.86,10.35,4.28,12.62,9.42c2.86,6.48-0.24,17-6.81,19.19c-4.36,1.45-8.89-1.2-9.94-1.81
	c-4.04-2.37-5.8-5.96-6.62-7.71c-3.23-6.81-4.35-19.31,4-26.96c0.27-0.24,0.54-0.48,0.81-0.7c10.18-8.32,26.35-4.02,31.61,3.7
	c5.58,8.21-3.14,17.43,2.43,24.73c6.05,7.93,25.43,8.99,32.42-1c3.85-5.51,4.79-15.62-1.05-20.19c-0.65-0.51-1.34-0.92-2.07-1.23
	c0.21,5.3-0.68,11-4.56,14.29c-3.1,2.63-8.89,4.37-12.19,1.76c-2.32-1.83-2.95-5.46-2.24-8.24c0.77-3.05,3.06-4.73,4.31-5.62
	c3.64-2.6,9.86-4.33,14.68-2.19c-0.24-6.2-1.98-11.83-2.13-12.3c-3.45-10.78-9.64-15.38-13.78-20.56c-2.34-2.91-4.02-6-4.21-10.48
	c-0.41-9.75,6.53-19.68,10.49-19.18c3.66,0.47,7.71,10.19,5.25,17.99c-1.77,5.61-6.5,8.98-11.53,11.67
	c-3.62,1.95-7.39,3.54-10.3,5.38c2.8,1.09,4.79,2.26,5.34,4.69c0.97,4.23-3.03,9.78-5.81,9.61c-2.2-0.12-4.8-3.9-4.68-7.37
	c0.1-2.97,2.18-5.07,5.15-6.93c-4.32-1.69-10.55-3.19-16.39-8.8c-1.19-1.14-2.38-2.47-3.47-3.89c-3.68-4.82-6.28-10.76-4.21-14.6
	c1.45-2.71,5.37-4.65,7.99-3.51c3.19,1.4,3.12,6.8,3.11,7.6c-0.07,5.37-3.88,8.97-4.92,9.9c-0.67,0.19-1.33,0.39-1.97,0.61
	c-6.37,2.13-11.13,5.39-13.53,8.87c3.81,1.03,6.6,2.53,7.82,5.2c1.53,3.35,0.34,8.07-1.5,8.8c-2.36,0.94-7.7-3.87-8.06-8.49
	c-0.14-1.81,0.48-3.69,1.74-5.51c-8.56-2.33-22.23-2.26-34.45-7.55c-1.17-0.51-2.32-1.07-3.45-1.68c-3.8-2.05-6.5-4.24-6.56-6.93
	c-0.05-2.42,2.04-4.96,4.5-5.62c2.9-0.78,6.49,1,7.87,3.37c1.68,2.87,0.17,6.73-2.36,10.86c-2.17,3.54-5.09,7.28-7.4,10.77
	c1.67,1.13,2.85,2.43,3.39,3.04c2.31,2.59,5.44,7.6,3.93,9.62c-1.54,2.06-8.46,1.62-10.49-1.69c-1.64-2.68,0.29-6.63,3.17-10.97
	c-0.55-0.38-1.16-0.73-1.81-1.04c-8.52-3.99-15.34,5.01-22.53,1.83c-2.08-0.92-3.73-2.65-4.93-4.75c-2.19-3.85-2.85-8.93-1.82-12.49
	c0.66-2.26,1.78-3.13,2.2-3.42c2.72-1.88,7.2-0.56,9.79,1.92c1.89,1.81,3.51,4.94,2.82,7.75c-0.96,3.85-6.26,7.05-12.99,6.24
	c-0.84-0.1-1.7-0.27-2.57-0.5c-8.44-1.58-15.83-1.03-21.41,0.75c9.41,2.86,17.16,7.61,18.42,13.49c0.63,2.97-0.07,7.74-3.13,10.68
	c-3.49,3.36-8.54,2.91-9.61,2.81c-9.33-0.83-17.92-11.25-16.49-17.98c0.78-3.67,4.71-7.07,10.81-9c-14.54-4.43-33.06-4.36-37.79,3
	c-1.95,3.03-0.83,6.14-3.75,8.24c-3.46,2.5-9.73,1.51-14.07-0.91c-2.49-1.39-4.35-3.26-4.67-5.21c-0.25-1.51,0.36-3.46,1.65-4.12
	c1.72-0.88,4.66,0.55,5.47,2.44c0.86,1.99-0.58,4.56-2.45,6.89c-1.19,1.48-2.55,2.85-3.6,3.91c-4.26,4.32-12.21,12.38-25.05,13.49
	c-5.47,0.48-9.65-0.5-15.48-2.5c-1.67-0.59-3.48-1.25-5.5-1.99c-10.06-3.69-18.29-6.71-18.74-12c-0.44-5.16,6.73-10.35,12.74-11.99
	c6.91-1.87,16.77-0.26,20.48,6.75c1.97,3.72,2.09,8.75,0,12.74c-1.6,3.06-4.46,4.97-8.98,6.49c-4.35,1.46-10.23,2.57-18,4
	c-12.07,2.22-18.23,3.28-24.23,0.75c-3.68-1.56-6.5-3.79-8.56-5.89c-2.1-2.13-3.42-4.13-4.05-5.1c-2.56-3.96-5.57-8.61-4-13.24
	c2.1-6.19,11.43-9.5,18.24-7c2.88,1.07,8.37,4.3,8.07,9.36c-0.29,4.84-5.67,7.5-5.95,7.63l-12.31,8.35l-8.68,5.89l-20.98-5.25
	c0,0-1.25-0.63-3.08-1.6c-3.46-1.84-8.97-4.94-11.91-7.39c-1.12-0.93-4.38-7.94-0.75-13.49c2.94-4.49,9.69-6.73,14.99-3.75
	c5.5,3.1,7.46,10.7,3.75,16.49c-1.97,3.82-4.07,6.4-6.08,8.14c-1.86,1.63-3.63,2.54-5.16,3.1c-7.97,2.88-12.71-2.89-22.61-0.5
	c-9.11,2.2-10.73,8.43-14.87,7.25c-2.39-0.69-4.53-3.54-6.04-7.33c-3.28-8.27-3.57-21.02,3.04-25.65
	c4.79-3.35,13.72-2.79,17.24,2.25c3.82,5.46-0.32,13.84-4.49,17.99c-3.96,3.94-9.69,5.79-15.79,5.41c-2.33-0.14-4.71-0.61-7.07-1.41
	c-4.63-0.31-11.35-0.91-19.49-2.25c-5.17-0.86-6.15-1.22-7.12-1.75c-1.54-0.85-2.87-2.01-3.98-3.4c-5.19-6.49-5.87-18.05-2.76-26.58
	c5.99-16.49,17.23,0,17.23,0s1.5,6.74-0.75,13.49c-2.24,6.74-11.24,12.74-11.24,12.74c-0.75,0.14-1.58,0.26-2.48,0.35
	c-2.61,0.27-5.82,0.3-9.38-0.35c-10.61-1.94-17.23-8.58-19.62-11.24c-2.05-1.52-5.73-4.58-8.43-9.22c-1.22-2.1-2.24-4.52-2.81-7.27
	c-0.6-2.92-1.7-8.24,1.5-11.99c1.75-2.04,5.07-3.98,8.15-3.03c3.67,1.14,5.2,5.81,5.22,8.78c0.04,5.27-4.66,10.55-12.06,13.51
	c-0.9,0.36-1.83,0.68-2.81,0.97c-2.33,1.06-6.62,2.59-11.99,2.25c-7.74-0.49-17.11-4.85-20.23-12.7c-2.06-5.17-1.01-10.83,1.4-15.87
	c4.29-9,12.89-16.04,15.83-14.9c3.32,1.29,3.58,14.52-2.24,17.99c-4.21,2.5-10.19-0.9-11.25-1.5c-0.81-0.46-1.6-0.99-2.34-1.59
	c-7.17-5.69-11.11-16.98-7.4-25.39c2.83-6.42,9.22-9.08,17.99-12.74c5.89-2.46,9.9-4.13,14.99-3.75c6.53,0.49,12.82,4.21,17.24,8.6
	c4.68,4.62,7.3,9.99,5.99,13.14c-1.97,4.73-13.88,6.97-19.9,1.5c-2.91-2.66-5.19-7.82-3.33-11.24c2.17-4.01,9.35-4.36,17.24-3.4
	c7.27,0.87,15.14,2.87,20.23,4.14c8.99,2.25,18.74,9.75,21.73,14.24c0.22,0.33,0.39,0.69,0.52,1.08c1.64,4.9-3.51,13.91-3.51,13.91
	c-2.83,3.91-7.24,6.03-11.25,5.25c-6.97-1.36-10.35-11.08-7.73-15.46c1.67-2.82,5.77-3.34,10.11-3.53
	c2.74-0.12,7.19-0.32,12.38-0.17c11.78,0.32,27.34,2.39,35.16,11.07c1.35,1.49,2.47,3.18,3.3,5.09c0.57,1.33,3.45,8.38,0,13.53
	c-3.18,4.73-10.78,6.47-19.12,4.21c-0.7-0.53-5.12-3.95-4.87-8.74c0.09-1.63,0.51-4.15,3.75-6.75c5.24-4.2,12.17-6.31,16.94-7.34
	c3.28-0.71,5.54-0.9,5.54-0.9c5.03-0.46,9.49-0.86,13.43-1.17c13.77-1.06,21.09-0.88,23.3,2.67c4.3,6.92-2.06,22.35-9.87,23.23
	c-7.03,0.79-15.6-10.18-14.86-20.24c0.14-1.94,0.63-3.85,1.43-5.66c3.12-7.19,11.01-12.97,21.05-13.82
	c2.16,0.38,18.09,3.35,28.44,8.82c5,2.64,8.7,5.86,8.91,9.66c0.19,3.4-2.36,7.96-6.24,9.81c-4.79,2.29-11.33,0.31-12-2.31
	c-0.64-2.5,4.28-4.75,3.5-8c-0.52-2.14-2.97-2.47-3-3.99c-0.04-2.14,4.74-4.11,8.12-5c0.23-0.06,0.47-0.12,0.71-0.17
	c9.78-2.3,23.46,0.05,30.34,7.15c1.42,1.47,2.55,3.14,3.3,5.01c1.92,4.81,1.34,11.08-0.55,11.76c-1.94,0.69-6.35-4.03-6.95-9.01
	c-0.1-0.85-0.23-2.08,0.25-3.5c0.67-1.94,2.14-3.23,3.95-4.26c1.13-0.64,2.39-1.18,3.67-1.73c2.81-1.2,2.43-0.58,9.98-2.74
	c3.88-1.12,5.22-1.64,7.76-1.76c1.85-0.09,2.69,0.11,5.77,0.41c2.45,0.24,4.08,0.33,5.33,0.39c1.51,0.05,2.47,0.05,3.66,0.15
	c3.94,0.35,14.03,3.59,14.47,9.04c0.29,3.66-3.82,7.71-9.56,10.12c-5.62,0.9-10.71-1.21-12.74-5.06c-2.21-4.21,0.09-8.85,0.57-9.8
	c0.84-1.71,2.07-3.2,3.6-4.45c3.91-3.21,9.79-4.87,16.3-4.55c3.91-1.65,11.68-4.28,21.32-3c1.77,0.24,4.04,0.54,6.45,1.13
	c4.92,1.18,10.45,3.54,13.59,8.87c3.37,5.69,4.42,15.5-0.93,19.11c-4.44,2.99-12.01,0.84-15.55-3.75
	c-4.02-5.19-1.86-12.18-0.57-16.36c0.75-2.42,1.9-5.14,3.46-7.87c4.59-8.06,12.69-16.2,24.27-16.86
	c10.17-0.59,17.77,4.88,20.46,7.04c0.14,0.1,1.33,0.95,2.59,2.39c1.68,1.92,3.5,4.89,3.19,8.55c-0.56,6.56-7.62,11.94-12,10.5
	c-3.31-1.1-5.82-6.35-4.68-10.43c1.28-4.61,7.07-7.18,13.49-8.62c6.9-1.55,14.55-1.82,18.17-1.94c9.78-0.34,13.6,1.37,15.37,2.31
	c1.13,0.6,2.33,1.37,3.51,2.28c4.43,3.4,8.55,8.73,7.54,14.4c-0.76,4.31-4.54,9-8.58,8.9c-3.81-0.1-7.71-4.46-8.09-8.4
	c-0.43-4.36,3.27-9.94,9.13-14.9c10.54-8.91,28.07-15.79,41.08-9.84c3.27,1.49,6.46,3.89,9.06,6.79c4.07,4.54,6.71,10.29,5.93,15.7
	c-0.79,5.5-5.27,11.69-8.99,11.24c-3.44-0.41-5.14-6.36-5.25-6.74c-2.32-8.47,4.74-16.52,5.81-17.74c0.81-0.92,1.64-1.73,2.5-2.46
	c4.17-3.54,8.96-5.1,14.17-6.79c5.57-1.8,8.61-1.71,9.97-1.61c1.66,0.12,4.33,0.31,6.81,1.36c1.59,0.66,3.1,1.68,4.21,3.25
	c3.37,4.76,1.75,12.7-0.75,13.37c-2.31,0.62-6.86-4.56-6.75-9.62c0.08-3.11,1.9-5.46,3.29-7c0.16-0.17,0.32-0.34,0.46-0.49
	c5.33-5.68,10.74-11.44,16.76-15.36c5.15-3.35,10.76-5.36,17.16-4.82c2.32,0.2,9.29,0.79,11.2,5.08c2.13,4.76-2.76,12.41-9.14,15.1
	c-6.78,2.85-15.29,0.14-18.55-5.19c-1.41-2.29-1.36-4.28-0.67-10.17c0.11-0.97,0.24-2.04,0.39-3.24c0.83-6.94,1.42-12.19,1.93-16.19
	c1.17-9.05,1.99-11.67,4.53-12.74c2.66-1.13,6.44-0.22,7.32,1.66c1.16,2.47-2.82,6.4-3.2,6.77c-2.29,2.22-5.34,3.64-8.65,4.31
	c-2.33,0.47-4.8,0.56-7.23,0.27c-2.63-0.29-5.21-1.02-7.54-2.15c-2.62-1.27-7.02-3.41-8.06-8.05c-0.81-3.63,0.59-8.13,3.75-10
	c4.15-2.44,11.03-0.22,13.49,3.75c2.27,3.67,1.47,9.96-1.64,16.45c-4.07,8.49-12.09,17.31-22.34,21.02
	c-12.38,4.49-23.85,0.02-27.73-1.49h-0.01c-5.34-2.08-11.82-4.61-13.48-10.62c-1.5-5.43,1.68-11.08,4.96-14.15
	c7.68-7.15,22.29-6.07,25.02-0.72c2.66,5.23-4.94,16.49-16.49,25.49h-0.01c-4.52,3.51-9.63,6.67-14.98,8.99
	c-14.75,6.4-33.1,7.17-44.03,2.79c-3.96-1.59-6.94-3.85-8.43-6.76c-1.52-2.96-1.75-7.1-0.38-10.49c2-4.91,7.83-9.38,13.49-8.06
	c5.57,1.31,9.25,7.8,8.62,12.78c-0.65,5.2-6.14,9.78-13.3,12.53c-5.77,2.21-12.62,3.25-18.92,2.46c-7.76-0.98-15.28-4.77-20.54-9.32
	c-4.97-4.3-7.93-9.26-7.19-13.17c0.72-3.84,5.15-7.33,8.24-6.68c3.8,0.8,6.36,8.06,5.25,12.68c-0.72,2.96-3.06,5.31-6.3,7.17
	c-10.34,5.95-29.8,6.9-34.32,7.05c-0.25,0.01-0.45,0.02-0.6,0.02l-10.5-9.75c0,0-0.75-5.24,9-11.99c3.05-2.11,3.59-3.02,4.47-2.91
	c3.42,0.46,6.1,8.83,5.27,14.15c-0.61,3.93-3.34,7.48-7.64,10.48c-6.07,4.25-15.26,7.41-26.09,9.01h-8.24
	c-5.1,1.5-10.02,0.91-13.91-0.93c-4.01-1.9-6.92-5.14-7.82-8.81c-1.69-6.86,4.07-13.58,8.99-16.49c0.9-0.53,8.76-5.04,13.49-1.37
	c3.03,2.36,3.41,7.13,2.81,10.36c-1.29,7.06-8.1,11.37-17.47,16.31c-1.35,0.71-2.75,1.43-4.2,2.18c-6.11,3.15-9.79,5-15.37,5.5
	c-6.99,0.62-12.65-1.27-15.76-2.6c-0.95-0.45-1.84-0.94-2.67-1.46c-7.49-4.64-10.45-11.69-8.54-16.06c1.37-3.15,5.65-5.79,9.86-5.12
	c4.17,0.67,7.46,4.44,7.87,8c0.53,4.57-3.57,9.85-9.19,13.18c-3.36,2-7.26,3.29-11.04,3.31c-7.23,0.03-8.12-4.61-19.21-7.8
	c-12.61-3.63-19.57,0.02-21.27-3.45c-0.77-1.58-0.19-4.12,1.35-6.7c2.43-4.09,7.27-8.31,12.89-9.03
	c9.66-1.24,19.18,8.13,17.99,11.24c-1.37,3.59-17.75,0.71-30.88-2.21c-6.35-1.41-11.94-2.83-14.71-3.54
	c-11.2-2.84-20.65-6.03-27.87-8.75c-1.85-0.7-3.56-1.37-5.11-1.99c-4.53-1.84-7.73-5.75-8.17-10.18c-0.4-4.1,1.69-7.27,2.05-7.81
	c0.79-1.15,2.21-3.25,4.34-3.81c4.61-1.23,12.05,4.85,12.9,11.31c0.69,5.29-3.28,8.92-6.01,12.48c-1.71,2.23-2.94,4.44-2.23,7
	c1.44,5.21,9.77,7.92,15.36,9.75c7.94,2.58,11.52,1.38,13.24,4.24c2.74,4.55-2.34,14.21-6.49,14.24c-4.21,0.04-5.36-9.81-11-10.24
	c-3.27-0.25-4.52,2.95-8.74,4.75c-4.78,2.03-9.96,0.79-18.49-2.75c-17.23-7.16-33.87-14.08-33.22-22.98
	c0.33-4.54,4.97-7.34,5.24-7.5c1.5-0.88,3.15-1.32,4.89-1.43c9.31-0.59,21.22,8.5,27.34,13.17c3.13,2.39,14.26,10.89,12.74,13.74
	c-1.45,2.72-14.33,0.35-23.73-6.49c-8.43-6.14-12.2-14.52-13.87-19.24c-0.85-0.4-1.68-0.8-2.48-1.18
	c-7.47-3.6-12.85-6.61-16.64-9.12c-6.72-4.47-8.45-7.42-7.98-9.43c0.67-2.91,6.29-5.45,9.49-4c3.36,1.52,2.51,6.71,6.25,8.49
	c0.35,0.17,0.73,0.3,1.13,0.39c2.12,0.51,4.75-0.03,6.49-1.39c5.06-3.96-1.5-12.28,1.49-29.23c0.41-2.29,0.91-4.31,1.06-6.09
	c0.17-1.88-0.05-3.47-1.16-4.81c-2.39-2.87-7.38-2.44-10.61-2.33c-1.31,0.04-2.34,0.04-2.78-0.26c-0.91-0.61-4.88-0.48-9.48,0.14
	c-6.79,0.91-14.96,2.88-16.75,5.11c-7.57,9.47-9.49,27.04,0.75,36.72c6.03,5.7,15.16,7.64,22.1,6.69c4.05-0.56,7.34-2.1,8.84-4.46
	c0.02-0.03,0.04-0.06,0.05-0.09c2.34-3.84,0.61-10.95-3.41-14.18c-2.74-2.2-4.93-1.3-7.29-2.41c-5.39-2.52-5.22-12.43-4.29-27.38
	c0.4-6.42,0.94-13.78,1.24-21.87c0.9-23.93-0.73-35.23,5.54-38.84c5.05-2.91,14.78,6.15,34.18-4.63
	c13.57-7.54,17.56-9.37,18.01-8.78c0.56,0.74-3.4,3.33-3.1,7.14c0.25,3.08,3.07,4.17,4.45,6.39c3.74,6-3.08,20.29-13.36,27.48
	c-4.22,2.95-8.83,4.56-13.34,5.3c-12.79,2.11-24.77-2.83-24.76-4.3c0-1.65,15.23-0.11,19.24-8.25c2.55-5.2-1.35-10.52,1.24-12.49
	c2.7-2.04,10.34,1.09,12.75,6.5c2.43,5.48-0.48,13.39-7.87,18.21c0,0-0.22,0.12-0.6,0.33c-1.21,0.65-4,2.19-6.48,3.7
	c-1.87,1.13-3.21,2.09-3.42,2.24c-4.91,3.43-12.31,14.43-11.46,21.99c0.15,1.39,0.58,2.66,1.35,3.74c1.51,2.15,3.86,2.89,4.99,3.25
	c1.87,0.59,3.54,0.63,5.43,0.15c1.86-0.46,3.94-1.43,6.64-2.85c-1.12-5.14-1.05-10.69-0.2-15.79c0.75-4.5,12.74-8.99,14.24-6.74
	c0.98,1.47,10.6,3.89,10.67,7.7c0.04,2.3-2.81,3.24-10.67,7.29c-6.22,3.2-10.63,5.74-14.04,7.54c1.03,4.83,3.11,9.3,6.54,12.69
	c7.64,7.54,18.12,8.64,26.06,7.6c-2.78-5.58-3.94-10.23-2.07-14.34c3.11-6.86,13.98-10.78,20.23-7.5c2.48,1.3,5.24,4.26,4.99,7.34
	c-0.09,1.03-0.56,2.64-4.99,6.15c-2.43,1.93-6.3,5-11.24,6.75c-1.89,0.67-4.26,1.25-6.92,1.6c1.77,3.55,4.2,7.48,6.92,11.89
	c0.95,1.53,2.03,2.84,3.39,4.49c9.73,11.75,14.6,7.5,14.6,7.5c2.66-2.5,5.14-4.52,7.45-6.14c-5.24-8.13-6.85-17.25-8.2-18.59
	c-2.25-2.25,10.49-32.23,20.98-23.24c10.5,9,11.99,6,11.99,14.24c0,8.25,8.25,2.25,0.75,11.99c-1.12,1.47-1.24,2.49-1.3,3.48
	c-0.17,3.17,2.7,4.79,2.18,6.02c-0.7,1.62-6.51,0.5-8.37,0.25c-4.26-0.59-10.14,0.29-18.03,5.85c3.53,5.47,8.7,10.49,16.53,12.41
	c19.49,4.78,8.24,4.22,50.21,3.47c21.83-0.39,22.17-1.79,19.26-4.42c-3.51,0.55-5.85,0.63-8.01-0.08
	c-13.51-4.39-18.2-28.21-14.24-30.72c2.15-1.37,5.27,3.95,10.86,2.99c6.63-1.13,8.28-9.63,10.87-8.99c3.64,0.9,5.97,19.09-1.5,26.23
	c-1,0.96-2.73,2.2-2.79,4.18c-0.08,2.64,3,4.76,4.81,6.39c1.64-0.24,3.55-0.59,5.81-1.01c16.09-2.97,18.08-6.41,25.9-6.56
	c7.76-0.15,9.99,2.18,14.99,0c1.41-0.62,4.51-2.23,7.48-5.26c-2.36-0.06-4.63-0.32-6.73-0.81c-12.75-2.92-9-6.67-13.49-11.92
	c-4.5-5.24-8.25-34.47,4.49-17.23c10.31,13.94,20.12,20.43,19.14,25.62c-0.2,1.03-1.12,1.84-2.65,3.53
	c-0.25,0.28-0.51,0.55-0.76,0.81c8.19,0.21,17.57-2.02,25.48-6.05c-5.88-2.39-10.2-5.7-10.48-9.67c-0.3-4.22,4.03-8.16,7.74-9.62
	c6.7-2.63,15.57,1.18,16.35,5.66c0.25,1.46-0.16,3.53-3.85,6.95c-2.77,2.57-6.11,4.82-9.76,6.68c7.21,2.94,16.76,4.51,24,4.24
	c1.6-0.05,8.65-0.77,12.63-3.81c-14.88-5.12-14.88-13.85-14.88-13.85l10.49-17.99c0,0,12.74-17.24,12.74,0s11.86,13.02,0,21.74
	c-6.43,4.72-5.45,6.77-6.78,8.55c-0.43,0.58-0.96,1.09-1.57,1.55c2,0.69,4.27,1.31,6.85,1.84c14.62,2.99,16.02,2.32,19.47-0.27
	c-0.88-0.99-2.02-2.12-3.73-3.43c-3.38-2.59-4.85-2.69-4.95-4.01c-0.21-2.79,6.44-3.14,9.32-8.73c2.1-4.07,0.31-7.24,2.62-8.75
	c2.17-1.41,5.61,0.15,7.25,1.25c4.53,3.05,4.76,9.43,3.98,14c-0.24,1.4-1.86,2.8-6.23,4.74c-4.42,1.96-6.58,3.68-8.26,4.93
	c1.94,2.17,2.57,3.59,5.01,4.44c2.7,0.94,6.17,0.68,8.75-0.88c3.94-2.37,3.55-6.4,6.49-6.99c2.74-0.55,3.78,2.82,7.25,2.75
	c4.49-0.09,7.7-5.84,8.49-7.25c0.76-1.35,1.87-3.78,2.11-6.89c0.02-0.24-0.02-0.51-0.1-0.83c-1.51-0.55-3.15-1.07-5.01-1.48
	c-12.74-2.79,6-15.53,4.5-4.29c-0.38,2.88,0.25,4.63,0.51,5.77c8.87,3.23,13.59,7.66,34.71-1.48c11.25-4.86,14.13-10.37,13.57-15.64
	c-0.84,0.08-1.77,0.04-2.81-0.12c-1.36-0.21-2.93-0.63-4.76-1.27c-14.99-5.24-4.5-22.48-0.75-14.99c2.05,4.09,7.66,10.06,8.32,16.38
	c7.1-0.65,8.3-9.44,22.41-22.37c17.99-16.49,7.49-22.49,7.49-35.98s-21.73-6.74-21.73-6.74c-7.3,1.5-12.89,6.74-14.24,13.24
	c-0.34,1.63-0.41,3.48-0.25,5.35c7.13-5.18,20.65-6.19,21.23-2.1c0.75,5.24-9.74,13.49-12.74,14.24c-4.54,1.13-7.91-5.63-8.49-12.14
	c-1.52,1.11-2.75,2.41-3.5,3.89c-2.8,5.54,1.97,10.8-1.87,16.11c-2.19,3.04-4.09,1.81-10.55,6.37c-1.84,1.3-3.64,2.59-5.19,4.07
	c0.98,0.87,2.74,2.63,4.05,5.31c0.35,0.7,4.04,8.21,0.8,11.08c-1.82,1.61-5.39,1.37-7.47-0.34c-3.45-2.83-1.75-8.74-1.5-9.62
	c0.75-2.63,2.25-4.66,4.12-6.43c-0.15-0.13-0.27-0.23-0.38-0.32c-5-4.16-10.96-4.38-14.23-4.49c-1.34-0.05-9.59-0.23-17.67,4.53
	c2.48,2.17,4.56,5.01,4.3,8.33c-0.34,4.18-4.42,9.12-8.74,8.62c-2.48-0.28-5.01-2.34-5.5-4.87c-0.72-3.69,3.17-6.95,5.9-9.24
	c1.32-1.11,2.68-2.05,4.04-2.84c-2.86-2.52-6.24-4.14-7.07-4.53c-10.3-4.93-20.34-0.87-22.48,0c-0.93,0.37-3.83,1.54-6.45,3.24
	c1.35,0.62,2.61,1.47,3.7,2.63c0.26,0.27,4.5,4.9,2.93,7.91c-0.81,1.54-2.76,1.9-3.05,1.95c-3.63,0.68-8.09-2.78-8.37-5.99
	c-0.22-2.53,2.14-4.78,4.79-6.5c-5.25-2.42-11.68-1.26-13.04-1c-2.83-1.17-11.64-4.39-20.98-0.75c-1.17,0.46-2.34,1.02-3.48,1.66
	c2.13,2.67,3.25,5.46,2.73,7.34c-0.26,0.95-1.07,2.13-0.63,3.62c0.68,2.28,3.44,2.45,3.63,4c0.19,1.64-2.68,3.64-5.25,4.37
	c-4.41,1.24-10.45-0.55-11.74-4c-1.63-4.33,4.2-11.35,11.26-15.33c-2.95-3.68-7.82-7.13-13.01-7.65
	c-10.53-1.05-16.53,12.02-21.73,15.74c-1.29,0.92-2.71,2.83-4.03,5.21c2.94,1.54,5.39,2.82,5.84,5.08c0.17,0.88-0.11,1.92-1.06,3.2
	c-4.5,5.99-1.5,12.82-7.5,11.65c-4.52-0.88-1.36-12.62,2.72-19.93c-0.87-0.45-1.79-0.93-2.72-1.47c-7.91-4.59-7.01-8.73-11.62-10.49
	c-6.7-2.56-15.96,3.22-22.39,10.03c1.26,2.6,2.12,5.29,2.53,7.96c0.89,5.83-0.26,12.85-2.56,13.83c-0.89,0.38-2.56-0.74-5.68-4.43
	c-1.02-1.21-1.58-2.44-1.75-3.67c-0.44-3.19,2.75-8.71,7.46-13.69c-3.72-7.64-10.89-14.42-19.95-17.52
	c-3.43-1.17-7.02-1.78-10.59-1.84c3.57,6.35,3.81,12.64-5.9,19.18c-20.98,14.13-26.23,23.88-27.73,12.64
	c-1.26-9.5,5.04-19.28,11.99-24.74c6.06-4.75,13.82-7.22,21.64-7.08c-4.16-7.38-12.83-14.84-15.64-22.89
	c-1.2-3.42-3.19-6.85-4.97-6.66c-2.82,0.28-1.02,9.62-6.46,16.09c-5.58,6.63-14.58,5.28-20.42,7.02c0.03,0.11,0.08,0.22,0.12,0.33
	c0.55,1.4,1,1.22,1,6.45c0,6.74,8.24,5.99,1.5,10.49c-4.68,3.12-5.75,8.41-6.22,8.35c-0.73-0.1-0.58-2.73-0.53-3.85
	c0.57-12.56-2.43-14.35-0.74-17.99c0.96-2.07,2.7-3.14,4.87-3.78c-0.28-0.79-0.35-1.36-0.38-1.47c-0.37-1.39-10.49-1.43-20.24,1
	c-0.19,1.16-0.43,2.34-0.74,3.5c-1.73,6.47-4.19,10.2-7.4,12.21c-0.77,0.48-5.64,3.89-8.34,2.03c-1.64-1.13-1.68-3.66-1.69-4.06
	c-0.04-3.09,2.15-5.38,3.19-6.43c3.41-3.46,9.13-5.8,14.98-7.25c0.11-0.63,0.2-1.26,0.27-1.88c0.33-2.78,0.37-5.48,0.27-7.9
	c-0.31,0-0.62,0.02-0.94,0.03c-22.35,0.99-31.46,12.34-37.07,7.26c-5.29-4.81-2.32-19.6,6-27.73c1.9-1.86,8.72-8.53,17.24-6.57
	c6.98,1.6,12.49,8.41,13.49,17.06c0,0,1.05,4.19,1.28,9.95c17.32-0.54,28.14,5.63,33-0.52c3.72-4.7,1.41-13.35,7.12-16.68
	c1.05-0.61,3.26-1.56,5.06-3.99c0.35-0.47,1.96-2.5,2.09-4.64c0.08-1.25-0.23-2.46-0.82-3.64c-18.82,7.26-6.62,9.51-31.24,6.78
	c-26.99-3-17.24-15.74-8.25-18.74c8.99-3,14.24-8.24,19.49-3.75c3.79,3.26,16.63,8.87,20,15.71c0.27-0.1,0.56-0.21,0.85-0.32
	c1.6-0.6,3.42-1.23,5.48-1.9c9.27-2.99,13.81-4.84,15.15-7.9c-6.22-5.02-16.56-15.56-15.08-24.28c0.48-2.88,1.97-5.19,3.58-6.79
	c5.99-5.99,11.99-10.49,11.24,0c-0.51,7.08,3.08,9.39,3.17,13.13c0.07,3.48-2.22,3.08-3.17,7.11c-1.35,5.67,1.73,7.35,0.28,10.78
	c-0.01,0.02-0.01,0.03-0.02,0.05c1.61,1.3,2.95,2.23,3.73,2.66c0.64,0.35,3.23,1.56,4.57,4.29c0.52,1.05,0.15,1.36,2.09,1.65
	c1.04-12.7,6.07-19.43,8.83-22.43c2.99-3.24,7.03-6.14,8.25-5.25c1.85,1.36-4.22,10.44-1.31,13.37c2.21,2.23,7.98-0.77,8.99,1.12
	c0.43,0.81-0.29,1.98-1.69,4.25c-2.05,3.33-3.48,3.62-4.04,6.03c-0.92,3.93,2.21,4.79-10.2,3.71c-4.89-0.42-7.45-0.61-8.83-0.8
	c-0.08,0.98-0.13,2-0.16,3.05c-0.58,1.01-5.92,10.55-1.5,19.49c0.56,1.12,2.37,4.68,6.3,6.98c3.46,2.03,4.7,0.81,13.4,2.01
	c5.42,0.75,8.56,1.63,10.92,1.42c-0.95-1.91-1.85-3.83-5.14-7.42c-8.24-8.99-5.24-22.48-5.24-22.48l11.24-3c0,0,7.49-0.75,9.74,2.25
	s7.5,6.75,6.75,11.24c-0.75,4.5,8.59,6.23-5.25,11.25c-7.85,2.84-7.38,5.84-9.37,7.21c-0.84,0.58-1.71,0.86-2.73,0.95
	c1.42,2.88,2.94,5.75,12.85,14.28c10.97,9.44,8.34,7.34,12.41,3.1c3.22-3.36,5.52-2.95,13.82-6.81c3.99-1.85,7.68-3.6,11.51-7.11
	c0.83-0.76,1.35-1.32,1.76-1.81c-2.4-2.22-3.29-5.09-6.15-5.26c-4.84-0.28-7.45,7.64-10.87,6.69c-2.41-0.68-3.11-5.19-3.37-6.87
	c-0.26-1.7-0.67-6.06,2.06-11.62c4.52-9.21,14.79-15.92,17.8-13.76c2.67,1.92-1.67,9.87,1.5,12.07c2.87,2,8-3.39,12.29-0.96
	c1.69,0.96,3.23,3.12,3.05,5.17c-0.34,3.75-6.16,3.88-13.09,10.72c-1.96,1.93-2.25,2.67-3.22,3.82c0.98,0.92,2.23,1.72,3.97,2.18
	c3.05,0.79,6.38,0.19,8.94-0.28c2.03-0.37,2.05-0.59,5.77-1.5c1.21-0.29,2.13-0.5,2.9-0.65c-0.64-4.43,1.07-9.48,3.37-12.56
	c0.94-1.25,2.44-3.21,5.06-3.69c1.97-0.36,4.48,0.13,6,1.88c2.29,2.63,1.3,6.97-0.56,9.36c-1.56,2-3.88,2.64-8.52,3.92
	c-2.25,0.61-3.08,0.63-5.35,1.09c0.24,1.7,0.84,3.31,1.87,4.68c4.19,5.54,13.19,4.04,19.49,2.99c4.45-0.74,8.94-2.2,12.87-4.04
	c-0.5-1.25-1.2-2.85-2.38-4.95c-4.24-7.56-7.31-8.5-7.87-13.62c-0.12-1.11-0.43-4.37,1.5-7.49c1.75-2.82,5.51-5.8,8.25-4.87
	c3.02,1.02,1.72,5.78,5.99,11.8c3.5,4.93,6.35,4.53,6.75,7.12c0.57,3.77-4.85,8.55-12.24,12.01c1.03,2.58,1.19,3.71,2.87,4.79
	c5.55,3.56,14.62-1.6,15.74-2.25c2.34-1.36,4.14-2.89,5.59-4.45c4.83-5.18,5.72-10.59,9.27-10.54c3.5,0.05,5.29,5.33,8.17,10.66
	c1.15-2.14,2.69-4.74,5.45-7.66c1.55-1.65,10.14-10.76,15.74-8.24c3.59,1.62,5.59,7.91,3.62,11.37c-2.26,3.97-8.89,2.71-9.75,5.87
	c-0.83,3.08,4.98,6.25,4.05,8.3c-0.7,1.55-4.92,1.76-8.42,0.69c-5.28-1.62-8.36-5.99-10.69-10.33c-1.68,3.07-2.53,5.17-5.05,5.83
	c-3.7,0.97-8.94-1.7-12.39-5.95c-1.22-1.51-2.22-3.22-2.84-5.04c-4.53-13.22,13.64-26.75,9.24-32.48
	c-2.59-3.37-11.58-2.17-13.24,1.25c-1.46,3,3.46,6.15,2.5,11.87c-0.61,3.6-3.37,7.23-5.75,7.12c-3.16-0.15-5.37-6.91-6-11.24
	c-0.5-3.52,0.19-4.41,0-6.75c-0.55-6.84-7.31-9.72-12.89-14.53c-2.81-2.41-5.32-5.31-6.59-9.45c-0.43-1.4-2.06-6.72,0.75-11.24
	c2.03-3.27,6.38-6.12,11.12-5.26c5.16,0.93,7.46,5.67,7.61,6.01c2.7,5.81-1.01,12.5-4.49,15.74c-0.16,0.14-1.4,1.26-3.38,2.35
	c-1.36,0.75-3.07,1.47-5.02,1.85c-0.9,0.19-1.85,0.29-2.84,0.29c-5.4,0-8.58-3.77-11.32-5.5c-2.47-1.56-5.75-2.19-8.96-1.95
	c3.16,5.91,3.85,12.86,0.6,16.7c-2.95,3.49-9.43,4.7-12.27,2.15c-3.4-3.05-1.63-11.55,3-15.55c2.24-1.94,5.42-3.06,8.67-3.3
	c-1.78-3.34-4.35-6.35-7.45-8.29c-3.24-2.01-9.24-4.22-12.37-1.71c-3.54,2.83,0.45,8.55-3,14.14c-4.13,6.7-14.99,6.8-19.2,6.84
	c-3.31,0.03-15.43,0.15-17.15-5.53c-1.41-4.68,4.66-12.03,9.37-11.71c4.32,0.3,4.81,6.87,9.84,7.69c4.3,0.7,10.33-3.07,11.52-8.97
	c0.91-4.51-1.24-9.07-4.5-11.24c-4.79-3.19-11.27-0.72-14.24,0c-13.23,3.21-30.51-10.65-45.67-28.05"/>
</svg>
