<?xml version="1.0" encoding="utf-8"?>
<!-- Generator: Adobe Illustrator 26.3.1, SVG Export Plug-In . SVG Version: 6.00 Build 0)  -->
<svg version="1.1" id="Layer_1" xmlns="http://www.w3.org/2000/svg" xmlns:xlink="http://www.w3.org/1999/xlink" x="0px" y="0px"
	 viewBox="0 0 430 637.886" style="enable-background:new 0 0 430 637.886;" xml:space="preserve">
<style type="text/css">
	.st0{fill:#01AABC;stroke:#1F1F1F;stroke-width:2.0002;stroke-miterlimit:4.0004;}
	.st1{fill:#55CCD3;stroke:#1F1F1F;stroke-width:2.0002;stroke-miterlimit:4.0004;}
	.st2{fill:#009481;stroke:#1F1F1F;stroke-width:2.0002;stroke-miterlimit:4.0004;}
	.st3{fill:#F8A7AC;stroke:#1F1F1F;stroke-width:2.0002;stroke-miterlimit:4.0004;}
	.st4{fill:#EC5563;stroke:#1F1F1F;stroke-width:2.0002;stroke-miterlimit:4.0004;}
	.st5{fill:#FD910A;stroke:#1F1F1F;stroke-width:2.0002;stroke-miterlimit:4.0004;}
</style>
<g id="rainbow-7" transform="matrix(0.643, -0.766, 0.766, 0.643, 86.976, 808.879)">
	<path class="st0" d="M477.069,47.349l-34.93,29.321c-6.728-1.624-12.892-4.426-18.153-8.718
		C385.461,36.492,355.824-3.434,330.978-50.28c-24.854-46.84-7.073-49.95-51.981-73.977c-44.915-24.02-79.57-8.99-127.671-22.125
		c-48.107-13.142-38.981-21.26-64.74-30.421c-2.721-0.94-5.473-1.777-8.249-2.501l25.258-21.202
		c18.023,9.061,11.673,19.77,57.763,29.933c51.751,11.402,87.084-8.466,137.695,20.055c5.249,2.956,9.821,5.79,13.831,8.56
		l0.013,0.015c3.909,2.698,7.278,5.327,10.209,7.932c17.287,15.306,19.724,29.749,28.609,51.951l0.006,0.008
		c3.006,7.516,6.758,15.92,12.077,25.554c9.622,17.419,17.406,31.498,24.869,43.654c0.006,0.008,0.006,0.008,0.013,0.015
		c13.055,21.26,25.139,36.666,44.429,53.814C443.878,50.562,460.321,50.897,477.069,47.349z"/>
	<path class="st1" d="M700.526-140.227L587.158-45.064l23.473-20.278l30.094-33.186C640.725-98.528,668.483-120.236,700.526-140.227
		z"/>
	<path class="st1" d="M534.001-0.442l-63.795,53.551c-17.508,1.942-34.419-0.024-46.51-9.901
		c-38.524-31.461-68.161-71.387-93.015-118.226c-24.846-46.846-7.066-49.957-51.973-73.983c-44.915-24.02-79.57-8.99-127.671-22.125
		c-38.437-10.502-40.342-17.794-52.696-24.969l20.387-17.113c6.436,5.863,15.491,11.97,42.342,17.891
		c51.751,11.402,87.084-8.466,137.696,20.055c3.937,2.217,7.496,4.373,10.72,6.471l0.006,0.008
		c6.251,4.088,11.254,7.995,15.344,11.872l0.006,0.008c13.807,13.058,17.349,25.738,24.013,43.459
		c3.44,9.136,7.712,19.623,14.655,32.202c13.227,23.937,22.964,41.572,33.194,56.588c0.006,0.008,0.006,0.008,0.013,0.015
		l0.006,0.008c10.23,15.002,20.951,27.4,36.098,40.873C458.638,39.203,517.192,9.02,534.001-0.442z"/>
	<path class="st2" d="M760.821-190.84L506.89,22.315c-27.699,9.335-62.287,15.471-82.905-1.361
		C411.3,10.585,399.579-0.686,388.681-12.83c-0.006-0.008-0.006-0.008-0.013-0.015c-22.214-24.721-41.035-53.022-57.697-84.427
		c-12.042-22.712-14.058-35.145-18.073-44.672l-0.013-0.015c-4.264-10.102-10.765-16.929-33.887-29.296
		c-44.915-24.02-79.57-8.99-127.671-22.124c-21.349-5.838-31.431-10.678-38.281-15.059l20.839-17.492
		c6.314,2.794,14.962,5.6,27.475,8.36c51.751,11.402,87.084-8.466,137.696,20.054c5.283,2.981,9.881,5.831,13.91,8.624
		c34.556,23.904,27.148,42.512,50.835,85.396c9.353,16.927,16.964,30.707,24.234,42.634c0,0,0.007,0.008,0.013,0.015
		c13.293,21.792,25.464,37.411,45.064,54.835c30.314,26.969,105.778-19.354,105.778-19.354l72.033-62.229l30.094-33.186
		c0,0,42.474-33.212,82.983-55.311C736.286-182.791,748.987-187.552,760.821-190.84z"/>
	<path class="st3" d="M792.611-217.526l-76.232,63.991c-20.825,10.915-39.778,22.085-49.97,29.413
		c-26.443,19.012-25.527,28.347-116.723,107.171c0,0-87.313,48.737-125.845,17.282c-9.567-7.805-18.585-16.136-27.118-24.965
		l-0.006-0.008c-0.006-0.008-0.006-0.008-0.013-0.015c-16.688-17.284-31.529-36.471-44.982-57.397l-0.006-0.008
		c-7.347-11.443-14.288-23.398-20.889-35.833c-3.212-6.05-5.714-11.379-7.72-16.117c-7.299-17.124-8.232-26.51-13.615-34.773
		l-0.006-0.008c-4.631-7.118-12.548-13.409-30.639-23.079c-44.908-24.027-79.556-8.989-127.664-22.131
		c-9.636-2.63-16.981-5.067-22.758-7.345l22.914-19.235c2.996,0.801,6.276,1.598,9.876,2.388c16.468,3.631,31.275,4.1,45.439,3.959
		c0.028,0.002,0.05-0.003,0.064-0.001c0.028,0.002,0.056,0.005,0.078,0c0.022-0.005,0.042,0.004,0.071,0.006
		c30.261-0.311,57.62-3.302,92.044,16.091c18.325,10.322,28.4,19.229,35.051,28.645c8.616,12.193,11.492,25.262,19.102,43.456
		c0.013,0.015,0.011,0.03,0.024,0.045c2.742,6.563,6.106,13.791,10.574,21.881C390.1-76.24,402.644-53.598,432.959-26.63
		c30.322,26.962,105.785-19.36,105.785-19.36l72.039-62.221l30.094-33.186c0,0,42.467-33.22,82.983-55.311
		C748.548-210.173,774.934-215.769,792.611-217.526z"/>
	<path class="st4" d="M822.249-242.405l-38.077,31.963c-34.575,10.786-96.049,43.851-117.76,59.465
		c-26.443,19.011-25.533,28.339-116.721,107.156c0,0-87.321,48.744-125.846,17.297c-12.879-10.521-24.753-21.976-35.797-34.324
		c-0.006-0.007-0.013-0.015-0.013-0.015c-14.375-16.067-27.326-33.642-39.178-52.582c-6.298-10.053-12.292-20.491-18.026-31.304
		c-2.346-4.428-4.308-8.46-5.987-12.155l-0.006-0.008c-6.758-14.94-8.764-24.406-11.871-31.98
		c-4.258-10.407-10.587-17.262-34.115-29.848c-25.889-13.843-48.368-14.712-71.983-15.489c-0.029-0.002-0.049-0.011-0.071-0.006
		c-0.022,0.005-0.05,0.003-0.078,0c-0.014-0.001-0.036,0.004-0.064,0.001c-17.177-0.555-34.952-1.078-55.093-6.534l25.732-21.6
		c43.408,5.024,76.427-8.098,121.621,17.373c50.613,28.506,38.3,46.14,64.745,94.019c26.445,47.88,38.989,70.522,69.311,97.484
		C463.283-26.523,538.74-72.853,538.74-72.853l72.039-62.221l30.094-33.186c0,0,42.467-33.22,82.983-55.311
		c33.519-18.281,70.13-22.054,83.893-21.427C812.089-244.804,816.974-243.852,822.249-242.405z"/>
	<path class="st5" d="M839.994-257.3l-26.207,21.999c-8.036-2.341-14.765-3.95-19.545-4.155
		c-23.94-1.04-91.971,31.446-118.422,50.464c-26.443,19.012-38.88,35.953-130.077,114.777c0,0-79.889,51.33-118.413,19.869
		c-31.722-25.892-54.997-53.9-74.243-91.648c-0.013-0.015-0.011-0.03-0.024-0.045c-4.12-8.081-8.066-16.623-11.861-25.67
		c-2.854-6.821-5.216-12.684-7.241-17.786c-13.289-33.296-13.024-33.976-51.965-54.813c-38.331-20.5-71.475-9.036-110.264-13.394
		l28.719-24.108c32.871,0.201,61.622-4.677,98.461,16.083c50.619,28.514,38.3,46.14,64.745,94.02
		c26.445,47.88,38.989,70.522,69.303,97.491c30.322,26.962,53.806,9.325,105.779-19.368c51.98-28.699,73.871-73.289,102.14-95.413
		c28.269-22.124,42.473-33.212,82.983-55.311c33.511-18.274,70.13-22.054,83.893-21.427
		C816.627-265.323,827.759-261.782,839.994-257.3z"/>
</g>
</svg>
