<?xml version="1.0" encoding="utf-8"?>
<!-- Generator: Adobe Illustrator 26.3.1, SVG Export Plug-In . SVG Version: 6.00 Build 0)  -->
<svg version="1.1" id="Layer_1" xmlns="http://www.w3.org/2000/svg" xmlns:xlink="http://www.w3.org/1999/xlink" x="0px" y="0px"
	 viewBox="0 0 563.745 2622.25" style="enable-background:new 0 0 563.745 2622.25;" xml:space="preserve">
<style type="text/css">
	.st0{fill:none;stroke:#F6A6AA;stroke-width:5;}
	.st1{fill:#FB8F0A;}
	.st2{fill:#EB9338;}
	.st3{fill:none;stroke:#E9A8AA;stroke-width:5;}
</style>
<path class="st0" d="M313.792,2178.739c6.2,0.13,9.34-0.8,12.26-2.16c0,0,0.47-0.22,16.11-8.31c0,0,4.5-2.99,14.99-2.99
	c8.45,0,18.36,0,28.15-8.22c0.84,2.42,1.95,4.69,3.33,6.72c6.26,9.24,14.23,7.97,14.99,12.74c1.03,6.51-13.43,11.31-32.6,18.33
	c-25.44,9.33-59.18,22.59-75.98,49.01c15.95-1.74,29.94,0.87,35.88,8.35c15.64,19.69-18.43,80.67-32.98,77.95
	c-11.73-2.2-22.86-48.15-5.99-80.94c0.95-1.85,1.98-3.63,3.09-5.36c-24.98,2.73-54.78,16.15-66.05,38.33
	c-16.81,33.1,8.13,85.19,41.97,155.89c4.74,9.89,16.21,33.06,22.15,66.03c3.24,18.03,3.77,33.1,3.74,42.72"/>
<path class="st0" d="M142.641,34.999c20.6-4.48,54.97-8.49,92.94,4.08c17.57,5.82,44.52,14.74,61.27,40.85
	c4.47,6.97,19.47,30.34,11.1,49.24c-8.23,18.59-31.4,15.55-38.67,35.53c-4.23,11.61-0.92,25.09,5.1,33.7
	c10.42,14.89,25.53,10.32,39.83,20.43c26.18,18.5,31.72,73.51,9.96,111.02c-1.08,1.88-2.24,3.71-3.46,5.49
	c-3.72,5.41-18.25,26.54-44.28,31.57c-18.24,3.52-46.09-0.09-52.09-16.34c-3.51-9.52,1.31-21.11,7.71-28.01
	c18.2-19.61,55.56-8.2,63.78-5.69c9.67,2.95,19.45,7.49,28.34,12.98c10.81,6.66,20.3,14.72,26.65,23.03
	c6.24,8.14,9.46,16.51,7.97,24.01c-1.62,8.15-9.13,17-15.98,16.57c-6.44-0.4-13.03-9.04-12.97-16.87
	c0.06-9.42,9.75-17.5,20.98-23.71c14.44-7.98,31.44-12.86,33.86-13.54c21.68-6.06,40.67-5.48,53-4.09
	c-16.92,9.78-38.46,25.96-50.96,52.09c-32.38,67.7,23.88,143.78-1.12,163.38c-23.7,18.58-80.5-44.9-123.44-21.99
	c-21.66,11.54-33.37,41.64-28.63,63.88c6.82,32,48.17,50.15,73.53,61.28c30.05,13.18,40.14,9.64,48,21.45
	c16.52,24.81-2.63,78.65-31.36,92.24c-2.74,1.3-5.57,2.23-8.46,2.73c-16.86,2.94-38.36-8.17-38.81-18.38
	c-0.33-7.34,10.14-16.1,20.42-16.34c10.44-0.24,17.82,8.37,19.41,10.21c5.57,6.49,7.42,13.86,7.44,21.78
	c0.05,22.95-15.42,50.59-1.32,75.25c11.88,20.76,30.58,14.66,38.81,34.72c11.13,27.13-10,70.09-35.55,75.43
	c-16.85,3.52-28.7-10.77-49.21-23.35c-25.19-15.44-64.7-29.06-127.66-21.44c0.52,12.69,2.05,32.49,7.15,56.17
	c8.8,40.96,18.09,84.13,51.18,102.14c5.83,3.17,12.89,5.83,20.19,7.43c-5-11.79-6.22-24.93-0.99-35.25
	c6.86-13.56,25.73-24.01,36.85-18.15c12.55,6.6,14.04,33.34,2.82,45.97c-8.55,9.62-24.09,10.64-38.68,7.43
	c5.99,14.1,17.41,26.26,29.73,29.32c24.88,6.17,48.81-25.87,60.26-17.36c8.66,6.44-3.8,25.76,5.1,34.72
	c12.58,12.66,46.92-16.25,98.05-17.36c21.57-0.47,39.35,4.16,51.06,8.17c-32.28,7.02-71.43,21.57-89.87,55.15
	c-24.43,44.48,0.76,98.22-20.43,109.28c-19.53,10.19-46.02-32.8-82.72-23.49c-24.41,6.19-37.25,31.45-40.86,38.55
	c-14.97,29.44-7.35,58.94-3.75,71.95c4.66,16.81,11.39,27.99,17.99,38.97c9.92,16.48,26.13,38.36,42.22,51.57"/>
<g id="Ellipse_24_00000175319615957979455110000001877992413093315247_">
	<circle class="st1" cx="293.109" cy="2535.112" r="33.5"/>
	<circle class="st0" cx="293.109" cy="2535.112" r="31"/>
</g>
<path id="Path_172" class="st2" d="M471.183,1076.737c18.502,0,33.5,14.998,33.5,33.5c0,18.501-14.998,33.5-33.5,33.5
	s-33.5-14.999-33.5-33.5C437.683,1091.735,452.682,1076.737,471.183,1076.737L471.183,1076.737"/>
<circle id="Ellipse_30" class="st3" cx="471.183" cy="1110.237" r="31"/>
<path id="Path_173" class="st2" d="M468.683,301.747c18.502,0,33.5,14.998,33.5,33.5s-14.998,33.5-33.5,33.5s-33.5-14.998-33.5-33.5
	S450.182,301.747,468.683,301.747L468.683,301.747"/>
<circle id="Ellipse_31" class="st3" cx="468.683" cy="335.247" r="31"/>
<path id="Path_174" class="st2" d="M146.566,0c18.502,0,33.5,14.998,33.5,33.5S165.068,67,146.566,67s-33.5-14.998-33.5-33.5
	S128.065,0,146.566,0"/>
<circle id="Ellipse_32" class="st3" cx="146.566" cy="33.497" r="31"/>
<path id="Path_175" class="st2" d="M149.066,874.226c18.502,0,33.5,14.998,33.5,33.5s-14.998,33.5-33.5,33.5s-33.5-14.998-33.5-33.5
	l0,0C115.566,889.224,130.565,874.226,149.066,874.226"/>
<circle id="Ellipse_33" class="st3" cx="149.066" cy="907.726" r="31"/>
</svg>
